<?xml version="1.0" encoding="UTF-8"?>
<svg xmlns="http://www.w3.org/2000/svg" xmlns:xlink="http://www.w3.org/1999/xlink" version="1.2" >
<font id="Du Nord XLt Italic">
<font-face  font-family="Du Nord" units-per-em="1000" ascent="914" descent="-201" font-style="italic" font-weight="250" font-stretch="normal" slope="-13" cap-height="693" x-height="496" underline-position="-185" underline-thickness="50" />
<missing-glyph  horiz-adv-x="672" d="M146 298 L176 298 L176 440 L257 440 Q319 440 350.5 468 Q382 496 382 550 Q382 602 351.5 626 Q321 650 257 650 L146 650 L146 298 Z M350 548 Q350 506 326 486 Q302 466 251 466 L176 466 L176 625 L251 625 Q302 625 326 607 Q350 589 350 548 Z M534 294 Q548 294 555 295 Q562 296 568 298 L568 322 Q559 320 550.5 318.5 Q542 317 535 317 Q512 317 500.5 328.5 Q489 340 489 365 L489 528 L568 528 L568 553 L489 553 L489 623 L461 623 L461 553 L415 553 L415 528 L461 528 L461 369 Q461 329 477.5 311.5 Q494 294 534 294 Z M632 693 L632 0 L80 0 L80 693 L632 693 Z " />
<glyph glyph-name="space" unicode="&#x20;" horiz-adv-x="220" d="" />
<glyph glyph-name="exclam" unicode="&#x21;" horiz-adv-x="227" d="M242 693 L111 181 L83 181 L188 693 L242 693 Z M108 83 L90 0 L20 0 L39 83 L108 83 Z " />
<glyph glyph-name="quotedbl" unicode="&#x22;" horiz-adv-x="367" d="M228 693 L181 484 L140 484 L188 693 L228 693 Z M381 693 L334 484 L293 484 L341 693 L381 693 Z " />
<glyph glyph-name="numbersign" unicode="&#x23;" horiz-adv-x="528" d="M379 224 L328 0 L288 0 L339 224 L176 224 L124 0 L84 0 L135 224 L40 224 L48 260 L143 260 L183 432 L88 432 L96 468 L191 468 L243 693 L283 693 L232 468 L395 468 L447 693 L487 693 L435 468 L529 468 L521 432 L427 432 L387 260 L481 260 L473 224 L379 224 Z M183 260 L347 260 L387 432 L223 432 L183 260 Z " />
<glyph glyph-name="dollar" unicode="&#x24;" horiz-adv-x="560" d="M238 -12 L216 -107 L176 -107 L198 -8 Q123 4 75.5 49.5 Q28 95 12 170 L58 178 Q71 117 109 78.5 Q147 40 207 29 L277 332 Q226 350 201.5 362.5 Q177 375 160 389 Q132 411 119 439 Q106 467 106 503 Q106 590 175.5 641 Q245 692 360 692 L381 782 L421 782 L399 686 Q460 673 498 631 Q536 589 546 526 L501 518 Q494 566 464.5 600.5 Q435 635 390 648 L324 362 Q425 325 459 285 Q493 245 493 185 Q493 92 425.5 40 Q358 -12 238 -12 Z M447 180 Q447 228 418 260 Q389 292 314 320 L246 24 Q338 24 392.5 66 Q447 108 447 180 Z M153 510 Q153 465 181.5 434 Q210 403 287 375 L352 655 Q265 655 209 616.5 Q153 578 153 510 Z " />
<glyph glyph-name="percent" unicode="&#x25;" horiz-adv-x="834" d="M753 709 L192 -13 L147 -13 L708 709 L753 709 Z M320 686 Q392 686 431.5 633.5 Q471 581 454 507 Q438 435 378.5 386.5 Q319 338 248 338 Q176 338 137 390.5 Q98 443 115 517 Q131 589 190.5 637.5 Q250 686 320 686 Z M252 373 Q307 373 353.5 413 Q400 453 413 511 Q426 569 397.5 610 Q369 651 314 651 Q260 651 214 611 Q168 571 155 513 Q141 455 169 414 Q197 373 252 373 Z M648 338 Q721 338 760 285.5 Q799 233 782 159 Q766 87 706.5 38.5 Q647 -10 576 -10 Q504 -10 465.5 42.5 Q427 95 444 169 Q460 241 519 289.5 Q578 338 648 338 Z M581 25 Q635 25 681.5 65 Q728 105 741 163 Q754 221 726 262 Q698 303 643 303 Q588 303 542 263 Q496 223 483 165 Q469 108 497.5 66.5 Q526 25 581 25 Z " />
<glyph glyph-name="ampersand" unicode="&#x26;" horiz-adv-x="637" d="M469 151 L559 0 L507 0 L438 116 Q379 52 319 20 Q259 -12 200 -12 Q126 -12 79 30 Q32 72 32 143 Q32 220 90.5 279 Q149 338 279 387 Q258 421 246 458.5 Q234 496 234 528 Q234 604 289.5 655 Q345 706 427 706 Q491 706 527.5 672 Q564 638 564 582 Q564 520 510.5 470.5 Q457 421 337 374 L450 186 L574 332 L626 332 L469 151 Z M206 25 Q255 25 309 56.5 Q363 88 419 150 L295 360 Q185 317 132 264.5 Q79 212 79 147 Q79 92 115 58.5 Q151 25 206 25 Z M280 532 Q280 500 290.5 467.5 Q301 435 322 401 Q425 441 473 484.5 Q521 528 521 581 Q521 621 494.5 645.5 Q468 670 423 670 Q363 670 321.5 631 Q280 592 280 532 Z " />
<glyph glyph-name="quotesingle" unicode="&#x27;" horiz-adv-x="214" d="M228 693 L181 484 L140 484 L188 693 L228 693 Z " />
<glyph glyph-name="parenleft" unicode="&#x28;" horiz-adv-x="300" d="M107 76 Q107 10 118 -57.5 Q129 -125 149 -182 L109 -182 Q85 -110 74.5 -47 Q64 16 64 79 Q64 232 126 389 Q188 546 306 693 L351 693 Q234 546 170.5 387.5 Q107 229 107 76 Z " />
<glyph glyph-name="parenright" unicode="&#x29;" horiz-adv-x="300" d="M234 429 Q234 276 172.5 119.5 Q111 -37 -5 -182 L-52 -182 Q67 -33 129.5 124.5 Q192 282 192 436 Q192 501 181 569 Q170 637 150 693 L189 693 Q212 623 223 558 Q234 493 234 429 Z " />
<glyph glyph-name="asterisk" unicode="&#x2a;" horiz-adv-x="391" d="M281 526 L374 415 L340 391 L262 511 L184 390 L151 415 L241 525 L102 562 L115 602 L248 549 L240 693 L282 693 L273 549 L408 602 L420 562 L281 526 Z " />
<glyph glyph-name="plus" unicode="&#x2b;" horiz-adv-x="560" d="M509 307 L499 269 L303 269 L252 52 L214 52 L264 269 L67 269 L77 307 L273 307 L323 524 L361 524 L312 307 L509 307 Z " />
<glyph glyph-name="comma" unicode="&#x2c;" horiz-adv-x="214" d="M86 9 L14 -126 L-18 -126 L45 0 L14 0 L32 83 L102 83 L86 9 Z " />
<glyph glyph-name="hyphen" unicode="&#x2d;" horiz-adv-x="285" d="M267 293 L258 254 L27 254 L36 293 L267 293 Z " />
<glyph glyph-name="period" unicode="&#x2e;" horiz-adv-x="214" d="M102 83 L84 0 L14 0 L32 83 L102 83 Z " />
<glyph glyph-name="slash" unicode="&#x2f;" horiz-adv-x="423" d="M527 706 L-14 -13 L-61 -13 L479 706 L527 706 Z " />
<glyph glyph-name="zero" unicode="0" horiz-adv-x="560" d="M140 338 Q106 191 138.5 107 Q171 23 253 23 Q336 23 409 107 Q482 191 516 338 Q529 396 532 444.5 Q535 493 528 532 Q516 592 482 625 Q448 658 400 658 Q319 658 246.5 572 Q174 486 140 338 Z M560 332 Q525 178 440 83 Q355 -12 249 -12 Q142 -12 100.5 86.5 Q59 185 95 344 Q130 500 215 596.5 Q300 693 404 693 Q511 693 553.5 592 Q596 491 560 332 Z " />
<glyph glyph-name="one" unicode="1" horiz-adv-x="560" d="M474 36 L466 0 L56 0 L64 36 L262 36 L398 626 Q374 590 299 535.5 Q224 481 168 458 L162 495 Q225 520 300.5 578 Q376 636 407 683 L453 683 L304 36 L474 36 Z " />
<glyph glyph-name="two" unicode="2" horiz-adv-x="560" d="M446 37 L438 0 L8 0 Q25 44 54 83 Q83 122 127 158 Q152 180 184.5 202.5 Q217 225 290 270 Q418 348 461 396.5 Q504 445 513 502 Q524 571 488.5 614.5 Q453 658 383 658 Q309 658 252 607 Q195 556 160 460 L120 473 Q156 577 225.5 635 Q295 693 386 693 Q476 693 524 639 Q572 585 559 502 Q549 437 499.5 380 Q450 323 313 238 Q182 156 138.5 117.5 Q95 79 74 37 L446 37 Z " />
<glyph glyph-name="three" unicode="3" horiz-adv-x="560" d="M462 228 Q462 298 422 337 Q382 376 311 376 L238 376 L246 410 L510 646 L165 646 L173 683 L571 683 L562 644 L302 412 L329 412 Q413 412 462 363.5 Q511 315 511 231 Q511 125 434.5 56.5 Q358 -12 246 -12 Q161 -12 103 31 Q45 74 35 144 L83 153 Q89 98 137 61.5 Q185 25 252 25 Q340 25 401 82 Q462 139 462 228 Z " />
<glyph glyph-name="four" unicode="4" horiz-adv-x="560" d="M425 168 L387 0 L345 0 L383 168 L27 168 L37 212 L482 683 L544 683 L433 204 L519 204 L511 168 L425 168 Z M78 204 L391 204 L493 641 L491 641 L78 204 Z " />
<glyph glyph-name="five" unicode="5" horiz-adv-x="560" d="M582 683 L574 646 L274 646 L173 373 Q205 394 247.5 406.5 Q290 419 330 419 Q412 419 461.5 370.5 Q511 322 511 240 Q511 132 432 60 Q353 -12 240 -12 Q157 -12 102 30.5 Q47 73 38 144 L85 153 Q91 97 136 61 Q181 25 247 25 Q336 25 400 85.5 Q464 146 464 237 Q464 306 425 345 Q386 384 317 384 Q276 384 234 370 Q192 356 165 335 L117 335 L248 683 L582 683 Z " />
<glyph glyph-name="six" unicode="6" horiz-adv-x="560" d="M397 693 Q469 693 514 653.5 Q559 614 569 542 L526 534 Q515 595 481 626 Q447 657 392 657 Q335 657 284.5 624 Q234 591 193 527 Q162 477 139 414 Q116 351 108 295 Q160 356 217.5 387.5 Q275 419 335 419 Q410 419 455 373.5 Q500 328 500 252 Q500 151 418.5 69.5 Q337 -12 236 -12 Q151 -12 105 50.5 Q59 113 59 225 Q59 294 82 377.5 Q105 461 144 528 Q192 609 256 651 Q320 693 397 693 Z M323 384 Q271 384 219 352.5 Q167 321 104 249 Q103 234 102.5 228.5 Q102 223 102 218 Q102 130 139 76.5 Q176 23 241 23 Q322 23 388.5 95 Q455 167 455 252 Q455 311 418.5 347.5 Q382 384 323 384 Z " />
<glyph glyph-name="seven" unicode="7" horiz-adv-x="560" d="M279 237 Q248 180 223.5 121 Q199 62 181 0 L129 0 Q151 84 193 170.5 Q235 257 297 347 Q334 402 380.5 460 Q427 518 540 646 L140 646 L148 683 L594 683 L586 646 Q574 631 515.5 563.5 Q457 496 421 451 Q377 395 342.5 342.5 Q308 290 279 237 Z " />
<glyph glyph-name="eight" unicode="8" horiz-adv-x="560" d="M58 190 Q72 249 116 291.5 Q160 334 239 363 L239 365 Q192 387 169 431.5 Q146 476 159 528 Q176 598 245 645.5 Q314 693 397 693 Q485 693 535 640 Q585 587 568 513 Q557 464 517 425.5 Q477 387 415 363 Q415 363 414.5 362.5 Q414 362 414 361 Q474 335 500.5 286.5 Q527 238 513 176 Q494 92 418 40 Q342 -12 247 -12 Q149 -12 93 46 Q37 104 58 190 Z M250 23 Q325 23 389 67.5 Q453 112 469 180 Q486 248 443 295.5 Q400 343 323 343 Q246 343 182.5 298.5 Q119 254 103 184 Q87 114 131 68.5 Q175 23 250 23 Z M332 381 Q399 381 454 420 Q509 459 523 517 Q537 575 499.5 616.5 Q462 658 394 658 Q328 658 272 618.5 Q216 579 203 521 Q189 462 226.5 421.5 Q264 381 332 381 Z " />
<glyph glyph-name="nine" unicode="9" horiz-adv-x="560" d="M199 -12 Q123 -12 74.5 29.5 Q26 71 16 146 L59 154 Q70 91 107.5 57 Q145 23 204 23 Q261 23 311 56 Q361 89 402 153 Q433 203 455.5 266 Q478 329 486 385 Q433 326 376.5 296 Q320 266 261 266 Q184 266 140 309 Q96 352 96 429 Q96 530 177.5 611.5 Q259 693 359 693 Q443 693 488.5 631 Q534 569 534 459 Q534 391 511.5 306 Q489 221 451 155 Q405 73 341 30.5 Q277 -12 199 -12 Z M271 301 Q325 301 377 331.5 Q429 362 491 432 Q492 437 492 442.5 Q492 448 492 460 Q492 551 456 604.5 Q420 658 354 658 Q274 658 207.5 586 Q141 514 141 430 Q141 371 176.5 336 Q212 301 271 301 Z " />
<glyph glyph-name="colon" unicode="&#x3a;" horiz-adv-x="214" d="M102 83 L84 0 L14 0 L32 83 L102 83 Z M198 496 L179 413 L109 413 L128 496 L198 496 Z " />
<glyph glyph-name="semicolon" unicode="&#x3b;" horiz-adv-x="214" d="M86 9 L14 -126 L-18 -126 L45 0 L14 0 L32 83 L102 83 L86 9 Z M198 496 L179 413 L109 413 L128 496 L198 496 Z " />
<glyph glyph-name="less" unicode="&#x3c;" horiz-adv-x="560" d="M459 87 L448 47 L67 267 L77 309 L561 534 L551 487 L112 285 L459 87 Z " />
<glyph glyph-name="equal" unicode="&#x3d;" horiz-adv-x="560" d="M529 397 L520 359 L88 359 L97 397 L529 397 Z M488 217 L479 179 L47 179 L56 217 L488 217 Z " />
<glyph glyph-name="greater" unicode="&#x3e;" horiz-adv-x="560" d="M509 309 L499 267 L16 47 L28 93 L465 291 L119 493 L129 534 L509 309 Z " />
<glyph glyph-name="question" unicode="&#x3f;" horiz-adv-x="454" d="M358 363 Q290 301 264 262.5 Q238 224 228 181 L187 181 Q198 232 226 276.5 Q254 321 327 389 Q397 454 418 492.5 Q439 531 439 574 Q439 618 410 644.5 Q381 671 334 671 Q277 671 224 631 Q171 591 129 518 L93 538 Q145 622 206 664 Q267 706 338 706 Q404 706 443.5 670.5 Q483 635 483 575 Q483 522 459.5 477.5 Q436 433 358 363 Z M220 83 L201 0 L131 0 L150 83 L220 83 Z " />
<glyph glyph-name="at" unicode="&#x40;" horiz-adv-x="779" d="M336 -73 Q374 -73 415 -63.5 Q456 -54 498 -36 L505 -64 Q459 -84 416.5 -94 Q374 -104 332 -104 Q185 -104 110.5 -1 Q36 102 72 256 Q107 410 230.5 513 Q354 616 499 616 Q643 616 718.5 512.5 Q794 409 760 260 Q739 167 687.5 110 Q636 53 570 53 Q537 53 522 69.5 Q507 86 507 123 Q507 123 506.5 123 Q506 123 505 123 Q478 86 443 67 Q408 48 367 48 Q290 48 257 103.5 Q224 159 248 261 Q271 358 326 411 Q381 464 456 464 Q497 464 523 447 Q549 430 561 395 Q562 395 562.5 395 Q563 395 563 395 L577 456 L618 456 L554 181 Q542 131 549 108 Q556 85 584 85 Q629 85 667 136 Q705 187 722 265 Q752 404 687 494.5 Q622 585 495 585 Q364 585 254.5 488 Q145 391 113 251 Q81 112 144.5 19.5 Q208 -73 336 -73 Z M290 257 Q270 171 292.5 126.5 Q315 82 376 82 Q431 82 469.5 122 Q508 162 527 241 Q533 264 536 286 Q539 308 540 328 Q541 378 519.5 404 Q498 430 454 430 Q395 430 352.5 385.5 Q310 341 290 257 Z " />
<glyph glyph-name="A" unicode="A" horiz-adv-x="597" d="M429 693 L537 0 L492 0 L457 228 L134 228 L-5 0 L-56 0 L371 693 L429 693 Z M156 265 L451 265 L393 650 L391 650 L156 265 Z " />
<glyph glyph-name="B" unicode="B" horiz-adv-x="579" d="M532 222 Q532 122 452 61 Q372 0 249 0 L24 0 L183 693 L395 693 Q480 693 525 653.5 Q570 614 570 542 Q570 474 529.5 427.5 Q489 381 418 363 L418 362 Q475 348 503.5 313 Q532 278 532 222 Z M221 656 L158 383 L318 383 Q416 383 470 423 Q524 463 524 538 Q524 597 490 626.5 Q456 656 389 656 L221 656 Z M149 347 L78 37 L256 37 Q354 37 420 87 Q486 137 486 218 Q486 282 443 314.5 Q400 347 316 347 L149 347 Z " />
<glyph glyph-name="C" unicode="C" horiz-adv-x="625" d="M296 26 Q371 26 435.5 74.5 Q500 123 549 216 L596 207 Q538 98 462 43 Q386 -12 293 -12 Q163 -12 110 88.5 Q57 189 96 354 Q133 515 228 610.5 Q323 706 449 706 Q540 706 593.5 654 Q647 602 660 500 L613 492 Q602 581 560.5 624.5 Q519 668 446 668 Q339 668 256.5 579.5 Q174 491 142 348 Q109 204 150 115 Q191 26 296 26 Z " />
<glyph glyph-name="D" unicode="D" horiz-adv-x="637" d="M605 335 Q570 181 467.5 90.5 Q365 0 221 0 L24 0 L183 693 L369 693 Q513 693 577 593.5 Q641 494 605 335 Z M221 656 L78 37 L224 37 Q347 37 436.5 119 Q526 201 558 341 Q591 484 537.5 570 Q484 656 363 656 L221 656 Z " />
<glyph glyph-name="E" unicode="E" horiz-adv-x="524" d="M437 37 L429 0 L24 0 L183 693 L578 693 L570 656 L221 656 L158 383 L447 383 L438 346 L149 346 L78 37 L437 37 Z " />
<glyph glyph-name="F" unicode="F" horiz-adv-x="520" d="M474 383 L465 346 L149 346 L70 0 L24 0 L183 693 L595 693 L587 656 L221 656 L158 383 L474 383 Z " />
<glyph glyph-name="G" unicode="G" horiz-adv-x="647" d="M300 26 Q395 26 469 99 Q543 172 582 302 L402 302 L410 339 L640 339 Q600 174 509.5 81 Q419 -12 295 -12 Q165 -12 111.5 90 Q58 192 97 354 Q134 514 230 610 Q326 706 454 706 Q548 706 600.5 653 Q653 600 660 500 L612 493 Q604 580 563 624 Q522 668 449 668 Q342 668 259.5 579.5 Q177 491 143 348 Q110 205 151.5 115.5 Q193 26 300 26 Z " />
<glyph glyph-name="H" unicode="H" horiz-adv-x="624" d="M643 693 L484 0 L438 0 L517 346 L149 346 L70 0 L24 0 L183 693 L229 693 L158 383 L526 383 L597 693 L643 693 Z " />
<glyph glyph-name="I" unicode="I" horiz-adv-x="226" d="M237 693 L78 0 L32 0 L191 693 L237 693 Z " />
<glyph glyph-name="J" unicode="J" horiz-adv-x="480" d="M176 26 Q246 26 291 69.5 Q336 113 356 199 L469 693 L515 693 L400 193 Q377 92 320 40 Q263 -12 176 -12 Q85 -12 45 41.5 Q5 95 26 191 L34 227 L81 235 L73 197 Q55 112 81 69 Q107 26 176 26 Z " />
<glyph glyph-name="K" unicode="K" horiz-adv-x="568" d="M356 430 L513 0 L464 0 L320 397 L121 221 L70 0 L24 0 L183 693 L229 693 L136 287 L138 287 L594 693 L652 693 L356 430 Z " />
<glyph glyph-name="L" unicode="L" horiz-adv-x="467" d="M403 37 L395 0 L24 0 L183 693 L229 693 L78 37 L403 37 Z " />
<glyph glyph-name="M" unicode="M" horiz-adv-x="734" d="M753 693 L594 0 L551 0 L700 650 L697 650 L376 200 L332 200 L218 650 L216 650 L67 0 L24 0 L183 693 L251 693 L361 249 L363 249 L678 693 L753 693 Z " />
<glyph glyph-name="N" unicode="N" horiz-adv-x="632" d="M654 693 L495 0 L439 0 L216 639 L214 639 L66 0 L24 0 L183 693 L242 693 L463 65 L467 65 L612 693 L654 693 Z " />
<glyph glyph-name="O" unicode="O" horiz-adv-x="657" d="M142 348 Q109 205 150 115.5 Q191 26 297 26 Q404 26 486.5 115 Q569 204 602 348 Q635 491 594 579.5 Q553 668 446 668 Q339 668 257 579.5 Q175 491 142 348 Z M450 706 Q580 706 633 605 Q686 504 649 342 Q612 182 516 85 Q420 -12 293 -12 Q164 -12 111 89 Q58 190 96 354 Q132 514 227.5 610 Q323 706 450 706 Z " />
<glyph glyph-name="P" unicode="P" horiz-adv-x="569" d="M135 285 L70 0 L24 0 L183 693 L380 693 Q487 693 540 649.5 Q593 606 593 519 Q593 409 516 347 Q439 285 299 285 L135 285 Z M221 656 L144 322 L295 322 Q416 322 480.5 373.5 Q545 425 545 517 Q545 588 501.5 622 Q458 656 369 656 L221 656 Z " />
<glyph glyph-name="Q" unicode="Q" horiz-adv-x="657" d="M431 21 Q438 -26 466.5 -45.5 Q495 -65 568 -65 L557 -109 Q465 -109 432.5 -83 Q400 -57 391 5 Q368 -3 343.5 -7.5 Q319 -12 293 -12 Q164 -12 111 89 Q58 190 96 354 Q132 514 227.5 610 Q323 706 450 706 Q580 706 633 605 Q686 504 649 342 Q623 230 566 146 Q509 62 431 21 Z M142 348 Q109 205 150 115.5 Q191 26 297 26 Q404 26 486.5 115 Q569 204 602 348 Q635 491 594 579.5 Q553 668 446 668 Q339 668 257 579.5 Q175 491 142 348 Z " />
<glyph glyph-name="R" unicode="R" horiz-adv-x="581" d="M355 315 L504 0 L452 0 L309 310 L141 310 L70 0 L24 0 L183 693 L396 693 Q488 693 537 650 Q586 607 586 529 Q586 440 519.5 381 Q453 322 355 315 Z M221 656 L149 346 L318 346 Q416 346 478.5 396.5 Q541 447 541 529 Q541 590 501.5 623 Q462 656 387 656 L221 656 Z " />
<glyph glyph-name="S" unicode="S" horiz-adv-x="557" d="M362 706 Q450 706 504.5 661 Q559 616 571 539 L525 531 Q516 593 470.5 630.5 Q425 668 357 668 Q279 668 225.5 626 Q172 584 172 519 Q172 488 185 464.5 Q198 441 226 422 Q241 412 262.5 402 Q284 392 332 375 Q389 354 415 341 Q441 328 460 314 Q490 290 504.5 259.5 Q519 229 519 189 Q519 99 451.5 43.5 Q384 -12 273 -12 Q174 -12 111 35.5 Q48 83 29 170 L77 183 Q93 108 145 67 Q197 26 277 26 Q363 26 417 69.5 Q471 113 471 182 Q471 215 457.5 240 Q444 265 416 285 Q399 297 376.5 307.5 Q354 318 304 337 Q249 357 224 369 Q199 381 181 395 Q151 417 137 446 Q123 475 123 512 Q123 597 191 651.5 Q259 706 362 706 Z " />
<glyph glyph-name="T" unicode="T" horiz-adv-x="520" d="M376 656 L225 0 L179 0 L330 656 L113 656 L121 693 L601 693 L593 656 L376 656 Z " />
<glyph glyph-name="U" unicode="U" horiz-adv-x="632" d="M284 26 Q369 26 432.5 78.5 Q496 131 516 217 L625 693 L671 693 L560 212 Q536 109 460.5 48.5 Q385 -12 282 -12 Q174 -12 120 51.5 Q66 115 89 217 L198 693 L244 693 L134 211 Q115 129 157 77.5 Q199 26 284 26 Z " />
<glyph glyph-name="V" unicode="V" horiz-adv-x="579" d="M678 693 L259 0 L202 0 L103 693 L148 693 L238 43 L240 43 L627 693 L678 693 Z " />
<glyph glyph-name="W" unicode="W" horiz-adv-x="806" d="M904 693 L569 0 L506 0 L492 623 L488 623 L193 0 L133 0 L110 693 L154 693 L170 42 L172 42 L481 693 L529 693 L543 42 L545 42 L854 693 L904 693 Z " />
<glyph glyph-name="X" unicode="X" horiz-adv-x="581" d="M338 355 L522 0 L471 0 L304 323 L-1 0 L-57 0 L284 357 L111 693 L161 693 L318 389 L603 693 L660 693 L338 355 Z " />
<glyph glyph-name="Y" unicode="Y" horiz-adv-x="546" d="M306 295 L238 0 L192 0 L260 295 L117 693 L166 693 L291 340 L576 693 L631 693 L306 295 Z " />
<glyph glyph-name="Z" unicode="Z" horiz-adv-x="510" d="M435 37 L427 0 L-31 0 L-21 45 L513 656 L130 656 L138 693 L578 693 L569 656 L29 37 L435 37 Z " />
<glyph glyph-name="bracketleft" unicode="&#x5b;" horiz-adv-x="303" d="M190 -149 L182 -182 L-2 -182 L200 693 L384 693 L377 660 L235 660 L48 -149 L190 -149 Z " />
<glyph glyph-name="backslash" unicode="&#x5c;" horiz-adv-x="423" d="M145 706 L361 -13 L321 -13 L104 706 L145 706 Z " />
<glyph glyph-name="bracketright" unicode="&#x5d;" horiz-adv-x="303" d="M305 693 L103 -182 L-80 -182 L-72 -149 L69 -149 L256 660 L114 660 L121 693 L305 693 Z " />
<glyph glyph-name="asciicircum" unicode="&#x5e;" horiz-adv-x="219" d="M236 693 L268 478 L231 478 L203 660 L91 478 L54 478 L184 693 L236 693 Z " />
<glyph glyph-name="underscore" unicode="&#x5f;" horiz-adv-x="382" d="M306 -73 L298 -110 L-83 -110 L-75 -73 L306 -73 Z " />
<glyph glyph-name="grave" unicode="&#x60;" horiz-adv-x="208" d="M150 693 L202 575 L164 575 L99 693 L150 693 Z " />
<glyph glyph-name="a" unicode="a" horiz-adv-x="499" d="M456 352 L375 0 L332 0 L351 82 L349 82 Q307 32 260.5 10 Q214 -12 156 -12 Q80 -12 47.5 26 Q15 64 30 135 Q39 178 60.5 205 Q82 232 121 247 Q142 255 173 261.5 Q204 268 270 277 Q361 289 383 301.5 Q405 314 414 347 L415 351 Q430 414 405.5 444 Q381 474 315 474 Q257 474 217 449.5 Q177 425 144 368 L103 375 Q146 447 197 477.5 Q248 508 318 508 Q402 508 437.5 467 Q473 426 456 352 Z M165 21 Q244 21 301.5 68 Q359 115 377 193 L398 283 Q384 270 362 262.5 Q340 255 267 244 Q262 243 232 239 Q202 235 185 232 Q160 227 142.5 219.5 Q125 212 112 202 Q97 190 87 172.5 Q77 155 72 132 Q60 78 84 49.5 Q108 21 165 21 Z " />
<glyph glyph-name="b" unicode="b" horiz-adv-x="541" d="M83 111 L45 0 L18 0 L177 693 L219 693 L151 394 L152 394 Q191 452 238 480 Q285 508 343 508 Q438 508 477 434.5 Q516 361 488 243 Q460 125 391 56.5 Q322 -12 229 -12 Q167 -12 131 19 Q95 50 85 111 L83 111 Z M117 248 Q93 146 122.5 85.5 Q152 25 229 25 Q306 25 364 86 Q422 147 445 248 Q468 349 439 410 Q410 471 333 471 Q256 471 198.5 410.5 Q141 350 117 248 Z " />
<glyph glyph-name="c" unicode="c" horiz-adv-x="503" d="M226 22 Q278 22 323.5 54 Q369 86 403 147 L443 138 Q400 62 345.5 25 Q291 -12 222 -12 Q123 -12 81.5 61 Q40 134 68 254 Q94 369 165 438.5 Q236 508 330 508 Q397 508 436.5 472.5 Q476 437 486 369 L446 360 Q434 417 404 445.5 Q374 474 326 474 Q250 474 191.5 412 Q133 350 109 248 Q86 146 117.5 84 Q149 22 226 22 Z " />
<glyph glyph-name="d" unicode="d" horiz-adv-x="541" d="M582 693 L423 0 L382 0 L405 102 L404 102 Q371 45 323.5 16.5 Q276 -12 215 -12 Q117 -12 78 59.5 Q39 131 67 253 Q94 371 163.5 439.5 Q233 508 328 508 Q387 508 422.5 479 Q458 450 470 393 L472 393 L540 693 L582 693 Z M109 248 Q85 142 114 82 Q143 22 223 22 Q302 22 358 82 Q414 142 439 248 Q463 353 434 413 Q405 473 326 473 Q247 473 190 413.5 Q133 354 109 248 Z " />
<glyph glyph-name="e" unicode="e" horiz-adv-x="507" d="M224 22 Q278 22 323.5 53.5 Q369 85 404 147 L445 135 Q403 64 345.5 26 Q288 -12 220 -12 Q123 -12 81.5 61.5 Q40 135 68 255 Q94 368 165 438 Q236 508 329 508 Q405 508 445.5 458.5 Q486 409 481 322 Q481 303 479 284.5 Q477 266 473 249 L109 249 Q86 146 116.5 84 Q147 22 224 22 Z M325 474 Q254 474 199 422 Q144 370 117 280 L437 280 Q452 372 423 423 Q394 474 325 474 Z " />
<glyph glyph-name="f" unicode="f" horiz-adv-x="303" d="M200 461 L94 0 L52 0 L158 461 L68 461 L76 496 L166 496 L182 569 Q198 642 236 674 Q274 706 344 706 Q367 706 386 703.5 Q405 701 420 696 L411 660 Q394 665 376.5 668 Q359 671 342 671 Q292 671 264.5 647.5 Q237 624 225 570 L208 496 L361 496 L353 461 L200 461 Z " />
<glyph glyph-name="g" unicode="g" horiz-adv-x="478" d="M78 139 Q78 125 92.5 114.5 Q107 104 132 101 L279 84 Q340 77 371.5 50.5 Q403 24 403 -19 Q403 -99 329 -145 Q255 -191 147 -191 Q62 -191 9 -158.5 Q-44 -126 -44 -71 Q-44 -25 -11.5 12.5 Q21 50 81 73 Q81 74 81 74.5 Q81 75 81 75 Q61 83 51 99 Q41 115 41 139 Q41 168 60.5 190.5 Q80 213 118 227 Q104 243 96.5 263 Q89 283 89 307 Q89 392 152 450 Q215 508 301 508 Q332 508 357.5 499 Q383 490 402 471 Q438 520 468.5 538 Q499 556 554 556 L545 516 Q499 516 474.5 503.5 Q450 491 420 451 Q429 436 434 417 Q439 398 439 377 Q439 295 377.5 239.5 Q316 184 230 184 Q202 184 178.5 191 Q155 198 136 211 Q107 199 92.5 181 Q78 163 78 139 Z M360 -24 Q360 5 339 21.5 Q318 38 269 45 L117 64 Q62 45 29.5 10 Q-3 -25 -3 -68 Q-3 -111 37 -135 Q77 -159 148 -159 Q239 -159 299.5 -123 Q360 -87 360 -24 Z M234 217 Q296 217 340.5 254 Q385 291 396 350 Q397 355 397.5 360.5 Q398 366 398 377 Q398 422 371.5 448 Q345 474 297 474 Q230 474 179 426 Q128 378 128 315 Q128 268 155.5 242.5 Q183 217 234 217 Z " />
<glyph glyph-name="h" unicode="h" horiz-adv-x="510" d="M459 370 L374 0 L332 0 L417 368 Q429 418 415.5 445.5 Q402 473 367 473 Q343 473 312 459 Q281 445 237 414 L139 344 L60 0 L18 0 L177 693 L219 693 L149 390 L219 440 Q276 480 309.5 494 Q343 508 375 508 Q430 508 452 472 Q474 436 459 370 Z " />
<glyph glyph-name="i" unicode="i" horiz-adv-x="206" d="M227 693 L206 599 L160 599 L181 693 L227 693 Z M180 496 L66 0 L24 0 L138 496 L180 496 Z " />
<glyph glyph-name="j" unicode="j" horiz-adv-x="202" d="M-114 -188 L-123 -188 L-115 -154 Q-55 -154 -29 -129 Q-3 -104 14 -34 L136 496 L178 496 L51 -54 Q34 -128 -1 -158 Q-36 -188 -114 -188 Z M225 693 L204 599 L158 599 L179 693 L225 693 Z " />
<glyph glyph-name="k" unicode="k" horiz-adv-x="465" d="M269 313 L404 0 L356 0 L237 284 L99 170 L60 0 L18 0 L177 693 L219 693 L112 227 L114 227 L433 496 L490 496 L269 313 Z " />
<glyph glyph-name="l" unicode="l" horiz-adv-x="206" d="M225 693 L66 0 L24 0 L183 693 L225 693 Z " />
<glyph glyph-name="m" unicode="m" horiz-adv-x="810" d="M759 370 L674 0 L632 0 L717 368 Q729 420 718 446.5 Q707 473 673 473 Q649 473 618 459 Q587 445 541 412 L446 344 L367 0 L325 0 L410 368 Q422 420 410.5 446.5 Q399 473 365 473 Q340 473 308.5 458.5 Q277 444 234 413 L139 344 L60 0 L18 0 L132 496 L173 496 L147 388 L218 440 Q270 478 305 493 Q340 508 373 508 Q422 508 443.5 477 Q465 446 456 388 L525 440 Q574 476 611 492 Q648 508 682 508 Q735 508 754.5 472 Q774 436 759 370 Z " />
<glyph glyph-name="n" unicode="n" horiz-adv-x="508" d="M459 370 L374 0 L332 0 L417 368 Q429 419 415.5 446 Q402 473 366 473 Q341 473 311 459.5 Q281 446 237 414 L139 344 L60 0 L18 0 L132 496 L173 496 L149 390 L219 440 Q278 481 310.5 494.5 Q343 508 374 508 Q429 508 451.5 472 Q474 436 459 370 Z " />
<glyph glyph-name="o" unicode="o" horiz-adv-x="529" d="M336 508 Q437 508 479 435 Q521 362 493 242 Q467 126 394.5 57 Q322 -12 223 -12 Q122 -12 81 61 Q40 134 68 253 Q95 370 166.5 439 Q238 508 336 508 Z M109 248 Q85 143 116 82.5 Q147 22 228 22 Q310 22 368.5 82.5 Q427 143 451 248 Q475 353 444 413.5 Q413 474 332 474 Q250 474 191.5 413.5 Q133 353 109 248 Z " />
<glyph glyph-name="p" unicode="p" horiz-adv-x="540" d="M84 108 L17 -182 L-25 -182 L132 496 L174 496 L150 392 L151 392 Q187 449 235 478.5 Q283 508 343 508 Q438 508 476.5 435.5 Q515 363 488 244 Q462 128 392.5 58 Q323 -12 231 -12 Q171 -12 133 19 Q95 50 85 108 L84 108 Z M117 248 Q94 146 123 84.5 Q152 23 228 23 Q305 23 363.5 84.5 Q422 146 445 248 Q468 349 439 411 Q410 473 333 473 Q256 473 198 411.5 Q140 350 117 248 Z " />
<glyph glyph-name="q" unicode="q" horiz-adv-x="546" d="M543 496 L385 -182 L343 -182 L408 95 L405 95 Q371 41 324.5 14.5 Q278 -12 219 -12 Q121 -12 83 60 Q45 132 73 254 Q99 371 168.5 439.5 Q238 508 332 508 Q392 508 428 479 Q464 450 477 391 L479 391 L512 496 L543 496 Z M115 248 Q91 143 120 82.5 Q149 22 228 22 Q308 22 364.5 82.5 Q421 143 444 248 Q467 352 437.5 412.5 Q408 473 330 473 Q252 473 195 412 Q138 351 115 248 Z " />
<glyph glyph-name="r" unicode="r" horiz-adv-x="346" d="M139 344 L60 0 L18 0 L132 496 L173 496 L146 383 L249 457 Q285 483 314.5 495 Q344 507 371 507 Q375 507 378.5 507 Q382 507 385 507 L375 462 Q373 462 371.5 462 Q370 462 368 462 Q333 462 300.5 449 Q268 436 225 405 L139 344 Z " />
<glyph glyph-name="s" unicode="s" horiz-adv-x="464" d="M263 508 Q335 508 380.5 477.5 Q426 447 440 390 L398 379 Q385 425 349 449.5 Q313 474 259 474 Q197 474 157 446 Q117 418 117 373 Q117 340 141.5 318.5 Q166 297 247 275 Q293 263 315 254.5 Q337 246 352 236 Q379 219 391.5 195.5 Q404 172 404 141 Q404 72 348 30 Q292 -12 201 -12 Q118 -12 67 25 Q16 62 5 131 L48 139 Q60 82 100 52 Q140 22 205 22 Q273 22 316.5 54 Q360 86 360 137 Q360 173 334.5 196 Q309 219 226 242 Q181 254 160.5 262 Q140 270 125 279 Q99 295 87 317 Q75 339 75 368 Q75 430 127.5 469 Q180 508 263 508 Z " />
<glyph glyph-name="t" unicode="t" horiz-adv-x="333" d="M199 25 Q214 25 230 27 Q246 29 259 33 L251 -3 Q238 -6 223 -7.5 Q208 -9 193 -9 Q120 -9 94 26.5 Q68 62 86 139 L160 461 L68 461 L76 496 L168 496 L200 637 L242 637 L210 496 L367 496 L359 461 L202 461 L125 127 Q113 75 131 50 Q149 25 199 25 Z " />
<glyph glyph-name="u" unicode="u" horiz-adv-x="508" d="M497 496 L382 0 L341 0 L367 111 Q311 59 247 23.5 Q183 -12 141 -12 Q85 -12 63 24 Q41 60 56 126 L141 496 L183 496 L98 128 Q89 90 94.5 65.5 Q100 41 119 31 Q126 27 136 25.5 Q146 24 160 25 Q184 28 213 42.5 Q242 57 290 91 L376 151 L455 496 L497 496 Z " />
<glyph glyph-name="v" unicode="v" horiz-adv-x="423" d="M479 496 L178 0 L133 0 L60 496 L104 496 L164 51 L166 51 L430 496 L479 496 Z " />
<glyph glyph-name="w" unicode="w" horiz-adv-x="710" d="M743 496 L476 0 L426 0 L400 445 L398 445 L169 0 L120 0 L82 496 L126 496 L155 56 L157 56 L384 496 L435 496 L461 56 L463 56 L693 496 L743 496 Z " />
<glyph glyph-name="x" unicode="x" horiz-adv-x="424" d="M234 249 L362 0 L315 0 L205 220 L-3 0 L-54 0 L187 252 L64 496 L108 496 L217 282 L419 496 L471 496 L234 249 Z " />
<glyph glyph-name="y" unicode="y" horiz-adv-x="441" d="M-72 -191 L-99 -191 L-90 -154 L-64 -154 Q-12 -154 23 -131 Q58 -108 119 -15 Q133 7 137.5 23.5 Q142 40 139 56 L67 496 L110 496 L176 74 L178 74 L442 496 L490 496 L159 -22 Q88 -132 45 -161.5 Q2 -191 -72 -191 Z " />
<glyph glyph-name="z" unicode="z" horiz-adv-x="396" d="M325 34 L318 0 L-35 0 L-27 38 L369 461 L83 461 L91 496 L427 496 L418 460 L21 34 L325 34 Z " />
<glyph glyph-name="braceleft" unicode="&#x7b;" horiz-adv-x="303" d="M184 -149 L176 -182 L158 -182 Q86 -182 66.5 -149.5 Q47 -117 66 -34 L104 131 Q117 189 102 218.5 Q87 248 45 248 L32 248 L41 286 L54 286 Q97 286 125 315 Q153 344 166 401 L199 545 Q219 631 252 662 Q285 693 360 693 L378 693 L371 660 L356 660 Q307 660 281.5 635 Q256 610 241 545 L204 382 Q194 340 167 308.5 Q140 277 104 269 L103 267 Q135 260 147.5 226.5 Q160 193 150 149 L108 -34 Q92 -99 105.5 -124 Q119 -149 169 -149 L184 -149 Z " />
<glyph glyph-name="bar" unicode="&#x7c;" horiz-adv-x="239" d="M244 706 L39 -183 L-2 -183 L203 706 L244 706 Z " />
<glyph glyph-name="braceright" unicode="&#x7d;" horiz-adv-x="303" d="M-56 -182 L-74 -182 L-66 -149 L-52 -149 Q-2 -149 23.5 -123 Q49 -97 63 -34 L105 149 Q115 194 143 227.5 Q171 261 206 268 L207 270 Q175 278 162 309.5 Q149 341 159 382 L196 545 Q211 610 197.5 635 Q184 660 135 660 L120 660 L127 693 L145 693 Q218 693 237.5 660.5 Q257 628 238 545 L205 401 Q192 343 206.5 314.5 Q221 286 264 286 L276 286 L267 248 L255 248 Q212 248 184 218.5 Q156 189 143 131 L105 -34 Q85 -119 51.5 -150.5 Q18 -182 -56 -182 Z " />
<glyph glyph-name="asciitilde" unicode="&#x7e;" horiz-adv-x="560" d="M393 271 Q421 271 445 289.5 Q469 308 479 336 L515 336 Q498 289 463.5 261 Q429 233 387 233 Q365 233 340 242 Q315 251 270 278 Q235 299 219 305.5 Q203 312 190 312 Q166 312 140 292 Q114 272 100 242 L61 242 Q77 286 115.5 316.5 Q154 347 196 347 Q216 347 238.5 339 Q261 331 303 306 Q341 284 359.5 277.5 Q378 271 393 271 Z " />
<glyph glyph-name="exclamdown" unicode="&#xa1;" horiz-adv-x="227" d="M-18 -197 L113 315 L141 315 L36 -197 L-18 -197 Z M116 413 L134 496 L204 496 L185 413 L116 413 Z " />
<glyph glyph-name="cent" unicode="&#xa2;" horiz-adv-x="560" d="M271 120 Q323 120 368.5 152 Q414 184 448 245 L488 236 Q444 159 389.5 122.5 Q335 86 267 86 Q256 86 246 86.5 Q236 87 227 89 L191 0 L153 0 L193 99 Q133 124 111 191 Q89 258 110 352 Q136 466 208.5 536 Q281 606 375 606 Q379 606 387 605.5 Q395 605 398 605 L433 693 L472 693 L433 597 Q474 584 498.5 551 Q523 518 531 467 L491 458 Q482 499 464 525 Q446 551 418 562 L241 122 Q251 121 258 120.5 Q265 120 271 120 Z M151 346 Q134 270 149 214 Q164 158 208 135 L383 570 Q374 570 365.5 569 Q357 568 350 566 Q280 559 226.5 499 Q173 439 151 346 Z " />
<glyph glyph-name="sterling" unicode="&#xa3;" horiz-adv-x="560" d="M463 36 L455 0 L-8 0 L0 36 L5 36 Q53 36 93 79 Q133 122 165 209 L215 347 L82 347 L91 382 L229 382 L286 537 Q315 616 359.5 654.5 Q404 693 467 693 Q523 693 555.5 663.5 Q588 634 599 575 L560 560 Q552 610 528.5 634 Q505 658 464 658 Q417 658 385 628.5 Q353 599 328 531 L272 382 L483 382 L474 347 L259 347 L207 207 Q183 142 157 104.5 Q131 67 85 36 L463 36 Z " />
<glyph glyph-name="currency" unicode="&#xa4;" horiz-adv-x="560" d="M445 229 L487 182 L458 155 L416 202 Q391 184 362.5 175 Q334 166 303 166 Q266 166 232 179 Q198 192 172 217 L125 176 L98 205 L144 246 Q126 270 117 299.5 Q108 329 108 361 Q108 398 121 432 Q134 466 159 492 L118 538 L148 565 L189 520 Q215 538 244 547 Q273 556 303 556 Q339 556 373 542 Q407 528 435 503 L481 544 L508 515 L462 474 Q480 448 489 419.5 Q498 391 498 361 Q498 323 484.5 289 Q471 255 445 229 Z M148 361 Q148 297 193.5 252 Q239 207 303 207 Q367 207 411.5 252 Q456 297 456 361 Q456 425 411.5 470 Q367 515 303 515 Q239 515 193.5 470 Q148 425 148 361 Z " />
<glyph glyph-name="yen" unicode="&#xa5;" horiz-adv-x="560" d="M480 183 L471 145 L279 145 L246 0 L201 0 L234 145 L39 145 L48 183 L243 183 L269 295 L74 295 L82 333 L260 333 L137 693 L185 693 L299 347 L571 693 L625 693 L339 333 L514 333 L506 295 L314 295 L288 183 L480 183 Z " />
<glyph glyph-name="brokenbar" unicode="&#xa6;" horiz-adv-x="239" d="M244 706 L166 368 L125 368 L203 706 L244 706 Z M125 190 L39 -182 L-2 -182 L84 190 L125 190 Z " />
<glyph glyph-name="section" unicode="&#xa7;" horiz-adv-x="528" d="M357 32 Q357 66 334 88 Q311 110 247 132 L153 165 Q105 182 81.5 210.5 Q58 239 58 281 Q58 328 89.5 366.5 Q121 405 190 439 Q171 454 161.5 475 Q152 496 152 524 Q152 596 211 644.5 Q270 693 353 693 Q418 693 462.5 661.5 Q507 630 512 578 L470 560 Q465 603 431 630.5 Q397 658 346 658 Q284 658 239.5 622 Q195 586 195 533 Q195 501 212.5 480.5 Q230 460 268 448 L375 414 Q436 395 464.5 364.5 Q493 334 493 289 Q493 243 462.5 204.5 Q432 166 361 126 Q382 108 392 86.5 Q402 65 402 38 Q402 -36 339.5 -85 Q277 -134 195 -134 Q130 -134 81.5 -99 Q33 -64 24 -8 L66 10 Q75 -37 113.5 -68 Q152 -99 203 -99 Q264 -99 310.5 -60 Q357 -21 357 32 Z M101 287 Q101 254 121.5 232 Q142 210 186 196 L271 166 Q276 164 281.5 162 Q287 160 297 156 Q310 151 316.5 148.5 Q323 146 329 144 Q384 171 416.5 208 Q449 245 449 284 Q449 318 424.5 341.5 Q400 365 346 382 Q342 383 292.5 397 Q243 411 222 421 Q165 399 133 364 Q101 329 101 287 Z " />
<glyph glyph-name="dieresis" unicode="&#xa8;" horiz-adv-x="208" d="M180 693 L159 599 L114 599 L135 693 L180 693 Z M294 693 L273 599 L228 599 L249 693 L294 693 Z " />
<glyph glyph-name="copyright" unicode="&#xa9;" horiz-adv-x="803" d="M425 167 Q466 167 494.5 194 Q523 221 540 276 L580 272 Q560 205 520.5 170 Q481 135 425 135 Q348 135 304 193 Q260 251 260 348 Q260 444 304 501 Q348 558 425 558 Q480 558 518.5 526 Q557 494 577 431 L537 424 Q520 475 492.5 500.5 Q465 526 425 526 Q366 526 332.5 477 Q299 428 299 348 Q299 267 332.5 217 Q366 167 425 167 Z M783 346 Q783 194 678.5 90 Q574 -14 423 -14 Q272 -14 168 89.5 Q64 193 64 345 Q64 496 168.5 600.5 Q273 705 423 705 Q574 705 678.5 601 Q783 497 783 346 Z M103 345 Q103 208 196 112 Q289 16 423 16 Q557 16 650.5 112 Q744 208 744 345 Q744 481 650.5 578 Q557 675 423 675 Q289 675 196 578.5 Q103 482 103 345 Z " />
<glyph glyph-name="ordfeminine" unicode="&#xaa;" horiz-adv-x="364" d="M388 587 L337 365 L301 365 L310 408 Q285 383 252.5 370 Q220 357 183 357 Q129 357 104 383 Q79 409 89 456 Q95 484 110.5 502 Q126 520 154 530 Q169 536 189.5 539.5 Q210 543 257 548 Q316 554 331.5 562 Q347 570 353 591 Q362 624 343.5 643 Q325 662 284 662 Q246 662 216 645.5 Q186 629 169 599 L135 606 Q163 651 200.5 672 Q238 693 288 693 Q347 693 373 664.5 Q399 636 388 587 Z M193 387 Q243 387 280.5 414 Q318 441 328 485 L340 538 Q327 532 312.5 528.5 Q298 525 247 519 Q177 511 154.5 496 Q132 481 125 452 Q118 421 136 404 Q154 387 193 387 Z M321 285 L313 251 L45 251 L53 285 L321 285 Z " />
<glyph glyph-name="guillemotleft" unicode="&#xab;" horiz-adv-x="446" d="M94 285 L181 94 L138 94 L42 289 L220 481 L271 481 L94 285 Z M284 285 L371 94 L328 94 L232 289 L410 481 L461 481 L284 285 Z " />
<glyph glyph-name="logicalnot" unicode="&#xac;" horiz-adv-x="560" d="M509 307 L449 52 L411 52 L461 269 L67 269 L77 307 L509 307 Z " />
<glyph glyph-name="registered" unicode="&#xae;" horiz-adv-x="803" d="M467 323 L595 143 L550 143 L425 320 L337 320 L337 143 L299 143 L299 549 L440 549 Q502 549 535.5 520.5 Q569 492 569 441 Q569 395 541 363 Q513 331 467 323 Z M337 517 L337 352 L429 352 Q477 352 504 375 Q531 398 531 440 Q531 478 505.5 497.5 Q480 517 431 517 L337 517 Z M783 346 Q783 194 678.5 90 Q574 -14 423 -14 Q272 -14 168 89.5 Q64 193 64 345 Q64 496 168.5 600.5 Q273 705 423 705 Q574 705 678.5 601 Q783 497 783 346 Z M103 345 Q103 208 196 112 Q289 16 423 16 Q557 16 650.5 112 Q744 208 744 345 Q744 481 650.5 578 Q557 675 423 675 Q289 675 196 578.5 Q103 482 103 345 Z " />
<glyph glyph-name="overscore" unicode="&#xaf;" horiz-adv-x="208" d="M297 636 L289 602 L80 602 L88 636 L297 636 Z " />
<glyph glyph-name="degree" unicode="&#xb0;" horiz-adv-x="421" d="M277 693 Q341 693 387 648.5 Q433 604 433 542 Q433 480 387 435 Q341 390 277 390 Q214 390 168 434.5 Q122 479 122 542 Q122 604 167.5 648.5 Q213 693 277 693 Z M161 542 Q161 494 195.5 458.5 Q230 423 277 423 Q325 423 359 458.5 Q393 494 393 542 Q393 590 358.5 625 Q324 660 277 660 Q230 660 195.5 625 Q161 590 161 542 Z " />
<glyph glyph-name="plusminus" unicode="&#xb1;" horiz-adv-x="560" d="M509 319 L499 281 L303 281 L252 64 L214 64 L264 281 L67 281 L77 319 L273 319 L323 536 L361 536 L312 319 L509 319 Z M444 38 L434 0 L2 0 L12 38 L444 38 Z " />
<glyph glyph-name="twosuperior" unicode="&#xb2;" horiz-adv-x="353" d="M328 334 L321 303 L43 303 Q58 343 94 378 Q130 413 217 461 Q288 501 315.5 527.5 Q343 554 350 584 Q358 620 337.5 645 Q317 670 275 670 Q230 670 195 640.5 Q160 611 141 560 L108 569 Q131 630 176 665 Q221 700 279 700 Q338 700 369 665.5 Q400 631 389 581 Q382 547 355 518.5 Q328 490 235 436 Q170 398 142.5 376.5 Q115 355 101 334 L328 334 Z " />
<glyph glyph-name="threesuperior" unicode="&#xb3;" horiz-adv-x="353" d="M398 693 L391 663 L241 543 Q300 541 330.5 514.5 Q361 488 361 439 Q361 376 313 336 Q265 296 194 296 Q140 296 104 322.5 Q68 349 58 394 L100 402 Q107 368 133.5 348 Q160 328 199 328 Q250 328 285 359 Q320 390 320 436 Q320 471 296.5 492 Q273 513 235 513 L183 513 L189 540 L339 661 L134 661 L141 693 L398 693 Z " />
<glyph glyph-name="acute" unicode="&#xb4;" horiz-adv-x="208" d="M286 693 L196 575 L155 575 L234 693 L286 693 Z " />
<glyph glyph-name="mu" unicode="&#xb5;" horiz-adv-x="508" d="M488 496 L373 0 L332 0 L357 107 L287 56 Q236 19 201 4 Q166 -11 132 -12 Q108 -12 91 -4.5 Q74 3 63 17 L18 -182 L-24 -182 L132 496 L174 496 L87 118 Q85 110 84 103 Q83 96 83 89 Q83 56 97.5 39 Q112 22 140 22 Q163 22 191.5 35.5 Q220 49 281 91 L367 151 L446 496 L488 496 Z " />
<glyph glyph-name="paragraph" unicode="&#xb6;" horiz-adv-x="601" d="M633 692 L431 -182 L389 -182 L583 655 L377 655 L183 -182 L141 -182 L255 308 Q176 308 133.5 363 Q91 418 109 497 Q127 577 196 634.5 Q265 692 343 692 L633 692 Z " />
<glyph glyph-name="middot" unicode="&#xb7;" horiz-adv-x="214" d="M176 402 L157 319 L87 319 L106 402 L176 402 Z " />
<glyph glyph-name="cedilla" unicode="&#xb8;" horiz-adv-x="208" d="M63 0 L104 0 L29 -52 Q32 -51 35.5 -51 Q39 -51 46 -51 Q84 -51 104 -65 Q124 -79 122 -106 Q120 -146 83 -168.5 Q46 -191 -9 -191 Q-33 -191 -55.5 -185.5 Q-78 -180 -91 -172 L-81 -139 Q-76 -142 -65.5 -145.5 Q-55 -149 -40 -154 Q-29 -157 -18 -158.5 Q-7 -160 3 -160 Q35 -160 57.5 -146.5 Q80 -133 81 -112 Q82 -98 69.5 -90.5 Q57 -83 32 -83 Q17 -83 1 -85.5 Q-15 -88 -29 -93 L-32 -69 L63 0 Z " />
<glyph glyph-name="onesuperior" unicode="&#xb9;" horiz-adv-x="353" d="M338 334 L330 303 L66 303 L74 334 L195 334 L266 641 Q243 618 202.5 592.5 Q162 567 131 556 L126 586 Q164 601 212 634.5 Q260 668 278 693 L316 693 L234 334 L338 334 Z " />
<glyph glyph-name="ordmasculine" unicode="&#xba;" horiz-adv-x="364" d="M281 693 Q347 693 375 645 Q403 597 385 521 Q368 446 320.5 401.5 Q273 357 208 357 Q143 357 114.5 404.5 Q86 452 103 527 Q120 602 168 647.5 Q216 693 281 693 Z M140 524 Q126 462 145.5 425 Q165 388 214 388 Q263 388 299 425 Q335 462 350 524 Q365 587 345.5 624.5 Q326 662 277 662 Q227 662 190.5 624 Q154 586 140 524 Z M326 285 L318 251 L45 251 L53 285 L326 285 Z " />
<glyph glyph-name="guillemotright" unicode="&#xbb;" horiz-adv-x="446" d="M229 289 L51 94 L0 94 L177 292 L90 481 L134 481 L229 289 Z M419 289 L241 94 L190 94 L367 292 L280 481 L324 481 L419 289 Z " />
<glyph glyph-name="onequarter" unicode="&#xbc;" horiz-adv-x="806" d="M338 334 L330 303 L66 303 L74 334 L195 334 L266 641 Q243 618 202.5 592.5 Q162 567 131 556 L126 586 Q164 601 212 634.5 Q260 668 278 693 L316 693 L234 334 L338 334 Z M772 706 L202 -13 L157 -13 L728 706 L772 706 Z M700 94 L678 0 L639 0 L661 94 L443 94 L450 124 L720 390 L768 390 L707 124 L760 124 L753 94 L700 94 Z M493 124 L668 124 L718 346 L493 124 Z " />
<glyph glyph-name="onehalf" unicode="&#xbd;" horiz-adv-x="806" d="M338 334 L330 303 L66 303 L74 334 L195 334 L266 641 Q243 618 202.5 592.5 Q162 567 131 556 L126 586 Q164 601 212 634.5 Q260 668 278 693 L316 693 L234 334 L338 334 Z M752 706 L182 -13 L137 -13 L708 706 L752 706 Z M712 31 L705 0 L427 0 Q442 40 478 75 Q514 110 601 158 Q672 198 699.5 224.5 Q727 251 734 281 Q742 317 721.5 342 Q701 367 659 367 Q614 367 579 337.5 Q544 308 525 257 L492 266 Q515 327 560 362 Q605 397 663 397 Q722 397 753 362.5 Q784 328 773 278 Q766 244 739 215.5 Q712 187 619 133 Q554 95 526.5 73.5 Q499 52 485 31 L712 31 Z " />
<glyph glyph-name="threequarters" unicode="&#xbe;" horiz-adv-x="806" d="M398 693 L391 663 L241 543 Q300 541 330.5 514.5 Q361 488 361 439 Q361 376 313 336 Q265 296 194 296 Q140 296 104 322.5 Q68 349 58 394 L100 402 Q107 368 133.5 348 Q160 328 199 328 Q250 328 285 359 Q320 390 320 436 Q320 471 296.5 492 Q273 513 235 513 L183 513 L189 540 L339 661 L134 661 L141 693 L398 693 Z M762 706 L192 -13 L147 -13 L718 706 L762 706 Z M700 94 L678 0 L639 0 L661 94 L443 94 L450 124 L720 390 L768 390 L707 124 L760 124 L753 94 L700 94 Z M493 124 L668 124 L718 346 L493 124 Z " />
<glyph glyph-name="questiondown" unicode="&#xbf;" horiz-adv-x="454" d="M148 133 Q216 195 242 233.5 Q268 272 278 315 L319 315 Q308 264 280 219.5 Q252 175 179 107 Q109 42 88 3.5 Q67 -35 67 -78 Q67 -122 96 -148.5 Q125 -175 172 -175 Q229 -175 282 -135 Q335 -95 377 -22 L413 -42 Q361 -126 300 -168 Q239 -210 168 -210 Q102 -210 62.5 -174.5 Q23 -139 23 -79 Q23 -26 46.5 18.5 Q70 63 148 133 Z M286 413 L305 496 L375 496 L356 413 L286 413 Z " />
<glyph glyph-name="Agrave" unicode="&#xc0;" horiz-adv-x="597" d="M429 693 L537 0 L492 0 L457 228 L134 228 L-5 0 L-56 0 L371 693 L429 693 Z M156 265 L451 265 L393 650 L391 650 L156 265 Z M386 875 L438 757 L400 757 L335 875 L386 875 Z " />
<glyph glyph-name="Aacute" unicode="&#xc1;" horiz-adv-x="597" d="M429 693 L537 0 L492 0 L457 228 L134 228 L-5 0 L-56 0 L371 693 L429 693 Z M156 265 L451 265 L393 650 L391 650 L156 265 Z M522 875 L432 757 L391 757 L470 875 L522 875 Z " />
<glyph glyph-name="Acircumflex" unicode="&#xc2;" horiz-adv-x="597" d="M429 693 L537 0 L492 0 L457 228 L134 228 L-5 0 L-56 0 L371 693 L429 693 Z M156 265 L451 265 L393 650 L391 650 L156 265 Z M467 875 L518 757 L483 757 L436 842 L348 757 L310 757 L414 875 L467 875 Z " />
<glyph glyph-name="Atilde" unicode="&#xc3;" horiz-adv-x="597" d="M429 693 L537 0 L492 0 L457 228 L134 228 L-5 0 L-56 0 L371 693 L429 693 Z M156 265 L451 265 L393 650 L391 650 L156 265 Z M481 799 Q495 799 505.5 812 Q516 825 521 846 L550 846 Q541 810 520 787.5 Q499 765 473 765 Q461 765 449 770.5 Q437 776 414 793 Q396 808 387 812 Q378 816 371 816 Q359 816 348.5 802.5 Q338 789 332 768 L302 768 Q310 803 332 826.5 Q354 850 379 850 Q391 850 404 844 Q417 838 441 820 Q459 807 467 803 Q475 799 481 799 Z " />
<glyph glyph-name="Adieresis" unicode="&#xc4;" horiz-adv-x="597" d="M429 693 L537 0 L492 0 L457 228 L134 228 L-5 0 L-56 0 L371 693 L429 693 Z M156 265 L451 265 L393 650 L391 650 L156 265 Z M416 875 L395 781 L350 781 L371 875 L416 875 Z M530 875 L509 781 L464 781 L485 875 L530 875 Z " />
<glyph glyph-name="Aring" unicode="&#xc5;" horiz-adv-x="597" d="M439 622 L537 0 L492 0 L457 228 L134 228 L-5 0 L-56 0 L338 637 Q315 652 301.5 677 Q288 702 288 730 Q288 777 322 811 Q356 845 403 845 Q450 845 484 811 Q518 777 518 730 Q518 693 496 663 Q474 633 439 622 Z M156 265 L451 265 L399 616 Q391 616 384.5 617 Q378 618 372 620 L156 265 Z M326 730 Q326 699 349 675 Q372 651 403 651 Q433 651 456 675 Q479 699 479 730 Q479 761 456 785 Q433 809 403 809 Q372 809 349 785 Q326 761 326 730 Z " />
<glyph glyph-name="AE" unicode="&#xc6;" horiz-adv-x="870" d="M781 37 L773 0 L381 0 L434 228 L161 228 L-7 0 L-58 0 L454 693 L924 693 L916 656 L578 656 L515 383 L791 383 L782 346 L506 346 L436 37 L781 37 Z M188 265 L442 265 L531 656 L475 656 L188 265 Z " />
<glyph glyph-name="Ccedilla" unicode="&#xc7;" horiz-adv-x="625" d="M332 -9 L271 -52 Q274 -51 277.5 -51 Q281 -51 288 -51 Q326 -51 346 -65 Q366 -79 364 -106 Q362 -146 325 -168.5 Q288 -191 233 -191 Q209 -191 186.5 -185.5 Q164 -180 151 -172 L161 -139 Q166 -142 176.5 -145.5 Q187 -149 202 -154 Q213 -157 224 -158.5 Q235 -160 245 -160 Q277 -160 299.5 -146.5 Q322 -133 323 -112 Q324 -98 311.5 -90.5 Q299 -83 274 -83 Q259 -83 243 -85.5 Q227 -88 213 -93 L210 -69 L288 -12 Q160 -10 108.5 90.5 Q57 191 96 354 Q133 515 228 610.5 Q323 706 449 706 Q540 706 593.5 654 Q647 602 660 500 L613 492 Q602 581 560.5 624.5 Q519 668 446 668 Q339 668 256.5 579.5 Q174 491 142 348 Q109 204 150 115 Q191 26 296 26 Q371 26 435.5 74.5 Q500 123 549 216 L596 207 Q543 109 477 55 Q411 1 332 -9 Z " />
<glyph glyph-name="Egrave" unicode="&#xc8;" horiz-adv-x="524" d="M437 37 L429 0 L24 0 L183 693 L578 693 L570 656 L221 656 L158 383 L447 383 L438 346 L149 346 L78 37 L437 37 Z M366 875 L418 757 L380 757 L315 875 L366 875 Z " />
<glyph glyph-name="Eacute" unicode="&#xc9;" horiz-adv-x="524" d="M437 37 L429 0 L24 0 L183 693 L578 693 L570 656 L221 656 L158 383 L447 383 L438 346 L149 346 L78 37 L437 37 Z M502 875 L412 757 L371 757 L450 875 L502 875 Z " />
<glyph glyph-name="Ecircumflex" unicode="&#xca;" horiz-adv-x="524" d="M437 37 L429 0 L24 0 L183 693 L578 693 L570 656 L221 656 L158 383 L447 383 L438 346 L149 346 L78 37 L437 37 Z M447 875 L498 757 L463 757 L416 842 L328 757 L290 757 L394 875 L447 875 Z " />
<glyph glyph-name="Edieresis" unicode="&#xcb;" horiz-adv-x="524" d="M437 37 L429 0 L24 0 L183 693 L578 693 L570 656 L221 656 L158 383 L447 383 L438 346 L149 346 L78 37 L437 37 Z M396 875 L375 781 L330 781 L351 875 L396 875 Z M510 875 L489 781 L444 781 L465 875 L510 875 Z " />
<glyph glyph-name="Igrave" unicode="&#xcc;" horiz-adv-x="226" d="M237 693 L78 0 L32 0 L191 693 L237 693 Z M199 875 L251 757 L213 757 L148 875 L199 875 Z " />
<glyph glyph-name="Iacute" unicode="&#xcd;" horiz-adv-x="226" d="M237 693 L78 0 L32 0 L191 693 L237 693 Z M335 875 L245 757 L204 757 L283 875 L335 875 Z " />
<glyph glyph-name="Icircumflex" unicode="&#xce;" horiz-adv-x="226" d="M237 693 L78 0 L32 0 L191 693 L237 693 Z M280 875 L331 757 L296 757 L249 842 L161 757 L123 757 L227 875 L280 875 Z " />
<glyph glyph-name="Idieresis" unicode="&#xcf;" horiz-adv-x="226" d="M237 693 L78 0 L32 0 L191 693 L237 693 Z M229 875 L208 781 L163 781 L184 875 L229 875 Z M343 875 L322 781 L277 781 L298 875 L343 875 Z " />
<glyph glyph-name="Eth" unicode="&#xd0;" horiz-adv-x="637" d="M605 335 Q570 181 467.5 90.5 Q365 0 221 0 L24 0 L103 346 L40 346 L49 383 L112 383 L183 693 L369 693 Q513 693 577 593.5 Q641 494 605 335 Z M149 346 L78 37 L224 37 Q347 37 436.5 119 Q526 201 558 341 Q590 484 537 570 Q484 656 363 656 L221 656 L158 383 L328 383 L319 346 L149 346 Z " />
<glyph glyph-name="Ntilde" unicode="&#xd1;" horiz-adv-x="632" d="M654 693 L495 0 L439 0 L216 639 L214 639 L66 0 L24 0 L183 693 L242 693 L463 65 L467 65 L612 693 L654 693 Z M497 799 Q511 799 521.5 812 Q532 825 537 846 L566 846 Q557 810 536 787.5 Q515 765 489 765 Q477 765 465 770.5 Q453 776 430 793 Q412 808 403 812 Q394 816 387 816 Q375 816 364.5 802.5 Q354 789 348 768 L318 768 Q326 803 348 826.5 Q370 850 395 850 Q407 850 420 844 Q433 838 457 820 Q475 807 483 803 Q491 799 497 799 Z " />
<glyph glyph-name="Ograve" unicode="&#xd2;" horiz-adv-x="657" d="M142 348 Q109 205 150 115.5 Q191 26 297 26 Q404 26 486.5 115 Q569 204 602 348 Q635 491 594 579.5 Q553 668 446 668 Q339 668 257 579.5 Q175 491 142 348 Z M450 706 Q580 706 633 605 Q686 504 649 342 Q612 182 516 85 Q420 -12 293 -12 Q164 -12 111 89 Q58 190 96 354 Q132 514 227.5 610 Q323 706 450 706 Z M411 875 L463 757 L425 757 L360 875 L411 875 Z " />
<glyph glyph-name="Oacute" unicode="&#xd3;" horiz-adv-x="657" d="M142 348 Q109 205 150 115.5 Q191 26 297 26 Q404 26 486.5 115 Q569 204 602 348 Q635 491 594 579.5 Q553 668 446 668 Q339 668 257 579.5 Q175 491 142 348 Z M450 706 Q580 706 633 605 Q686 504 649 342 Q612 182 516 85 Q420 -12 293 -12 Q164 -12 111 89 Q58 190 96 354 Q132 514 227.5 610 Q323 706 450 706 Z M547 875 L457 757 L416 757 L495 875 L547 875 Z " />
<glyph glyph-name="Ocircumflex" unicode="&#xd4;" horiz-adv-x="657" d="M142 348 Q109 205 150 115.5 Q191 26 297 26 Q404 26 486.5 115 Q569 204 602 348 Q635 491 594 579.5 Q553 668 446 668 Q339 668 257 579.5 Q175 491 142 348 Z M450 706 Q580 706 633 605 Q686 504 649 342 Q612 182 516 85 Q420 -12 293 -12 Q164 -12 111 89 Q58 190 96 354 Q132 514 227.5 610 Q323 706 450 706 Z M492 875 L543 757 L508 757 L461 842 L373 757 L335 757 L439 875 L492 875 Z " />
<glyph glyph-name="Otilde" unicode="&#xd5;" horiz-adv-x="657" d="M142 348 Q109 205 150 115.5 Q191 26 297 26 Q404 26 486.5 115 Q569 204 602 348 Q635 491 594 579.5 Q553 668 446 668 Q339 668 257 579.5 Q175 491 142 348 Z M450 706 Q580 706 633 605 Q686 504 649 342 Q612 182 516 85 Q420 -12 293 -12 Q164 -12 111 89 Q58 190 96 354 Q132 514 227.5 610 Q323 706 450 706 Z M506 799 Q520 799 530.5 812 Q541 825 546 846 L575 846 Q566 810 545 787.5 Q524 765 498 765 Q486 765 474 770.5 Q462 776 439 793 Q421 808 412 812 Q403 816 396 816 Q384 816 373.5 802.5 Q363 789 357 768 L327 768 Q335 803 357 826.5 Q379 850 404 850 Q416 850 429 844 Q442 838 466 820 Q484 807 492 803 Q500 799 506 799 Z " />
<glyph glyph-name="Odieresis" unicode="&#xd6;" horiz-adv-x="657" d="M142 348 Q109 205 150 115.5 Q191 26 297 26 Q404 26 486.5 115 Q569 204 602 348 Q635 491 594 579.5 Q553 668 446 668 Q339 668 257 579.5 Q175 491 142 348 Z M450 706 Q580 706 633 605 Q686 504 649 342 Q612 182 516 85 Q420 -12 293 -12 Q164 -12 111 89 Q58 190 96 354 Q132 514 227.5 610 Q323 706 450 706 Z M441 875 L420 781 L375 781 L396 875 L441 875 Z M555 875 L534 781 L489 781 L510 875 L555 875 Z " />
<glyph glyph-name="multiply" unicode="&#xd7;" horiz-adv-x="560" d="M479 120 L452 93 L284 261 L116 93 L89 120 L257 288 L89 456 L116 483 L284 315 L452 483 L479 456 L311 288 L479 120 Z " />
<glyph glyph-name="Oslash" unicode="&#xd8;" horiz-adv-x="657" d="M148 23 L84 -70 L54 -52 L121 45 Q76 92 64 173 Q52 254 76 354 Q112 514 207.5 610 Q303 706 430 706 Q466 706 497.5 697.5 Q529 689 555 671 L616 759 L646 741 L581 648 Q627 601 639.5 521 Q652 441 629 342 Q592 182 496 85 Q400 -12 273 -12 Q236 -12 204.5 -3 Q173 6 148 23 Z M582 348 Q601 431 594 499.5 Q587 568 555 610 L173 59 Q192 43 218.5 34.5 Q245 26 277 26 Q384 26 466.5 115 Q549 204 582 348 Z M122 348 Q103 264 109.5 195.5 Q116 127 148 84 L530 635 Q510 652 484 660 Q458 668 426 668 Q319 668 237 579.5 Q155 491 122 348 Z " />
<glyph glyph-name="Ugrave" unicode="&#xd9;" horiz-adv-x="632" d="M284 26 Q369 26 432.5 78.5 Q496 131 516 217 L625 693 L671 693 L560 212 Q536 109 460.5 48.5 Q385 -12 282 -12 Q174 -12 120 51.5 Q66 115 89 217 L198 693 L244 693 L134 211 Q115 129 157 77.5 Q199 26 284 26 Z M398 875 L450 757 L412 757 L347 875 L398 875 Z " />
<glyph glyph-name="Uacute" unicode="&#xda;" horiz-adv-x="632" d="M284 26 Q369 26 432.5 78.5 Q496 131 516 217 L625 693 L671 693 L560 212 Q536 109 460.5 48.5 Q385 -12 282 -12 Q174 -12 120 51.5 Q66 115 89 217 L198 693 L244 693 L134 211 Q115 129 157 77.5 Q199 26 284 26 Z M534 875 L444 757 L403 757 L482 875 L534 875 Z " />
<glyph glyph-name="Ucircumflex" unicode="&#xdb;" horiz-adv-x="632" d="M284 26 Q369 26 432.5 78.5 Q496 131 516 217 L625 693 L671 693 L560 212 Q536 109 460.5 48.5 Q385 -12 282 -12 Q174 -12 120 51.5 Q66 115 89 217 L198 693 L244 693 L134 211 Q115 129 157 77.5 Q199 26 284 26 Z M479 875 L530 757 L495 757 L448 842 L360 757 L322 757 L426 875 L479 875 Z " />
<glyph glyph-name="Udieresis" unicode="&#xdc;" horiz-adv-x="632" d="M284 26 Q369 26 432.5 78.5 Q496 131 516 217 L625 693 L671 693 L560 212 Q536 109 460.5 48.5 Q385 -12 282 -12 Q174 -12 120 51.5 Q66 115 89 217 L198 693 L244 693 L134 211 Q115 129 157 77.5 Q199 26 284 26 Z M428 875 L407 781 L362 781 L383 875 L428 875 Z M542 875 L521 781 L476 781 L497 875 L542 875 Z " />
<glyph glyph-name="Yacute" unicode="&#xdd;" horiz-adv-x="546" d="M306 295 L238 0 L192 0 L260 295 L117 693 L166 693 L291 340 L576 693 L631 693 L306 295 Z M489 875 L399 757 L358 757 L437 875 L489 875 Z " />
<glyph glyph-name="Thorn" unicode="&#xde;" horiz-adv-x="569" d="M564 393 Q564 283 486.5 221 Q409 159 269 159 L105 159 L70 0 L23 0 L182 693 L228 693 L199 567 L350 567 Q457 567 510.5 523.5 Q564 480 564 393 Z M191 530 L115 196 L265 196 Q386 196 451 247.5 Q516 299 516 391 Q516 461 472 495.5 Q428 530 339 530 L191 530 Z " />
<glyph glyph-name="germandbls" unicode="&#xdf;" horiz-adv-x="523" d="M475 251 Q475 142 395.5 71 Q316 0 200 0 L185 0 L193 35 L209 35 Q299 35 365 96.5 Q431 158 431 249 Q431 308 393.5 343.5 Q356 379 296 379 L273 379 L280 413 L302 413 Q368 413 416 457.5 Q464 502 464 569 Q464 616 433 643.5 Q402 671 351 671 Q290 671 247 635.5 Q204 600 190 540 L66 0 L24 0 L147 537 Q165 617 220 661.5 Q275 706 355 706 Q424 706 465 669.5 Q506 633 506 573 Q506 510 471.5 466 Q437 422 372 400 Q372 400 371.5 399.5 Q371 399 371 398 Q419 383 447 344 Q475 305 475 251 Z " />
<glyph glyph-name="agrave" unicode="&#xe0;" horiz-adv-x="499" d="M456 352 L375 0 L332 0 L351 82 L349 82 Q307 32 260.5 10 Q214 -12 156 -12 Q80 -12 47.5 26 Q15 64 30 135 Q39 178 60.5 205 Q82 232 121 247 Q142 255 173 261.5 Q204 268 270 277 Q361 289 383 301.5 Q405 314 414 347 L415 351 Q430 414 405.5 444 Q381 474 315 474 Q257 474 217 449.5 Q177 425 144 368 L103 375 Q146 447 197 477.5 Q248 508 318 508 Q402 508 437.5 467 Q473 426 456 352 Z M165 21 Q244 21 301.5 68 Q359 115 377 193 L398 283 Q384 270 362 262.5 Q340 255 267 244 Q262 243 232 239 Q202 235 185 232 Q160 227 142.5 219.5 Q125 212 112 202 Q97 190 87 172.5 Q77 155 72 132 Q60 78 84 49.5 Q108 21 165 21 Z M297 693 L349 575 L311 575 L246 693 L297 693 Z " />
<glyph glyph-name="aacute" unicode="&#xe1;" horiz-adv-x="499" d="M456 352 L375 0 L332 0 L351 82 L349 82 Q307 32 260.5 10 Q214 -12 156 -12 Q80 -12 47.5 26 Q15 64 30 135 Q39 178 60.5 205 Q82 232 121 247 Q142 255 173 261.5 Q204 268 270 277 Q361 289 383 301.5 Q405 314 414 347 L415 351 Q430 414 405.5 444 Q381 474 315 474 Q257 474 217 449.5 Q177 425 144 368 L103 375 Q146 447 197 477.5 Q248 508 318 508 Q402 508 437.5 467 Q473 426 456 352 Z M165 21 Q244 21 301.5 68 Q359 115 377 193 L398 283 Q384 270 362 262.5 Q340 255 267 244 Q262 243 232 239 Q202 235 185 232 Q160 227 142.5 219.5 Q125 212 112 202 Q97 190 87 172.5 Q77 155 72 132 Q60 78 84 49.5 Q108 21 165 21 Z M433 693 L343 575 L302 575 L381 693 L433 693 Z " />
<glyph glyph-name="acircumflex" unicode="&#xe2;" horiz-adv-x="499" d="M456 352 L375 0 L332 0 L351 82 L349 82 Q307 32 260.5 10 Q214 -12 156 -12 Q80 -12 47.5 26 Q15 64 30 135 Q39 178 60.5 205 Q82 232 121 247 Q142 255 173 261.5 Q204 268 270 277 Q361 289 383 301.5 Q405 314 414 347 L415 351 Q430 414 405.5 444 Q381 474 315 474 Q257 474 217 449.5 Q177 425 144 368 L103 375 Q146 447 197 477.5 Q248 508 318 508 Q402 508 437.5 467 Q473 426 456 352 Z M165 21 Q244 21 301.5 68 Q359 115 377 193 L398 283 Q384 270 362 262.5 Q340 255 267 244 Q262 243 232 239 Q202 235 185 232 Q160 227 142.5 219.5 Q125 212 112 202 Q97 190 87 172.5 Q77 155 72 132 Q60 78 84 49.5 Q108 21 165 21 Z M378 693 L429 575 L394 575 L347 660 L259 575 L221 575 L325 693 L378 693 Z " />
<glyph glyph-name="atilde" unicode="&#xe3;" horiz-adv-x="499" d="M456 352 L375 0 L332 0 L351 82 L349 82 Q307 32 260.5 10 Q214 -12 156 -12 Q80 -12 47.5 26 Q15 64 30 135 Q39 178 60.5 205 Q82 232 121 247 Q142 255 173 261.5 Q204 268 270 277 Q361 289 383 301.5 Q405 314 414 347 L415 351 Q430 414 405.5 444 Q381 474 315 474 Q257 474 217 449.5 Q177 425 144 368 L103 375 Q146 447 197 477.5 Q248 508 318 508 Q402 508 437.5 467 Q473 426 456 352 Z M165 21 Q244 21 301.5 68 Q359 115 377 193 L398 283 Q384 270 362 262.5 Q340 255 267 244 Q262 243 232 239 Q202 235 185 232 Q160 227 142.5 219.5 Q125 212 112 202 Q97 190 87 172.5 Q77 155 72 132 Q60 78 84 49.5 Q108 21 165 21 Z M392 617 Q406 617 416.5 630 Q427 643 432 664 L461 664 Q452 628 431 605.5 Q410 583 384 583 Q372 583 360 588.5 Q348 594 325 611 Q307 626 298 630 Q289 634 282 634 Q270 634 259.5 620.5 Q249 607 243 586 L213 586 Q221 621 243 644.5 Q265 668 290 668 Q302 668 315 662 Q328 656 352 638 Q370 625 378 621 Q386 617 392 617 Z " />
<glyph glyph-name="adieresis" unicode="&#xe4;" horiz-adv-x="499" d="M456 352 L375 0 L332 0 L351 82 L349 82 Q307 32 260.5 10 Q214 -12 156 -12 Q80 -12 47.5 26 Q15 64 30 135 Q39 178 60.5 205 Q82 232 121 247 Q142 255 173 261.5 Q204 268 270 277 Q361 289 383 301.5 Q405 314 414 347 L415 351 Q430 414 405.5 444 Q381 474 315 474 Q257 474 217 449.5 Q177 425 144 368 L103 375 Q146 447 197 477.5 Q248 508 318 508 Q402 508 437.5 467 Q473 426 456 352 Z M165 21 Q244 21 301.5 68 Q359 115 377 193 L398 283 Q384 270 362 262.5 Q340 255 267 244 Q262 243 232 239 Q202 235 185 232 Q160 227 142.5 219.5 Q125 212 112 202 Q97 190 87 172.5 Q77 155 72 132 Q60 78 84 49.5 Q108 21 165 21 Z M327 693 L306 599 L261 599 L282 693 L327 693 Z M441 693 L420 599 L375 599 L396 693 L441 693 Z " />
<glyph glyph-name="aring" unicode="&#xe5;" horiz-adv-x="499" d="M456 352 L375 0 L332 0 L351 82 L349 82 Q307 32 260.5 10 Q214 -12 156 -12 Q80 -12 47.5 26 Q15 64 30 135 Q39 178 60.5 205 Q82 232 121 247 Q142 255 173 261.5 Q204 268 270 277 Q361 289 383 301.5 Q405 314 414 347 L415 351 Q430 414 405.5 444 Q381 474 315 474 Q257 474 217 449.5 Q177 425 144 368 L103 375 Q146 447 197 477.5 Q248 508 318 508 Q402 508 437.5 467 Q473 426 456 352 Z M165 21 Q244 21 301.5 68 Q359 115 377 193 L398 283 Q384 270 362 262.5 Q340 255 267 244 Q262 243 232 239 Q202 235 185 232 Q160 227 142.5 219.5 Q125 212 112 202 Q97 190 87 172.5 Q77 155 72 132 Q60 78 84 49.5 Q108 21 165 21 Z M429 646 Q429 609 403.5 583 Q378 557 341 557 Q304 557 278 583 Q252 609 252 646 Q252 683 278 709 Q304 735 341 735 Q378 735 403.5 709 Q429 683 429 646 Z M283 646 Q283 620 299.5 603 Q316 586 341 586 Q366 586 382 603 Q398 620 398 646 Q398 672 382 689 Q366 706 341 706 Q315 706 299 689 Q283 672 283 646 Z " />
<glyph glyph-name="ae" unicode="&#xe6;" horiz-adv-x="834" d="M544 22 Q598 22 643.5 53.5 Q689 85 724 147 L765 135 Q723 64 665.5 26 Q608 -12 540 -12 Q473 -12 433 24.5 Q393 61 385 129 Q385 129 384.5 129 Q384 129 383 129 Q346 59 289.5 23.5 Q233 -12 159 -12 Q81 -12 48 26 Q15 64 30 135 Q39 178 61 205 Q83 232 121 247 Q143 256 173.5 262.5 Q204 269 270 277 Q319 283 333 285.5 Q347 288 357 291 Q380 298 393.5 312 Q407 326 415 351 Q434 408 407 441 Q380 474 313 474 Q256 474 216 449 Q176 424 144 368 L103 375 Q146 447 197 477.5 Q248 508 318 508 Q387 508 421.5 479 Q456 450 453 394 Q490 449 540 478.5 Q590 508 649 508 Q726 508 765.5 457.5 Q805 407 805 309 Q800 283 797 268 Q794 253 793 249 L429 249 Q406 146 436.5 84 Q467 22 544 22 Z M167 21 Q244 21 301.5 68.5 Q359 116 377 193 L398 283 Q387 272 368 265 Q349 258 312 251 Q290 247 241 240.5 Q192 234 169 228 Q126 216 103.5 193.5 Q81 171 72 132 Q60 78 84.5 49.5 Q109 21 167 21 Z M644 474 Q574 474 519 422 Q464 370 437 280 L757 280 Q772 372 742.5 423 Q713 474 644 474 Z " />
<glyph glyph-name="ccedilla" unicode="&#xe7;" horiz-adv-x="503" d="M271 -6 L206 -52 Q209 -51 212.5 -51 Q216 -51 223 -51 Q261 -51 281 -65 Q301 -79 299 -106 Q297 -146 260 -168.5 Q223 -191 168 -191 Q144 -191 121.5 -185.5 Q99 -180 86 -172 L96 -139 Q101 -142 111.5 -145.5 Q122 -149 137 -154 Q148 -157 159 -158.5 Q170 -160 180 -160 Q212 -160 234.5 -146.5 Q257 -133 258 -112 Q259 -98 246.5 -90.5 Q234 -83 209 -83 Q194 -83 178 -85.5 Q162 -88 148 -93 L145 -69 L223 -12 Q124 -12 82 60.5 Q40 133 68 254 Q94 369 165 438.5 Q236 508 330 508 Q397 508 436.5 472.5 Q476 437 486 369 L446 360 Q434 417 404 445.5 Q374 474 326 474 Q250 474 191.5 412 Q133 350 109 248 Q86 146 117.5 84 Q149 22 226 22 Q278 22 323.5 54 Q369 86 403 147 L443 138 Q409 77 366 41 Q323 5 271 -6 Z " />
<glyph glyph-name="egrave" unicode="&#xe8;" horiz-adv-x="507" d="M224 22 Q278 22 323.5 53.5 Q369 85 404 147 L445 135 Q403 64 345.5 26 Q288 -12 220 -12 Q123 -12 81.5 61.5 Q40 135 68 255 Q94 368 165 438 Q236 508 329 508 Q405 508 445.5 458.5 Q486 409 481 322 Q481 303 479 284.5 Q477 266 473 249 L109 249 Q86 146 116.5 84 Q147 22 224 22 Z M325 474 Q254 474 199 422 Q144 370 117 280 L437 280 Q452 372 423 423 Q394 474 325 474 Z M299 710 L351 592 L313 592 L248 710 L299 710 Z " />
<glyph glyph-name="eacute" unicode="&#xe9;" horiz-adv-x="507" d="M224 22 Q278 22 323.5 53.5 Q369 85 404 147 L445 135 Q403 64 345.5 26 Q288 -12 220 -12 Q123 -12 81.5 61.5 Q40 135 68 255 Q94 368 165 438 Q236 508 329 508 Q405 508 445.5 458.5 Q486 409 481 322 Q481 303 479 284.5 Q477 266 473 249 L109 249 Q86 146 116.5 84 Q147 22 224 22 Z M325 474 Q254 474 199 422 Q144 370 117 280 L437 280 Q452 372 423 423 Q394 474 325 474 Z M435 710 L345 592 L304 592 L383 710 L435 710 Z " />
<glyph glyph-name="ecircumflex" unicode="&#xea;" horiz-adv-x="507" d="M224 22 Q278 22 323.5 53.5 Q369 85 404 147 L445 135 Q403 64 345.5 26 Q288 -12 220 -12 Q123 -12 81.5 61.5 Q40 135 68 255 Q94 368 165 438 Q236 508 329 508 Q405 508 445.5 458.5 Q486 409 481 322 Q481 303 479 284.5 Q477 266 473 249 L109 249 Q86 146 116.5 84 Q147 22 224 22 Z M325 474 Q254 474 199 422 Q144 370 117 280 L437 280 Q452 372 423 423 Q394 474 325 474 Z M380 710 L431 592 L396 592 L349 677 L261 592 L223 592 L327 710 L380 710 Z " />
<glyph glyph-name="edieresis" unicode="&#xeb;" horiz-adv-x="507" d="M224 22 Q278 22 323.5 53.5 Q369 85 404 147 L445 135 Q403 64 345.5 26 Q288 -12 220 -12 Q123 -12 81.5 61.5 Q40 135 68 255 Q94 368 165 438 Q236 508 329 508 Q405 508 445.5 458.5 Q486 409 481 322 Q481 303 479 284.5 Q477 266 473 249 L109 249 Q86 146 116.5 84 Q147 22 224 22 Z M325 474 Q254 474 199 422 Q144 370 117 280 L437 280 Q452 372 423 423 Q394 474 325 474 Z M329 710 L308 616 L263 616 L284 710 L329 710 Z M443 710 L422 616 L377 616 L398 710 L443 710 Z " />
<glyph glyph-name="igrave" unicode="&#xec;" horiz-adv-x="206" d="M181 496 L67 0 L25 0 L139 496 L181 496 Z M150 693 L202 575 L164 575 L99 693 L150 693 Z " />
<glyph glyph-name="iacute" unicode="&#xed;" horiz-adv-x="206" d="M181 496 L67 0 L25 0 L139 496 L181 496 Z M286 693 L196 575 L155 575 L234 693 L286 693 Z " />
<glyph glyph-name="icircumflex" unicode="&#xee;" horiz-adv-x="206" d="M180 496 L66 0 L24 0 L138 496 L180 496 Z M232 693 L283 575 L248 575 L201 660 L113 575 L75 575 L179 693 L232 693 Z " />
<glyph glyph-name="idieresis" unicode="&#xef;" horiz-adv-x="206" d="M181 496 L67 0 L25 0 L139 496 L181 496 Z M180 693 L159 599 L114 599 L135 693 L180 693 Z M294 693 L273 599 L228 599 L249 693 L294 693 Z " />
<glyph glyph-name="eth" unicode="&#xf0;" horiz-adv-x="529" d="M440 676 L451 647 L385 618 Q458 532 486 435.5 Q514 339 493 242 Q468 128 394.5 58 Q321 -12 222 -12 Q123 -12 81.5 61 Q40 134 68 253 Q95 370 166.5 439 Q238 508 336 508 Q361 508 383 502.5 Q405 497 422 486 Q408 516 389.5 546 Q371 576 348 603 L263 567 L250 596 L325 628 Q310 646 291.5 662 Q273 678 252 693 L309 693 Q331 675 342.5 664 Q354 653 363 643 L440 676 Z M109 248 Q85 143 116 82.5 Q147 22 228 22 Q310 22 368.5 82.5 Q427 143 451 248 Q475 353 444 413.5 Q413 474 332 474 Q250 474 191.5 413.5 Q133 353 109 248 Z " />
<glyph glyph-name="ntilde" unicode="&#xf1;" horiz-adv-x="508" d="M459 370 L374 0 L332 0 L417 368 Q429 419 415.5 446 Q402 473 366 473 Q341 473 311 459.5 Q281 446 237 414 L139 344 L60 0 L18 0 L132 496 L173 496 L149 390 L219 440 Q278 481 310.5 494.5 Q343 508 374 508 Q429 508 451.5 472 Q474 436 459 370 Z M413 634 Q427 634 437.5 647 Q448 660 453 681 L482 681 Q473 645 452 622.5 Q431 600 405 600 Q393 600 381 605.5 Q369 611 346 628 Q328 643 319 647 Q310 651 303 651 Q291 651 280.5 637.5 Q270 624 264 603 L234 603 Q242 638 264 661.5 Q286 685 311 685 Q323 685 336 679 Q349 673 373 655 Q391 642 399 638 Q407 634 413 634 Z " />
<glyph glyph-name="ograve" unicode="&#xf2;" horiz-adv-x="529" d="M336 508 Q437 508 479 435 Q521 362 493 242 Q467 126 394.5 57 Q322 -12 223 -12 Q122 -12 81 61 Q40 134 68 253 Q95 370 166.5 439 Q238 508 336 508 Z M109 248 Q85 143 116 82.5 Q147 22 228 22 Q310 22 368.5 82.5 Q427 143 451 248 Q475 353 444 413.5 Q413 474 332 474 Q250 474 191.5 413.5 Q133 353 109 248 Z M304 693 L356 575 L318 575 L253 693 L304 693 Z " />
<glyph glyph-name="oacute" unicode="&#xf3;" horiz-adv-x="529" d="M336 508 Q437 508 479 435 Q521 362 493 242 Q467 126 394.5 57 Q322 -12 223 -12 Q122 -12 81 61 Q40 134 68 253 Q95 370 166.5 439 Q238 508 336 508 Z M109 248 Q85 143 116 82.5 Q147 22 228 22 Q310 22 368.5 82.5 Q427 143 451 248 Q475 353 444 413.5 Q413 474 332 474 Q250 474 191.5 413.5 Q133 353 109 248 Z M440 693 L350 575 L309 575 L388 693 L440 693 Z " />
<glyph glyph-name="ocircumflex" unicode="&#xf4;" horiz-adv-x="529" d="M336 508 Q437 508 479 435 Q521 362 493 242 Q467 126 394.5 57 Q322 -12 223 -12 Q122 -12 81 61 Q40 134 68 253 Q95 370 166.5 439 Q238 508 336 508 Z M109 248 Q85 143 116 82.5 Q147 22 228 22 Q310 22 368.5 82.5 Q427 143 451 248 Q475 353 444 413.5 Q413 474 332 474 Q250 474 191.5 413.5 Q133 353 109 248 Z M385 693 L436 575 L401 575 L354 660 L266 575 L228 575 L332 693 L385 693 Z " />
<glyph glyph-name="otilde" unicode="&#xf5;" horiz-adv-x="529" d="M336 508 Q437 508 479 435 Q521 362 493 242 Q467 126 394.5 57 Q322 -12 223 -12 Q122 -12 81 61 Q40 134 68 253 Q95 370 166.5 439 Q238 508 336 508 Z M109 248 Q85 143 116 82.5 Q147 22 228 22 Q310 22 368.5 82.5 Q427 143 451 248 Q475 353 444 413.5 Q413 474 332 474 Q250 474 191.5 413.5 Q133 353 109 248 Z M399 617 Q413 617 423.5 630 Q434 643 439 664 L468 664 Q459 628 438 605.5 Q417 583 391 583 Q379 583 367 588.5 Q355 594 332 611 Q314 626 305 630 Q296 634 289 634 Q277 634 266.5 620.5 Q256 607 250 586 L220 586 Q228 621 250 644.5 Q272 668 297 668 Q309 668 322 662 Q335 656 359 638 Q377 625 385 621 Q393 617 399 617 Z " />
<glyph glyph-name="odieresis" unicode="&#xf6;" horiz-adv-x="529" d="M336 508 Q437 508 479 435 Q521 362 493 242 Q467 126 394.5 57 Q322 -12 223 -12 Q122 -12 81 61 Q40 134 68 253 Q95 370 166.5 439 Q238 508 336 508 Z M109 248 Q85 143 116 82.5 Q147 22 228 22 Q310 22 368.5 82.5 Q427 143 451 248 Q475 353 444 413.5 Q413 474 332 474 Q250 474 191.5 413.5 Q133 353 109 248 Z M334 693 L313 599 L268 599 L289 693 L334 693 Z M448 693 L427 599 L382 599 L403 693 L448 693 Z " />
<glyph glyph-name="divide" unicode="&#xf7;" horiz-adv-x="560" d="M275 123 L257 40 L187 40 L205 123 L275 123 Z M371 536 L352 453 L282 453 L301 536 L371 536 Z M509 307 L499 269 L67 269 L77 307 L509 307 Z " />
<glyph glyph-name="oslash" unicode="&#xf8;" horiz-adv-x="529" d="M137 2 L87 -75 L59 -60 L109 18 Q66 51 53 112 Q40 173 59 253 Q87 372 158 440 Q229 508 328 508 Q353 508 374 503.5 Q395 499 412 490 L463 569 L489 552 L438 472 Q477 439 489 379 Q501 319 484 242 Q458 126 385.5 57 Q313 -12 214 -12 Q192 -12 172.5 -8.5 Q153 -5 137 2 Z M100 248 Q85 180 92.5 129.5 Q100 79 130 52 L392 458 Q378 466 360.5 470 Q343 474 322 474 Q241 474 182.5 413 Q124 352 100 248 Z M442 248 Q457 312 450.5 361 Q444 410 416 438 L157 34 Q170 28 185.5 25 Q201 22 219 22 Q301 22 359.5 82.5 Q418 143 442 248 Z " />
<glyph glyph-name="ugrave" unicode="&#xf9;" horiz-adv-x="508" d="M497 496 L382 0 L341 0 L367 111 Q311 59 247 23.5 Q183 -12 141 -12 Q85 -12 63 24 Q41 60 56 126 L141 496 L183 496 L98 128 Q89 90 94.5 65.5 Q100 41 119 31 Q126 27 136 25.5 Q146 24 160 25 Q184 28 213 42.5 Q242 57 290 91 L376 151 L455 496 L497 496 Z M315 710 L367 592 L329 592 L264 710 L315 710 Z " />
<glyph glyph-name="uacute" unicode="&#xfa;" horiz-adv-x="508" d="M497 496 L382 0 L341 0 L367 111 Q311 59 247 23.5 Q183 -12 141 -12 Q85 -12 63 24 Q41 60 56 126 L141 496 L183 496 L98 128 Q89 90 94.5 65.5 Q100 41 119 31 Q126 27 136 25.5 Q146 24 160 25 Q184 28 213 42.5 Q242 57 290 91 L376 151 L455 496 L497 496 Z M451 710 L361 592 L320 592 L399 710 L451 710 Z " />
<glyph glyph-name="ucircumflex" unicode="&#xfb;" horiz-adv-x="508" d="M497 496 L382 0 L341 0 L367 111 Q311 59 247 23.5 Q183 -12 141 -12 Q85 -12 63 24 Q41 60 56 126 L141 496 L183 496 L98 128 Q89 90 94.5 65.5 Q100 41 119 31 Q126 27 136 25.5 Q146 24 160 25 Q184 28 213 42.5 Q242 57 290 91 L376 151 L455 496 L497 496 Z M396 710 L447 592 L412 592 L365 677 L277 592 L239 592 L343 710 L396 710 Z " />
<glyph glyph-name="udieresis" unicode="&#xfc;" horiz-adv-x="508" d="M497 496 L382 0 L341 0 L367 111 Q311 59 247 23.5 Q183 -12 141 -12 Q85 -12 63 24 Q41 60 56 126 L141 496 L183 496 L98 128 Q89 90 94.5 65.5 Q100 41 119 31 Q126 27 136 25.5 Q146 24 160 25 Q184 28 213 42.5 Q242 57 290 91 L376 151 L455 496 L497 496 Z M345 710 L324 616 L279 616 L300 710 L345 710 Z M459 710 L438 616 L393 616 L414 710 L459 710 Z " />
<glyph glyph-name="yacute" unicode="&#xfd;" horiz-adv-x="441" d="M-72 -191 L-99 -191 L-90 -154 L-64 -154 Q-12 -154 23 -131 Q58 -108 119 -15 Q133 7 137.5 23.5 Q142 40 139 56 L67 496 L110 496 L176 74 L178 74 L442 496 L490 496 L159 -22 Q88 -132 45 -161.5 Q2 -191 -72 -191 Z M396 709 L306 591 L265 591 L344 709 L396 709 Z " />
<glyph glyph-name="thorn" unicode="&#xfe;" horiz-adv-x="540" d="M84 108 L17 -182 L-25 -182 L178 693 L220 693 L151 392 Q187 449 235 478.5 Q283 508 343 508 Q438 508 476.5 435.5 Q515 363 488 244 Q462 128 392.5 58 Q323 -12 231 -12 Q171 -12 133 19 Q95 50 85 108 L84 108 Z M117 248 Q94 146 123 84.5 Q152 23 228 23 Q305 23 363.5 84.5 Q422 146 445 248 Q468 349 439 411 Q410 473 333 473 Q256 473 198 411.5 Q140 350 117 248 Z " />
<glyph glyph-name="ydieresis" unicode="&#xff;" horiz-adv-x="441" d="M-72 -191 L-99 -191 L-90 -154 L-64 -154 Q-12 -154 23 -131 Q58 -108 119 -15 Q133 7 137.5 23.5 Q142 40 139 56 L67 496 L110 496 L176 74 L178 74 L442 496 L490 496 L159 -22 Q88 -132 45 -161.5 Q2 -191 -72 -191 Z M290 709 L269 615 L224 615 L245 709 L290 709 Z M404 709 L383 615 L338 615 L359 709 L404 709 Z " />
<glyph glyph-name="OE" unicode="&#x152;" horiz-adv-x="1000" d="M935 37 L927 0 L524 0 L561 161 Q512 76 443.5 32 Q375 -12 293 -12 Q164 -12 111 89 Q58 190 96 354 Q132 514 227.5 610 Q323 706 450 706 Q536 706 585.5 659 Q635 612 644 524 L683 693 L1076 693 L1067 656 L719 656 L656 383 L945 383 L936 346 L647 346 L576 37 L935 37 Z M142 348 Q109 205 150 115.5 Q191 26 297 26 Q404 26 486.5 115 Q569 204 602 348 Q635 491 594 579.5 Q553 668 446 668 Q339 668 257 579.5 Q175 491 142 348 Z " />
<glyph glyph-name="Lslash" unicode="&#x141;" horiz-adv-x="467" d="M403 37 L395 0 L24 0 L89 287 L27 264 L15 299 L100 330 L183 693 L229 693 L150 348 L275 394 L287 359 L140 305 L78 37 L403 37 Z " />
<glyph glyph-name="oe" unicode="&#x153;" horiz-adv-x="890" d="M606 22 Q660 22 705.5 53.5 Q751 85 787 147 L828 135 Q785 63 727.5 25.5 Q670 -12 602 -12 Q533 -12 492.5 27.5 Q452 67 447 139 Q411 65 354 26.5 Q297 -12 224 -12 Q122 -12 81 60.5 Q40 133 68 253 Q95 370 166.5 439 Q238 508 335 508 Q407 508 447.5 469.5 Q488 431 494 357 Q531 429 587 468.5 Q643 508 712 508 Q785 508 824.5 463 Q864 418 864 335 Q864 314 861.5 289.5 Q859 265 856 249 L491 249 Q469 145 499 83.5 Q529 22 606 22 Z M109 248 Q85 143 116 82.5 Q147 22 228 22 Q310 22 368.5 82.5 Q427 143 451 248 Q475 353 444 413.5 Q413 474 332 474 Q250 474 191.5 413.5 Q133 353 109 248 Z M707 474 Q637 474 582 422 Q527 370 500 280 L819 280 Q834 372 805 423 Q776 474 707 474 Z " />
<glyph glyph-name="lslash" unicode="&#x142;" horiz-adv-x="206" d="M165 433 L66 0 L24 0 L120 417 L48 391 L36 427 L129 461 L183 693 L225 693 L176 478 L249 505 L262 469 L165 433 Z " />
<glyph glyph-name="dotlessi" unicode="&#x131;" horiz-adv-x="206" d="M180 496 L66 0 L24 0 L138 496 L180 496 Z " />
<glyph glyph-name="dotlessj" unicode="&#x237;" horiz-adv-x="202" d="M-114 -188 L-123 -188 L-115 -154 Q-55 -154 -29 -129 Q-3 -104 14 -34 L136 496 L178 496 L51 -54 Q34 -128 -1 -158 Q-36 -188 -114 -188 Z " />
<glyph glyph-name="longs" unicode="&#x17f;" horiz-adv-x="303" d="M225 570 L94 0 L52 0 L158 461 L68 461 L76 496 L166 496 L182 569 Q198 642 236 674 Q274 706 344 706 Q367 706 386 703.5 Q405 701 420 696 L411 660 Q394 665 376.5 668 Q359 671 342 671 Q292 671 264.5 647.5 Q237 624 225 570 Z " />
<glyph glyph-name="fi" unicode="&#xfb01;" horiz-adv-x="509" d="M200 461 L94 0 L52 0 L158 461 L68 461 L76 496 L166 496 L182 569 Q198 642 236 674 Q274 706 346 706 Q367 706 386 703.5 Q405 701 420 696 L411 660 Q394 665 376 668 Q358 671 341 671 Q291 671 264 647.5 Q237 624 225 570 L208 496 L361 496 L353 461 L200 461 Z M530 693 L509 599 L463 599 L484 693 L530 693 Z M483 496 L369 0 L327 0 L441 496 L483 496 Z " />
<glyph glyph-name="fl" unicode="&#xfb02;" horiz-adv-x="509" d="M200 461 L94 0 L52 0 L158 461 L68 461 L76 496 L166 496 L182 569 Q198 642 236 674 Q274 706 346 706 Q367 706 386 703.5 Q405 701 420 696 L411 660 Q394 665 376 668 Q358 671 341 671 Q291 671 264 647.5 Q237 624 225 570 L208 496 L361 496 L353 461 L200 461 Z M528 693 L369 0 L327 0 L486 693 L528 693 Z " />
<glyph glyph-name="f_f" unicode="&#xfb00;" horiz-adv-x="586" d="M476 461 L369 0 L327 0 L434 461 L200 461 L94 0 L52 0 L158 461 L68 461 L76 496 L166 496 L182 569 Q198 642 236 674 Q274 706 346 706 Q367 706 386 703.5 Q405 701 420 696 L411 660 Q393 666 376 668.5 Q359 671 341 671 Q291 671 264 647.5 Q237 624 225 570 L208 496 L442 496 L458 569 Q474 642 511.5 674 Q549 706 620 706 Q642 706 661.5 703.5 Q681 701 696 696 L687 660 Q670 665 652 668 Q634 671 617 671 Q568 671 539.5 646.5 Q511 622 500 570 L484 496 L637 496 L629 461 L476 461 Z " />
<glyph glyph-name="f_b" unicode="&#xe0a3;" horiz-adv-x="843" d="M200 461 L94 0 L52 0 L158 461 L68 461 L76 496 L166 496 L182 569 Q198 642 236 674 Q274 706 346 706 Q367 706 386 703.5 Q405 701 420 696 L411 660 Q394 665 376 668 Q358 671 341 671 Q291 671 264 647.5 Q237 624 225 570 L208 496 L361 496 L353 461 L200 461 Z M386 111 L348 0 L321 0 L480 693 L522 693 L453 394 L455 394 Q494 452 541 480 Q588 508 645 508 Q740 508 779 434.5 Q818 361 791 243 Q764 126 693.5 57 Q623 -12 530 -12 Q469 -12 433 19 Q397 50 388 111 L386 111 Z M419 248 Q396 145 425.5 85 Q455 25 532 25 Q608 25 665.5 85 Q723 145 747 248 Q770 350 741 410.5 Q712 471 636 471 Q559 471 500.5 410 Q442 349 419 248 Z " />
<glyph glyph-name="f_h" unicode="&#xe0a5;" horiz-adv-x="813" d="M200 461 L94 0 L52 0 L158 461 L68 461 L76 496 L166 496 L182 569 Q198 642 236 674 Q274 706 346 706 Q367 706 386 703.5 Q405 701 420 696 L411 660 Q394 665 376 668 Q358 671 341 671 Q291 671 264 647.5 Q237 624 225 570 L208 496 L361 496 L353 461 L200 461 Z M762 370 L677 0 L635 0 L719 368 Q731 419 718 446 Q705 473 669 473 Q645 473 615 459.5 Q585 446 540 414 L442 344 L363 0 L321 0 L480 693 L522 693 L452 390 L521 440 Q575 479 610 493.5 Q645 508 678 508 Q732 508 754.5 471.5 Q777 435 762 370 Z " />
<glyph glyph-name="f_j" unicode="&#xe0a9;" horiz-adv-x="505" d="M200 461 L94 0 L52 0 L158 461 L68 461 L76 496 L166 496 L182 569 Q198 642 236 674 Q274 706 346 706 Q367 706 386 703.5 Q405 701 420 696 L411 660 Q394 665 376 668 Q358 671 341 671 Q291 671 264 647.5 Q237 624 225 570 L208 496 L361 496 L353 461 L200 461 Z M189 -188 L179 -188 L187 -154 Q247 -154 273.5 -129 Q300 -104 317 -34 L439 496 L481 496 L354 -54 Q337 -128 301.5 -158 Q266 -188 189 -188 Z M528 693 L507 599 L461 599 L482 693 L528 693 Z " />
<glyph glyph-name="f_k" unicode="&#xe0a7;" horiz-adv-x="768" d="M200 461 L94 0 L52 0 L158 461 L68 461 L76 496 L166 496 L182 569 Q198 642 236 674 Q274 706 346 706 Q367 706 386 703.5 Q405 701 420 696 L411 660 Q394 665 376 668 Q358 671 341 671 Q291 671 264 647.5 Q237 624 225 570 L208 496 L361 496 L353 461 L200 461 Z M572 313 L707 0 L659 0 L539 284 L401 170 L363 0 L321 0 L480 693 L522 693 L415 227 L417 227 L736 496 L792 496 L572 313 Z " />
<glyph glyph-name="f_f_i" unicode="&#xfb03;" horiz-adv-x="784" d="M476 461 L369 0 L327 0 L434 461 L200 461 L94 0 L52 0 L158 461 L68 461 L76 496 L166 496 L182 569 Q198 642 236 674 Q274 706 346 706 Q367 706 386 703.5 Q405 701 420 696 L411 660 Q394 665 376 668 Q358 671 341 671 Q291 671 264 647.5 Q237 624 225 570 L208 496 L442 496 L458 569 Q474 642 511.5 674 Q549 706 620 706 Q642 706 661.5 703.5 Q681 701 696 696 L687 660 Q670 665 652 668 Q634 671 617 671 Q568 671 539.5 646.5 Q511 622 500 570 L484 496 L637 496 L629 461 L476 461 Z M758 496 L644 0 L602 0 L716 496 L758 496 Z M805 693 L784 599 L738 599 L759 693 L805 693 Z " />
<glyph glyph-name="f_f_l" unicode="&#xfb04;" horiz-adv-x="784" d="M476 461 L369 0 L327 0 L434 461 L200 461 L94 0 L52 0 L158 461 L68 461 L76 496 L166 496 L182 569 Q198 642 236 674 Q274 706 346 706 Q367 706 386 703.5 Q405 701 420 696 L411 660 Q394 665 376 668 Q358 671 341 671 Q291 671 264 647.5 Q237 624 225 570 L208 496 L442 496 L458 569 Q474 642 511.5 674 Q549 706 620 706 Q642 706 661.5 703.5 Q681 701 696 696 L687 660 Q670 665 652 668 Q634 671 617 671 Q568 671 539.5 646.5 Q511 622 500 570 L484 496 L637 496 L629 461 L476 461 Z M803 693 L644 0 L602 0 L761 693 L803 693 Z " />
<glyph glyph-name="f_f_b" unicode="&#xe0a4;" horiz-adv-x="1119" d="M662 111 L624 0 L596 0 L755 693 L797 693 L729 394 L730 394 Q769 452 816 480 Q863 508 921 508 Q1016 508 1054.5 436 Q1093 364 1066 243 Q1040 126 970 57 Q900 -12 806 -12 Q745 -12 709 19 Q673 50 663 111 L662 111 Z M695 248 Q672 146 701 85.5 Q730 25 807 25 Q884 25 942 86 Q1000 147 1023 248 Q1046 349 1017 410 Q988 471 911 471 Q834 471 776.5 410.5 Q719 350 695 248 Z M476 461 L369 0 L327 0 L434 461 L200 461 L94 0 L52 0 L158 461 L68 461 L76 496 L166 496 L182 569 Q198 642 236 674 Q274 706 346 706 Q367 706 386 703.5 Q405 701 420 696 L411 660 Q394 665 376 668 Q358 671 341 671 Q291 671 264 647.5 Q237 624 225 570 L208 496 L442 496 L458 569 Q474 642 511.5 674 Q549 706 620 706 Q642 706 661.5 703.5 Q681 701 696 696 L687 660 Q670 665 652 668 Q634 671 617 671 Q568 671 539.5 646.5 Q511 622 500 570 L484 496 L637 496 L629 461 L476 461 Z " />
<glyph glyph-name="f_f_h" unicode="&#xe0a6;" horiz-adv-x="1089" d="M476 461 L369 0 L327 0 L434 461 L200 461 L94 0 L52 0 L158 461 L68 461 L76 496 L166 496 L182 569 Q198 642 236 674 Q274 706 346 706 Q367 706 386 703.5 Q405 701 420 696 L411 660 Q394 665 376 668 Q358 671 341 671 Q291 671 264 647.5 Q237 624 225 570 L208 496 L442 496 L458 569 Q474 642 511.5 674 Q549 706 620 706 Q642 706 661.5 703.5 Q681 701 696 696 L687 660 Q670 665 652 668 Q634 671 617 671 Q568 671 539.5 646.5 Q511 622 500 570 L484 496 L637 496 L629 461 L476 461 Z M1037 370 L952 0 L910 0 L995 368 Q1007 418 994 445.5 Q981 473 945 473 Q921 473 891.5 459.5 Q862 446 816 414 L717 344 L638 0 L596 0 L755 693 L797 693 L727 390 L797 440 Q853 480 886.5 494 Q920 508 953 508 Q1008 508 1030 472 Q1052 436 1037 370 Z " />
<glyph glyph-name="f_f_j" unicode="&#xe0aa;" horiz-adv-x="781" d="M476 461 L369 0 L327 0 L434 461 L200 461 L94 0 L52 0 L158 461 L68 461 L76 496 L166 496 L182 569 Q198 642 236 674 Q274 706 346 706 Q367 706 386 703.5 Q405 701 420 696 L411 660 Q393 666 376 668.5 Q359 671 341 671 Q291 671 264 647.5 Q237 624 225 570 L208 496 L442 496 L458 569 Q474 642 511.5 674 Q549 706 620 706 Q642 706 661.5 703.5 Q681 701 696 696 L687 660 Q670 665 652 668 Q634 671 617 671 Q568 671 539.5 646.5 Q511 622 500 570 L484 496 L637 496 L629 461 L476 461 Z M464 -188 L455 -188 L463 -154 Q523 -154 549 -129 Q575 -104 592 -34 L715 496 L757 496 L630 -54 Q613 -128 577.5 -158 Q542 -188 464 -188 Z M803 693 L782 599 L736 599 L757 693 L803 693 Z " />
<glyph glyph-name="f_f_k" unicode="&#xe0a8;" horiz-adv-x="1043" d="M476 461 L369 0 L327 0 L434 461 L200 461 L94 0 L52 0 L158 461 L68 461 L76 496 L166 496 L182 569 Q198 642 236 674 Q274 706 346 706 Q367 706 386 703.5 Q405 701 420 696 L411 660 Q394 665 376 668 Q358 671 341 671 Q291 671 264 647.5 Q237 624 225 570 L208 496 L442 496 L458 569 Q474 642 511.5 674 Q549 706 620 706 Q642 706 661.5 703.5 Q681 701 696 696 L687 660 Q670 665 652 668 Q634 671 617 671 Q568 671 539.5 646.5 Q511 622 500 570 L484 496 L637 496 L629 461 L476 461 Z M847 313 L982 0 L934 0 L815 284 L677 170 L638 0 L596 0 L755 693 L797 693 L690 227 L692 227 L1011 496 L1068 496 L847 313 Z " />
<glyph glyph-name="Abreve" unicode="&#x102;" horiz-adv-x="597" d="M429 693 L537 0 L492 0 L457 228 L134 228 L-5 0 L-56 0 L371 693 L429 693 Z M156 265 L451 265 L393 650 L391 650 L156 265 Z M427 791 Q456 791 478.5 813.5 Q501 836 513 875 L550 875 Q535 820 501.5 788.5 Q468 757 424 757 Q378 757 356 789 Q334 821 343 875 L378 875 Q372 836 385 813.5 Q398 791 427 791 Z " />
<glyph glyph-name="Amacron" unicode="&#x100;" horiz-adv-x="597" d="M429 693 L537 0 L492 0 L457 228 L134 228 L-5 0 L-56 0 L371 693 L429 693 Z M156 265 L451 265 L393 650 L391 650 L156 265 Z M533 818 L525 784 L316 784 L324 818 L533 818 Z " />
<glyph glyph-name="Aogonek" unicode="&#x104;" horiz-adv-x="597" d="M450 -154 Q460 -154 473.5 -152 Q487 -150 504 -146 L497 -177 Q483 -181 467.5 -183.5 Q452 -186 438 -186 Q404 -186 387.5 -170.5 Q371 -155 374 -128 Q375 -96 406.5 -62.5 Q438 -29 492 0 L457 228 L134 228 L-5 0 L-56 0 L371 693 L429 693 L537 0 Q487 -29 451 -63.5 Q415 -98 414 -122 Q413 -137 422.5 -145.5 Q432 -154 450 -154 Z M156 265 L451 265 L393 650 L391 650 L156 265 Z " />
<glyph glyph-name="Cacute" unicode="&#x106;" horiz-adv-x="625" d="M296 26 Q371 26 435.5 74.5 Q500 123 549 216 L596 207 Q538 98 462 43 Q386 -12 293 -12 Q163 -12 110 88.5 Q57 189 96 354 Q133 515 228 610.5 Q323 706 449 706 Q540 706 593.5 654 Q647 602 660 500 L613 492 Q602 581 560.5 624.5 Q519 668 446 668 Q339 668 256.5 579.5 Q174 491 142 348 Q109 204 150 115 Q191 26 296 26 Z M546 875 L456 757 L415 757 L494 875 L546 875 Z " />
<glyph glyph-name="Ccaron" unicode="&#x10c;" horiz-adv-x="625" d="M296 26 Q371 26 435.5 74.5 Q500 123 549 216 L596 207 Q538 98 462 43 Q386 -12 293 -12 Q163 -12 110 88.5 Q57 189 96 354 Q133 515 228 610.5 Q323 706 449 706 Q540 706 593.5 654 Q647 602 660 500 L613 492 Q602 581 560.5 624.5 Q519 668 446 668 Q339 668 256.5 579.5 Q174 491 142 348 Q109 204 150 115 Q191 26 296 26 Z M570 875 L465 757 L413 757 L361 875 L397 875 L444 790 L532 875 L570 875 Z " />
<glyph glyph-name="Ccircumflex" unicode="&#x108;" horiz-adv-x="625" d="M296 26 Q371 26 435.5 74.5 Q500 123 549 216 L596 207 Q538 98 462 43 Q386 -12 293 -12 Q163 -12 110 88.5 Q57 189 96 354 Q133 515 228 610.5 Q323 706 449 706 Q540 706 593.5 654 Q647 602 660 500 L613 492 Q602 581 560.5 624.5 Q519 668 446 668 Q339 668 256.5 579.5 Q174 491 142 348 Q109 204 150 115 Q191 26 296 26 Z M491 875 L542 757 L507 757 L460 842 L372 757 L334 757 L438 875 L491 875 Z " />
<glyph glyph-name="Cdotaccent" unicode="&#x10a;" horiz-adv-x="625" d="M296 26 Q371 26 435.5 74.5 Q500 123 549 216 L596 207 Q538 98 462 43 Q386 -12 293 -12 Q163 -12 110 88.5 Q57 189 96 354 Q133 515 228 610.5 Q323 706 449 706 Q540 706 593.5 654 Q647 602 660 500 L613 492 Q602 581 560.5 624.5 Q519 668 446 668 Q339 668 256.5 579.5 Q174 491 142 348 Q109 204 150 115 Q191 26 296 26 Z M488 875 L467 781 L421 781 L442 875 L488 875 Z " />
<glyph glyph-name="Dcaron" unicode="&#x10e;" horiz-adv-x="637" d="M605 335 Q570 181 467.5 90.5 Q365 0 221 0 L24 0 L183 693 L369 693 Q513 693 577 593.5 Q641 494 605 335 Z M221 656 L78 37 L224 37 Q347 37 436.5 119 Q526 201 558 341 Q591 484 537.5 570 Q484 656 363 656 L221 656 Z M544 875 L439 757 L387 757 L335 875 L371 875 L418 790 L506 875 L544 875 Z " />
<glyph glyph-name="Dcroat" unicode="&#x110;" horiz-adv-x="637" d="M605 335 Q570 181 467.5 90.5 Q365 0 221 0 L24 0 L103 346 L40 346 L49 383 L112 383 L183 693 L369 693 Q513 693 577 593.5 Q641 494 605 335 Z M149 346 L78 37 L224 37 Q347 37 436.5 119 Q526 201 558 341 Q590 484 537 570 Q484 656 363 656 L221 656 L158 383 L328 383 L319 346 L149 346 Z " />
<glyph glyph-name="Ebreve" unicode="&#x114;" horiz-adv-x="524" d="M437 37 L429 0 L24 0 L183 693 L578 693 L570 656 L221 656 L158 383 L447 383 L438 346 L149 346 L78 37 L437 37 Z M407 791 Q436 791 458.5 813.5 Q481 836 493 875 L530 875 Q515 820 481.5 788.5 Q448 757 404 757 Q358 757 336 789 Q314 821 323 875 L358 875 Q352 836 365 813.5 Q378 791 407 791 Z " />
<glyph glyph-name="Ecaron" unicode="&#x11a;" horiz-adv-x="524" d="M437 37 L429 0 L24 0 L183 693 L578 693 L570 656 L221 656 L158 383 L447 383 L438 346 L149 346 L78 37 L437 37 Z M526 875 L421 757 L369 757 L317 875 L353 875 L400 790 L488 875 L526 875 Z " />
<glyph glyph-name="Edotaccent" unicode="&#x116;" horiz-adv-x="524" d="M437 37 L429 0 L24 0 L183 693 L578 693 L570 656 L221 656 L158 383 L447 383 L438 346 L149 346 L78 37 L437 37 Z M444 875 L423 781 L377 781 L398 875 L444 875 Z " />
<glyph glyph-name="Emacron" unicode="&#x112;" horiz-adv-x="524" d="M437 37 L429 0 L24 0 L183 693 L578 693 L570 656 L221 656 L158 383 L447 383 L438 346 L149 346 L78 37 L437 37 Z M513 818 L505 784 L296 784 L304 818 L513 818 Z " />
<glyph glyph-name="Eogonek" unicode="&#x118;" horiz-adv-x="524" d="M311 -154 Q321 -154 334.5 -152 Q348 -150 365 -146 L358 -177 Q344 -181 328.5 -183.5 Q313 -186 299 -186 Q268 -186 251.5 -173 Q235 -160 235 -135 Q235 -101 264.5 -67 Q294 -33 351 0 L24 0 L183 693 L578 693 L570 656 L221 656 L158 383 L447 383 L438 346 L149 346 L78 37 L437 37 L429 0 L399 0 Q347 -29 311 -64.5 Q275 -100 275 -126 Q275 -139 285 -146.5 Q295 -154 311 -154 Z " />
<glyph glyph-name="Gbreve" unicode="&#x11e;" horiz-adv-x="647" d="M300 26 Q395 26 469 99 Q543 172 582 302 L402 302 L410 339 L640 339 Q600 174 509.5 81 Q419 -12 295 -12 Q165 -12 111.5 90 Q58 192 97 354 Q134 514 230 610 Q326 706 454 706 Q548 706 600.5 653 Q653 600 660 500 L612 493 Q604 580 563 624 Q522 668 449 668 Q342 668 259.5 579.5 Q177 491 143 348 Q110 205 151.5 115.5 Q193 26 300 26 Z M454 791 Q483 791 505.5 813.5 Q528 836 540 875 L577 875 Q562 820 528.5 788.5 Q495 757 451 757 Q405 757 383 789 Q361 821 370 875 L405 875 Q399 836 412 813.5 Q425 791 454 791 Z " />
<glyph glyph-name="Gcircumflex" unicode="&#x11c;" horiz-adv-x="647" d="M300 26 Q395 26 469 99 Q543 172 582 302 L402 302 L410 339 L640 339 Q600 174 509.5 81 Q419 -12 295 -12 Q165 -12 111.5 90 Q58 192 97 354 Q134 514 230 610 Q326 706 454 706 Q548 706 600.5 653 Q653 600 660 500 L612 493 Q604 580 563 624 Q522 668 449 668 Q342 668 259.5 579.5 Q177 491 143 348 Q110 205 151.5 115.5 Q193 26 300 26 Z M494 875 L545 757 L510 757 L463 842 L375 757 L337 757 L441 875 L494 875 Z " />
<glyph glyph-name="Gcommaaccent" unicode="&#x122;" horiz-adv-x="647" d="M300 26 Q395 26 469 99 Q543 172 582 302 L402 302 L410 339 L640 339 Q600 174 509.5 81 Q419 -12 295 -12 Q165 -12 111.5 90 Q58 192 97 354 Q134 514 230 610 Q326 706 454 706 Q548 706 600.5 653 Q653 600 660 500 L612 493 Q604 580 563 624 Q522 668 449 668 Q342 668 259.5 579.5 Q177 491 143 348 Q110 205 151.5 115.5 Q193 26 300 26 Z M297 -94 L237 -176 L207 -176 L255 -103 L225 -103 L240 -40 L310 -40 L297 -94 Z " />
<glyph glyph-name="Gdotaccent" unicode="&#x120;" horiz-adv-x="647" d="M300 26 Q395 26 469 99 Q543 172 582 302 L402 302 L410 339 L640 339 Q600 174 509.5 81 Q419 -12 295 -12 Q165 -12 111.5 90 Q58 192 97 354 Q134 514 230 610 Q326 706 454 706 Q548 706 600.5 653 Q653 600 660 500 L612 493 Q604 580 563 624 Q522 668 449 668 Q342 668 259.5 579.5 Q177 491 143 348 Q110 205 151.5 115.5 Q193 26 300 26 Z M491 875 L470 781 L424 781 L445 875 L491 875 Z " />
<glyph glyph-name="Hbar" unicode="&#x126;" horiz-adv-x="624" d="M601 509 L484 0 L438 0 L517 346 L149 346 L70 0 L24 0 L141 509 L78 509 L87 546 L149 546 L183 693 L229 693 L195 546 L563 546 L597 693 L643 693 L609 546 L677 546 L668 509 L601 509 Z M158 383 L526 383 L555 509 L187 509 L158 383 Z " />
<glyph glyph-name="Hcircumflex" unicode="&#x124;" horiz-adv-x="624" d="M643 693 L484 0 L438 0 L517 346 L149 346 L70 0 L24 0 L183 693 L229 693 L158 383 L526 383 L597 693 L643 693 Z M472 875 L523 757 L488 757 L441 842 L353 757 L315 757 L419 875 L472 875 Z " />
<glyph glyph-name="Ibreve" unicode="&#x12c;" horiz-adv-x="226" d="M237 693 L78 0 L32 0 L191 693 L237 693 Z M240 791 Q269 791 291.5 813.5 Q314 836 326 875 L363 875 Q348 820 314.5 788.5 Q281 757 237 757 Q191 757 169 789 Q147 821 156 875 L191 875 Q185 836 198 813.5 Q211 791 240 791 Z " />
<glyph glyph-name="Idot" unicode="&#x130;" horiz-adv-x="226" d="M237 693 L78 0 L32 0 L191 693 L237 693 Z M277 875 L256 781 L210 781 L231 875 L277 875 Z " />
<glyph glyph-name="Imacron" unicode="&#x12a;" horiz-adv-x="226" d="M237 693 L78 0 L32 0 L191 693 L237 693 Z M346 818 L338 784 L129 784 L137 818 L346 818 Z " />
<glyph glyph-name="Iogonek" unicode="&#x12e;" horiz-adv-x="226" d="M-5 -154 Q5 -154 18.5 -152 Q32 -150 49 -146 L42 -177 Q28 -181 12.5 -183.5 Q-3 -186 -17 -186 Q-51 -186 -67.5 -170.5 Q-84 -155 -81 -128 Q-80 -97 -49.5 -64 Q-19 -31 35 0 L194 693 L240 693 L81 0 Q32 -27 -4 -62.5 Q-40 -98 -41 -122 Q-42 -137 -32.5 -145.5 Q-23 -154 -5 -154 Z " />
<glyph glyph-name="Itilde" unicode="&#x128;" horiz-adv-x="226" d="M237 693 L78 0 L32 0 L191 693 L237 693 Z M294 799 Q308 799 318.5 812 Q329 825 334 846 L363 846 Q354 810 333 787.5 Q312 765 286 765 Q274 765 262 770.5 Q250 776 227 793 Q209 808 200 812 Q191 816 184 816 Q172 816 161.5 802.5 Q151 789 145 768 L115 768 Q123 803 145 826.5 Q167 850 192 850 Q204 850 217 844 Q230 838 254 820 Q272 807 280 803 Q288 799 294 799 Z " />
<glyph glyph-name="Jcircumflex" unicode="&#x134;" horiz-adv-x="480" d="M176 26 Q246 26 291 69.5 Q336 113 356 199 L469 693 L515 693 L400 193 Q377 92 320 40 Q263 -12 176 -12 Q85 -12 45 41.5 Q5 95 26 191 L34 227 L81 235 L73 197 Q55 112 81 69 Q107 26 176 26 Z M538 875 L589 757 L554 757 L507 842 L419 757 L381 757 L485 875 L538 875 Z " />
<glyph glyph-name="IJ" unicode="&#x132;" horiz-adv-x="706" d="M237 693 L78 0 L32 0 L191 693 L237 693 Z M402 26 Q472 26 517 69.5 Q562 113 582 199 L695 693 L741 693 L626 193 Q603 92 546 40 Q489 -12 402 -12 Q311 -12 271 41.5 Q231 95 252 191 L260 227 L307 235 L299 197 Q281 112 307 69 Q333 26 402 26 Z " />
<glyph glyph-name="Kcommaaccent" unicode="&#x136;" horiz-adv-x="568" d="M356 430 L513 0 L464 0 L320 397 L121 221 L70 0 L24 0 L183 693 L229 693 L136 287 L138 287 L594 693 L652 693 L356 430 Z M257 -94 L197 -176 L167 -176 L215 -103 L185 -103 L200 -40 L270 -40 L257 -94 Z " />
<glyph glyph-name="Lacute" unicode="&#x139;" horiz-adv-x="467" d="M403 37 L395 0 L24 0 L183 693 L229 693 L78 37 L403 37 Z M326 875 L236 757 L195 757 L274 875 L326 875 Z " />
<glyph glyph-name="Lcaron" unicode="&#x13d;" horiz-adv-x="467" d="M403 37 L395 0 L24 0 L183 693 L229 693 L78 37 L403 37 Z M328 655 L280 550 L255 550 L288 693 L336 693 L328 655 Z " />
<glyph glyph-name="Lcommaaccent" unicode="&#x13b;" horiz-adv-x="467" d="M403 37 L395 0 L24 0 L183 693 L229 693 L78 37 L403 37 Z M213 -94 L153 -176 L123 -176 L171 -103 L141 -103 L156 -40 L226 -40 L213 -94 Z " />
<glyph glyph-name="Ldot" unicode="&#x13f;" horiz-adv-x="467" d="M403 37 L395 0 L24 0 L183 693 L229 693 L78 37 L403 37 Z " />
<glyph glyph-name="Eng" unicode="&#x14a;" horiz-adv-x="632" d="M312 -188 L318 -154 L320 -154 Q374 -154 401.5 -130.5 Q429 -107 441 -52 L448 -24 L216 639 L214 639 L66 0 L24 0 L183 693 L242 693 L463 65 L467 65 L612 693 L654 693 L483 -54 Q465 -129 430 -158.5 Q395 -188 312 -188 Z " />
<glyph glyph-name="Nacute" unicode="&#x143;" horiz-adv-x="632" d="M654 693 L495 0 L439 0 L216 639 L214 639 L66 0 L24 0 L183 693 L242 693 L463 65 L467 65 L612 693 L654 693 Z M538 875 L448 757 L407 757 L486 875 L538 875 Z " />
<glyph glyph-name="Ncaron" unicode="&#x147;" horiz-adv-x="632" d="M654 693 L495 0 L439 0 L216 639 L214 639 L66 0 L24 0 L183 693 L242 693 L463 65 L467 65 L612 693 L654 693 Z M562 875 L457 757 L405 757 L353 875 L389 875 L436 790 L524 875 L562 875 Z " />
<glyph glyph-name="Ncommaaccent" unicode="&#x145;" horiz-adv-x="632" d="M654 693 L495 0 L439 0 L216 639 L214 639 L66 0 L24 0 L183 693 L242 693 L463 65 L467 65 L612 693 L654 693 Z M285 -94 L225 -176 L195 -176 L243 -103 L213 -103 L228 -40 L298 -40 L285 -94 Z " />
<glyph glyph-name="Obreve" unicode="&#x14e;" horiz-adv-x="657" d="M142 348 Q109 205 150 115.5 Q191 26 297 26 Q404 26 486.5 115 Q569 204 602 348 Q635 491 594 579.5 Q553 668 446 668 Q339 668 257 579.5 Q175 491 142 348 Z M450 706 Q580 706 633 605 Q686 504 649 342 Q612 182 516 85 Q420 -12 293 -12 Q164 -12 111 89 Q58 190 96 354 Q132 514 227.5 610 Q323 706 450 706 Z M452 791 Q481 791 503.5 813.5 Q526 836 538 875 L575 875 Q560 820 526.5 788.5 Q493 757 449 757 Q403 757 381 789 Q359 821 368 875 L403 875 Q397 836 410 813.5 Q423 791 452 791 Z " />
<glyph glyph-name="Ohungarumlaut" unicode="&#x150;" horiz-adv-x="657" d="M142 348 Q109 205 150 115.5 Q191 26 297 26 Q404 26 486.5 115 Q569 204 602 348 Q635 491 594 579.5 Q553 668 446 668 Q339 668 257 579.5 Q175 491 142 348 Z M450 706 Q580 706 633 605 Q686 504 649 342 Q612 182 516 85 Q420 -12 293 -12 Q164 -12 111 89 Q58 190 96 354 Q132 514 227.5 610 Q323 706 450 706 Z M564 875 L499 757 L461 757 L517 875 L564 875 Z M472 875 L407 757 L368 757 L425 875 L472 875 Z " />
<glyph glyph-name="Omacron" unicode="&#x14c;" horiz-adv-x="657" d="M142 348 Q109 205 150 115.5 Q191 26 297 26 Q404 26 486.5 115 Q569 204 602 348 Q635 491 594 579.5 Q553 668 446 668 Q339 668 257 579.5 Q175 491 142 348 Z M450 706 Q580 706 633 605 Q686 504 649 342 Q612 182 516 85 Q420 -12 293 -12 Q164 -12 111 89 Q58 190 96 354 Q132 514 227.5 610 Q323 706 450 706 Z M558 818 L550 784 L341 784 L349 818 L558 818 Z " />
<glyph glyph-name="Racute" unicode="&#x154;" horiz-adv-x="581" d="M355 315 L504 0 L452 0 L309 310 L141 310 L70 0 L24 0 L183 693 L396 693 Q488 693 537 650 Q586 607 586 529 Q586 440 519.5 381 Q453 322 355 315 Z M221 656 L149 346 L318 346 Q416 346 478.5 396.5 Q541 447 541 529 Q541 590 501.5 623 Q462 656 387 656 L221 656 Z M507 875 L417 757 L376 757 L455 875 L507 875 Z " />
<glyph glyph-name="Rcaron" unicode="&#x158;" horiz-adv-x="581" d="M355 315 L504 0 L452 0 L309 310 L141 310 L70 0 L24 0 L183 693 L396 693 Q488 693 537 650 Q586 607 586 529 Q586 440 519.5 381 Q453 322 355 315 Z M221 656 L149 346 L318 346 Q416 346 478.5 396.5 Q541 447 541 529 Q541 590 501.5 623 Q462 656 387 656 L221 656 Z M531 875 L426 757 L374 757 L322 875 L358 875 L405 790 L493 875 L531 875 Z " />
<glyph glyph-name="Rcommaaccent" unicode="&#x156;" horiz-adv-x="581" d="M355 315 L504 0 L452 0 L309 310 L141 310 L70 0 L24 0 L183 693 L396 693 Q488 693 537 650 Q586 607 586 529 Q586 440 519.5 381 Q453 322 355 315 Z M221 656 L149 346 L318 346 Q416 346 478.5 396.5 Q541 447 541 529 Q541 590 501.5 623 Q462 656 387 656 L221 656 Z M256 -94 L196 -176 L166 -176 L214 -103 L184 -103 L199 -40 L269 -40 L256 -94 Z " />
<glyph glyph-name="Scaron" unicode="&#x160;" horiz-adv-x="557" d="M362 706 Q450 706 504.5 661 Q559 616 571 539 L525 531 Q516 593 470.5 630.5 Q425 668 357 668 Q279 668 225.5 626 Q172 584 172 519 Q172 488 185 464.5 Q198 441 226 422 Q241 412 262.5 402 Q284 392 332 375 Q389 354 415 341 Q441 328 460 314 Q490 290 504.5 259.5 Q519 229 519 189 Q519 99 451.5 43.5 Q384 -12 273 -12 Q174 -12 111 35.5 Q48 83 29 170 L77 183 Q93 108 145 67 Q197 26 277 26 Q363 26 417 69.5 Q471 113 471 182 Q471 215 457.5 240 Q444 265 416 285 Q399 297 376.5 307.5 Q354 318 304 337 Q249 357 224 369 Q199 381 181 395 Q151 417 137 446 Q123 475 123 512 Q123 597 191 651.5 Q259 706 362 706 Z M507 875 L402 757 L350 757 L298 875 L334 875 L381 790 L469 875 L507 875 Z " />
<glyph glyph-name="Sacute" unicode="&#x15a;" horiz-adv-x="557" d="M362 706 Q450 706 504.5 661 Q559 616 571 539 L525 531 Q516 593 470.5 630.5 Q425 668 357 668 Q279 668 225.5 626 Q172 584 172 519 Q172 488 185 464.5 Q198 441 226 422 Q241 412 262.5 402 Q284 392 332 375 Q389 354 415 341 Q441 328 460 314 Q490 290 504.5 259.5 Q519 229 519 189 Q519 99 451.5 43.5 Q384 -12 273 -12 Q174 -12 111 35.5 Q48 83 29 170 L77 183 Q93 108 145 67 Q197 26 277 26 Q363 26 417 69.5 Q471 113 471 182 Q471 215 457.5 240 Q444 265 416 285 Q399 297 376.5 307.5 Q354 318 304 337 Q249 357 224 369 Q199 381 181 395 Q151 417 137 446 Q123 475 123 512 Q123 597 191 651.5 Q259 706 362 706 Z M483 875 L393 757 L352 757 L431 875 L483 875 Z " />
<glyph glyph-name="Scedilla" unicode="&#x15e;" horiz-adv-x="557" d="M519 189 Q519 103 456.5 48 Q394 -7 291 -11 L233 -52 Q236 -51 239.5 -51 Q243 -51 250 -51 Q288 -51 308 -65 Q328 -79 326 -106 Q324 -146 287 -168.5 Q250 -191 195 -191 Q171 -191 148.5 -185.5 Q126 -180 113 -172 L123 -139 Q128 -142 138.5 -145.5 Q149 -149 164 -154 Q175 -157 186 -158.5 Q197 -160 207 -160 Q239 -160 261.5 -146.5 Q284 -133 285 -112 Q286 -98 273.5 -90.5 Q261 -83 236 -83 Q221 -83 205 -85.5 Q189 -88 175 -93 L172 -69 L251 -11 Q161 -6 104 41 Q47 88 29 170 L77 183 Q93 108 145 67 Q197 26 277 26 Q363 26 417 69.5 Q471 113 471 182 Q471 215 457.5 240 Q444 265 416 285 Q399 297 376.5 307.5 Q354 318 304 337 Q249 357 224 369 Q199 381 181 395 Q151 417 137 446 Q123 475 123 512 Q123 597 191 651.5 Q259 706 362 706 Q450 706 504.5 661 Q559 616 571 539 L525 531 Q516 593 470.5 630.5 Q425 668 357 668 Q279 668 225.5 626 Q172 584 172 519 Q172 488 185 464.5 Q198 441 226 422 Q241 412 262.5 402 Q284 392 332 375 Q389 354 415 341 Q441 328 460 314 Q490 290 504.5 259.5 Q519 229 519 189 Z " />
<glyph glyph-name="Scircumflex" unicode="&#x15c;" horiz-adv-x="557" d="M362 706 Q450 706 504.5 661 Q559 616 571 539 L525 531 Q516 593 470.5 630.5 Q425 668 357 668 Q279 668 225.5 626 Q172 584 172 519 Q172 488 185 464.5 Q198 441 226 422 Q241 412 262.5 402 Q284 392 332 375 Q389 354 415 341 Q441 328 460 314 Q490 290 504.5 259.5 Q519 229 519 189 Q519 99 451.5 43.5 Q384 -12 273 -12 Q174 -12 111 35.5 Q48 83 29 170 L77 183 Q93 108 145 67 Q197 26 277 26 Q363 26 417 69.5 Q471 113 471 182 Q471 215 457.5 240 Q444 265 416 285 Q399 297 376.5 307.5 Q354 318 304 337 Q249 357 224 369 Q199 381 181 395 Q151 417 137 446 Q123 475 123 512 Q123 597 191 651.5 Q259 706 362 706 Z M428 875 L479 757 L444 757 L397 842 L309 757 L271 757 L375 875 L428 875 Z " />
<glyph glyph-name="uni0218" unicode="&#x218;" horiz-adv-x="557" d="M362 706 Q450 706 504.5 661 Q559 616 571 539 L525 531 Q516 593 470.5 630.5 Q425 668 357 668 Q279 668 225.5 626 Q172 584 172 519 Q172 488 185 464.5 Q198 441 226 422 Q241 412 262.5 402 Q284 392 332 375 Q389 354 415 341 Q441 328 460 314 Q490 290 504.5 259.5 Q519 229 519 189 Q519 99 451.5 43.5 Q384 -12 273 -12 Q174 -12 111 35.5 Q48 83 29 170 L77 183 Q93 108 145 67 Q197 26 277 26 Q363 26 417 69.5 Q471 113 471 182 Q471 215 457.5 240 Q444 265 416 285 Q399 297 376.5 307.5 Q354 318 304 337 Q249 357 224 369 Q199 381 181 395 Q151 417 137 446 Q123 475 123 512 Q123 597 191 651.5 Q259 706 362 706 Z M279 -94 L219 -176 L189 -176 L237 -103 L207 -103 L222 -40 L292 -40 L279 -94 Z " />
<glyph glyph-name="Tbar" unicode="&#x166;" horiz-adv-x="520" d="M304 346 L225 0 L179 0 L258 346 L143 346 L152 383 L267 383 L330 656 L113 656 L121 693 L601 693 L593 656 L376 656 L313 383 L431 383 L422 346 L304 346 Z " />
<glyph glyph-name="Tcaron" unicode="&#x164;" horiz-adv-x="520" d="M376 656 L225 0 L179 0 L330 656 L113 656 L121 693 L601 693 L593 656 L376 656 Z M504 875 L399 757 L347 757 L295 875 L331 875 L378 790 L466 875 L504 875 Z " />
<glyph glyph-name="uni0162" unicode="&#x162;" horiz-adv-x="520" d="M376 656 L225 0 L179 0 L330 656 L113 656 L121 693 L601 693 L593 656 L376 656 Z M216 -94 L156 -176 L126 -176 L174 -103 L144 -103 L159 -40 L229 -40 L216 -94 Z " />
<glyph glyph-name="uni021A" unicode="&#x21a;" horiz-adv-x="520" d="M376 656 L225 0 L179 0 L330 656 L113 656 L121 693 L601 693 L593 656 L376 656 Z M216 -94 L156 -176 L126 -176 L174 -103 L144 -103 L159 -40 L229 -40 L216 -94 Z " />
<glyph glyph-name="Ubreve" unicode="&#x16c;" horiz-adv-x="632" d="M284 26 Q369 26 432.5 78.5 Q496 131 516 217 L625 693 L671 693 L560 212 Q536 109 460.5 48.5 Q385 -12 282 -12 Q174 -12 120 51.5 Q66 115 89 217 L198 693 L244 693 L134 211 Q115 129 157 77.5 Q199 26 284 26 Z M439 791 Q468 791 490.5 813.5 Q513 836 525 875 L562 875 Q547 820 513.5 788.5 Q480 757 436 757 Q390 757 368 789 Q346 821 355 875 L390 875 Q384 836 397 813.5 Q410 791 439 791 Z " />
<glyph glyph-name="Uhungarumlaut" unicode="&#x170;" horiz-adv-x="632" d="M284 26 Q369 26 432.5 78.5 Q496 131 516 217 L625 693 L671 693 L560 212 Q536 109 460.5 48.5 Q385 -12 282 -12 Q174 -12 120 51.5 Q66 115 89 217 L198 693 L244 693 L134 211 Q115 129 157 77.5 Q199 26 284 26 Z M551 875 L486 757 L448 757 L504 875 L551 875 Z M459 875 L394 757 L355 757 L412 875 L459 875 Z " />
<glyph glyph-name="Umacron" unicode="&#x16a;" horiz-adv-x="632" d="M284 26 Q369 26 432.5 78.5 Q496 131 516 217 L625 693 L671 693 L560 212 Q536 109 460.5 48.5 Q385 -12 282 -12 Q174 -12 120 51.5 Q66 115 89 217 L198 693 L244 693 L134 211 Q115 129 157 77.5 Q199 26 284 26 Z M545 818 L537 784 L328 784 L336 818 L545 818 Z " />
<glyph glyph-name="Uogonek" unicode="&#x172;" horiz-adv-x="632" d="M234 -154 Q244 -154 257.5 -152 Q271 -150 288 -146 L281 -177 Q267 -181 251.5 -183.5 Q236 -186 222 -186 Q188 -186 171.5 -170.5 Q155 -155 158 -128 Q159 -100 184 -70 Q209 -40 255 -11 Q159 -3 112.5 59.5 Q66 122 88 217 L197 693 L243 693 L133 211 Q114 129 156 77.5 Q198 26 283 26 Q368 26 431.5 78.5 Q495 131 515 217 L624 693 L670 693 L559 212 Q537 114 468 54.5 Q399 -5 303 -11 Q256 -41 227.5 -70.5 Q199 -100 198 -122 Q197 -137 206.5 -145.5 Q216 -154 234 -154 Z " />
<glyph glyph-name="Uring" unicode="&#x16e;" horiz-adv-x="632" d="M284 26 Q369 26 432.5 78.5 Q496 131 516 217 L625 693 L671 693 L560 212 Q536 109 460.5 48.5 Q385 -12 282 -12 Q174 -12 120 51.5 Q66 115 89 217 L198 693 L244 693 L134 211 Q115 129 157 77.5 Q199 26 284 26 Z M530 828 Q530 791 504.5 765 Q479 739 442 739 Q405 739 379 765 Q353 791 353 828 Q353 865 379 891 Q405 917 442 917 Q479 917 504.5 891 Q530 865 530 828 Z M384 828 Q384 802 400.5 785 Q417 768 442 768 Q467 768 483 785 Q499 802 499 828 Q499 854 483 871 Q467 888 442 888 Q416 888 400 871 Q384 854 384 828 Z " />
<glyph glyph-name="Utilde" unicode="&#x168;" horiz-adv-x="632" d="M284 26 Q369 26 432.5 78.5 Q496 131 516 217 L625 693 L671 693 L560 212 Q536 109 460.5 48.5 Q385 -12 282 -12 Q174 -12 120 51.5 Q66 115 89 217 L198 693 L244 693 L134 211 Q115 129 157 77.5 Q199 26 284 26 Z M493 799 Q507 799 517.5 812 Q528 825 533 846 L562 846 Q553 810 532 787.5 Q511 765 485 765 Q473 765 461 770.5 Q449 776 426 793 Q408 808 399 812 Q390 816 383 816 Q371 816 360.5 802.5 Q350 789 344 768 L314 768 Q322 803 344 826.5 Q366 850 391 850 Q403 850 416 844 Q429 838 453 820 Q471 807 479 803 Q487 799 493 799 Z " />
<glyph glyph-name="Wacute" unicode="&#x1e82;" horiz-adv-x="806" d="M904 693 L569 0 L506 0 L492 623 L488 623 L193 0 L133 0 L110 693 L154 693 L170 42 L172 42 L481 693 L529 693 L543 42 L545 42 L854 693 L904 693 Z M625 875 L535 757 L494 757 L573 875 L625 875 Z " />
<glyph glyph-name="Wcircumflex" unicode="&#x174;" horiz-adv-x="806" d="M904 693 L569 0 L506 0 L492 623 L488 623 L193 0 L133 0 L110 693 L154 693 L170 42 L172 42 L481 693 L529 693 L543 42 L545 42 L854 693 L904 693 Z M570 875 L621 757 L586 757 L539 842 L451 757 L413 757 L517 875 L570 875 Z " />
<glyph glyph-name="Wdieresis" unicode="&#x1e84;" horiz-adv-x="806" d="M904 693 L569 0 L506 0 L492 623 L488 623 L193 0 L133 0 L110 693 L154 693 L170 42 L172 42 L481 693 L529 693 L543 42 L545 42 L854 693 L904 693 Z M519 875 L498 781 L453 781 L474 875 L519 875 Z M633 875 L612 781 L567 781 L588 875 L633 875 Z " />
<glyph glyph-name="Wgrave" unicode="&#x1e80;" horiz-adv-x="806" d="M904 693 L569 0 L506 0 L492 623 L488 623 L193 0 L133 0 L110 693 L154 693 L170 42 L172 42 L481 693 L529 693 L543 42 L545 42 L854 693 L904 693 Z M489 875 L541 757 L503 757 L438 875 L489 875 Z " />
<glyph glyph-name="Ydieresis" unicode="&#x178;" horiz-adv-x="546" d="M306 295 L238 0 L192 0 L260 295 L117 693 L166 693 L291 340 L576 693 L631 693 L306 295 Z M383 875 L362 781 L317 781 L338 875 L383 875 Z M497 875 L476 781 L431 781 L452 875 L497 875 Z " />
<glyph glyph-name="Ycircumflex" unicode="&#x176;" horiz-adv-x="546" d="M306 295 L238 0 L192 0 L260 295 L117 693 L166 693 L291 340 L576 693 L631 693 L306 295 Z M434 875 L485 757 L450 757 L403 842 L315 757 L277 757 L381 875 L434 875 Z " />
<glyph glyph-name="Ygrave" unicode="&#x1ef2;" horiz-adv-x="546" d="M306 295 L238 0 L192 0 L260 295 L117 693 L166 693 L291 340 L576 693 L631 693 L306 295 Z M353 875 L405 757 L367 757 L302 875 L353 875 Z " />
<glyph glyph-name="Zcaron" unicode="&#x17d;" horiz-adv-x="510" d="M435 37 L427 0 L-31 0 L-21 45 L513 656 L130 656 L138 693 L578 693 L569 656 L29 37 L435 37 Z M498 875 L393 757 L341 757 L289 875 L325 875 L372 790 L460 875 L498 875 Z " />
<glyph glyph-name="Zacute" unicode="&#x179;" horiz-adv-x="510" d="M435 37 L427 0 L-31 0 L-21 45 L513 656 L130 656 L138 693 L578 693 L569 656 L29 37 L435 37 Z M474 875 L384 757 L343 757 L422 875 L474 875 Z " />
<glyph glyph-name="Zdotaccent" unicode="&#x17b;" horiz-adv-x="510" d="M435 37 L427 0 L-31 0 L-21 45 L513 656 L130 656 L138 693 L578 693 L569 656 L29 37 L435 37 Z M416 875 L395 781 L349 781 L370 875 L416 875 Z " />
<glyph glyph-name="abreve" unicode="&#x103;" horiz-adv-x="499" d="M456 352 L375 0 L332 0 L351 82 L349 82 Q307 32 260.5 10 Q214 -12 156 -12 Q80 -12 47.5 26 Q15 64 30 135 Q39 178 60.5 205 Q82 232 121 247 Q142 255 173 261.5 Q204 268 270 277 Q361 289 383 301.5 Q405 314 414 347 L415 351 Q430 414 405.5 444 Q381 474 315 474 Q257 474 217 449.5 Q177 425 144 368 L103 375 Q146 447 197 477.5 Q248 508 318 508 Q402 508 437.5 467 Q473 426 456 352 Z M165 21 Q244 21 301.5 68 Q359 115 377 193 L398 283 Q384 270 362 262.5 Q340 255 267 244 Q262 243 232 239 Q202 235 185 232 Q160 227 142.5 219.5 Q125 212 112 202 Q97 190 87 172.5 Q77 155 72 132 Q60 78 84 49.5 Q108 21 165 21 Z M338 609 Q367 609 389.5 631.5 Q412 654 424 693 L461 693 Q446 638 412.5 606.5 Q379 575 335 575 Q289 575 267 607 Q245 639 254 693 L289 693 Q283 654 296 631.5 Q309 609 338 609 Z " />
<glyph glyph-name="amacron" unicode="&#x101;" horiz-adv-x="499" d="M456 352 L375 0 L332 0 L351 82 L349 82 Q307 32 260.5 10 Q214 -12 156 -12 Q80 -12 47.5 26 Q15 64 30 135 Q39 178 60.5 205 Q82 232 121 247 Q142 255 173 261.5 Q204 268 270 277 Q361 289 383 301.5 Q405 314 414 347 L415 351 Q430 414 405.5 444 Q381 474 315 474 Q257 474 217 449.5 Q177 425 144 368 L103 375 Q146 447 197 477.5 Q248 508 318 508 Q402 508 437.5 467 Q473 426 456 352 Z M165 21 Q244 21 301.5 68 Q359 115 377 193 L398 283 Q384 270 362 262.5 Q340 255 267 244 Q262 243 232 239 Q202 235 185 232 Q160 227 142.5 219.5 Q125 212 112 202 Q97 190 87 172.5 Q77 155 72 132 Q60 78 84 49.5 Q108 21 165 21 Z M444 636 L436 602 L227 602 L235 636 L444 636 Z " />
<glyph glyph-name="aogonek" unicode="&#x105;" horiz-adv-x="499" d="M290 -154 Q300 -154 313.5 -152 Q327 -150 344 -146 L337 -177 Q323 -181 307.5 -183.5 Q292 -186 278 -186 Q244 -186 227.5 -170.5 Q211 -155 214 -128 Q215 -97 245.5 -64.5 Q276 -32 332 0 L351 82 L349 82 Q307 32 260.5 10 Q214 -12 156 -12 Q80 -12 47.5 26 Q15 64 30 135 Q39 178 60.5 205 Q82 232 121 247 Q142 255 173 261.5 Q204 268 270 277 Q361 289 383 301.5 Q405 314 414 347 L415 351 Q430 414 405.5 444 Q381 474 315 474 Q257 474 217 449.5 Q177 425 144 368 L103 375 Q146 447 197 477.5 Q248 508 318 508 Q402 508 437.5 467 Q473 426 456 352 L375 0 Q326 -27 290.5 -62 Q255 -97 254 -122 Q253 -137 262.5 -145.5 Q272 -154 290 -154 Z M165 21 Q244 21 301.5 68 Q359 115 377 193 L398 283 Q384 270 362 262.5 Q340 255 267 244 Q262 243 232 239 Q202 235 185 232 Q160 227 142.5 219.5 Q125 212 112 202 Q97 190 87 172.5 Q77 155 72 132 Q60 78 84 49.5 Q108 21 165 21 Z " />
<glyph glyph-name="cacute" unicode="&#x107;" horiz-adv-x="503" d="M226 22 Q278 22 323.5 54 Q369 86 403 147 L443 138 Q400 62 345.5 25 Q291 -12 222 -12 Q123 -12 81.5 61 Q40 134 68 254 Q94 369 165 438.5 Q236 508 330 508 Q397 508 436.5 472.5 Q476 437 486 369 L446 360 Q434 417 404 445.5 Q374 474 326 474 Q250 474 191.5 412 Q133 350 109 248 Q86 146 117.5 84 Q149 22 226 22 Z M434 710 L344 592 L303 592 L382 710 L434 710 Z " />
<glyph glyph-name="ccaron" unicode="&#x10d;" horiz-adv-x="503" d="M226 22 Q278 22 323.5 54 Q369 86 403 147 L443 138 Q400 62 345.5 25 Q291 -12 222 -12 Q123 -12 81.5 61 Q40 134 68 254 Q94 369 165 438.5 Q236 508 330 508 Q397 508 436.5 472.5 Q476 437 486 369 L446 360 Q434 417 404 445.5 Q374 474 326 474 Q250 474 191.5 412 Q133 350 109 248 Q86 146 117.5 84 Q149 22 226 22 Z M458 710 L353 592 L301 592 L249 710 L285 710 L332 625 L420 710 L458 710 Z " />
<glyph glyph-name="ccircumflex" unicode="&#x109;" horiz-adv-x="503" d="M226 22 Q278 22 323.5 54 Q369 86 403 147 L443 138 Q400 62 345.5 25 Q291 -12 222 -12 Q123 -12 81.5 61 Q40 134 68 254 Q94 369 165 438.5 Q236 508 330 508 Q397 508 436.5 472.5 Q476 437 486 369 L446 360 Q434 417 404 445.5 Q374 474 326 474 Q250 474 191.5 412 Q133 350 109 248 Q86 146 117.5 84 Q149 22 226 22 Z M379 710 L430 592 L395 592 L348 677 L260 592 L222 592 L326 710 L379 710 Z " />
<glyph glyph-name="cdotaccent" unicode="&#x10b;" horiz-adv-x="503" d="M226 22 Q278 22 323.5 54 Q369 86 403 147 L443 138 Q400 62 345.5 25 Q291 -12 222 -12 Q123 -12 81.5 61 Q40 134 68 254 Q94 369 165 438.5 Q236 508 330 508 Q397 508 436.5 472.5 Q476 437 486 369 L446 360 Q434 417 404 445.5 Q374 474 326 474 Q250 474 191.5 412 Q133 350 109 248 Q86 146 117.5 84 Q149 22 226 22 Z M376 710 L355 616 L309 616 L330 710 L376 710 Z " />
<glyph glyph-name="dcaron" unicode="&#x10f;" horiz-adv-x="525" d="M582 693 L423 0 L382 0 L405 102 L404 102 Q371 45 323.5 16.5 Q276 -12 215 -12 Q117 -12 78 59.5 Q39 131 67 253 Q94 371 163.5 439.5 Q233 508 328 508 Q387 508 422.5 479 Q458 450 470 393 L472 393 L540 693 L582 693 Z M109 248 Q85 142 114 82 Q143 22 223 22 Q302 22 358 82 Q414 142 439 248 Q463 353 434 413 Q405 473 326 473 Q247 473 190 413.5 Q133 354 109 248 Z M654 655 L606 550 L581 550 L614 693 L662 693 L654 655 Z " />
<glyph glyph-name="dslash" unicode="&#x111;" horiz-adv-x="541" d="M555 575 L423 0 L382 0 L405 102 L404 102 Q371 45 323.5 16.5 Q276 -12 215 -12 Q117 -12 78 59.5 Q39 131 67 253 Q94 371 163.5 439.5 Q233 508 328 508 Q387 508 422.5 479 Q458 450 470 393 L472 393 L513 575 L367 575 L374 608 L521 608 L540 693 L582 693 L563 608 L631 608 L624 575 L555 575 Z M109 248 Q85 142 114 82 Q143 22 223 22 Q302 22 358 82 Q414 142 439 248 Q463 353 434 413 Q405 473 326 473 Q247 473 190 413.5 Q133 354 109 248 Z " />
<glyph glyph-name="ebreve" unicode="&#x115;" horiz-adv-x="507" d="M224 22 Q278 22 323.5 53.5 Q369 85 404 147 L445 135 Q403 64 345.5 26 Q288 -12 220 -12 Q123 -12 81.5 61.5 Q40 135 68 255 Q94 368 165 438 Q236 508 329 508 Q405 508 445.5 458.5 Q486 409 481 322 Q481 303 479 284.5 Q477 266 473 249 L109 249 Q86 146 116.5 84 Q147 22 224 22 Z M325 474 Q254 474 199 422 Q144 370 117 280 L437 280 Q452 372 423 423 Q394 474 325 474 Z M340 626 Q369 626 391.5 648.5 Q414 671 426 710 L463 710 Q448 655 414.5 623.5 Q381 592 337 592 Q291 592 269 624 Q247 656 256 710 L291 710 Q285 671 298 648.5 Q311 626 340 626 Z " />
<glyph glyph-name="ecaron" unicode="&#x11b;" horiz-adv-x="507" d="M224 22 Q278 22 323.5 53.5 Q369 85 404 147 L445 135 Q403 64 345.5 26 Q288 -12 220 -12 Q123 -12 81.5 61.5 Q40 135 68 255 Q94 368 165 438 Q236 508 329 508 Q405 508 445.5 458.5 Q486 409 481 322 Q481 303 479 284.5 Q477 266 473 249 L109 249 Q86 146 116.5 84 Q147 22 224 22 Z M325 474 Q254 474 199 422 Q144 370 117 280 L437 280 Q452 372 423 423 Q394 474 325 474 Z M459 710 L354 592 L302 592 L250 710 L286 710 L333 625 L421 710 L459 710 Z " />
<glyph glyph-name="edotaccent" unicode="&#x117;" horiz-adv-x="507" d="M224 22 Q278 22 323.5 53.5 Q369 85 404 147 L445 135 Q403 64 345.5 26 Q288 -12 220 -12 Q123 -12 81.5 61.5 Q40 135 68 255 Q94 368 165 438 Q236 508 329 508 Q405 508 445.5 458.5 Q486 409 481 322 Q481 303 479 284.5 Q477 266 473 249 L109 249 Q86 146 116.5 84 Q147 22 224 22 Z M325 474 Q254 474 199 422 Q144 370 117 280 L437 280 Q452 372 423 423 Q394 474 325 474 Z M377 710 L356 616 L310 616 L331 710 L377 710 Z " />
<glyph glyph-name="emacron" unicode="&#x113;" horiz-adv-x="507" d="M224 22 Q278 22 323.5 53.5 Q369 85 404 147 L445 135 Q403 64 345.5 26 Q288 -12 220 -12 Q123 -12 81.5 61.5 Q40 135 68 255 Q94 368 165 438 Q236 508 329 508 Q405 508 445.5 458.5 Q486 409 481 322 Q481 303 479 284.5 Q477 266 473 249 L109 249 Q86 146 116.5 84 Q147 22 224 22 Z M325 474 Q254 474 199 422 Q144 370 117 280 L437 280 Q452 372 423 423 Q394 474 325 474 Z M446 653 L438 619 L229 619 L237 653 L446 653 Z " />
<glyph glyph-name="eogonek" unicode="&#x119;" horiz-adv-x="507" d="M232 -154 Q242 -154 255.5 -152 Q269 -150 286 -146 L279 -177 Q265 -181 249.5 -183.5 Q234 -186 220 -186 Q186 -186 169.5 -170.5 Q153 -155 156 -128 Q157 -100 182 -69.5 Q207 -39 255 -9 Q247 -10 238 -11 Q229 -12 220 -12 Q123 -12 81.5 61.5 Q40 135 68 255 Q94 368 165 438 Q236 508 329 508 Q405 508 445.5 458.5 Q486 409 481 322 Q481 303 479 284.5 Q477 266 473 249 L109 249 Q86 146 116.5 84 Q147 22 224 22 Q278 22 323.5 53.5 Q369 85 404 147 L445 135 Q422 95 392.5 65 Q363 35 329 16 Q283 -10 240 -53.5 Q197 -97 196 -122 Q195 -137 204.5 -145.5 Q214 -154 232 -154 Z M325 474 Q254 474 199 422 Q144 370 117 280 L437 280 Q452 372 423 423 Q394 474 325 474 Z " />
<glyph glyph-name="gbreve" unicode="&#x11f;" horiz-adv-x="478" d="M78 139 Q78 125 92.5 114.5 Q107 104 132 101 L279 84 Q340 77 371.5 50.5 Q403 24 403 -19 Q403 -99 329 -145 Q255 -191 147 -191 Q62 -191 9 -158.5 Q-44 -126 -44 -71 Q-44 -25 -11.5 12.5 Q21 50 81 73 Q81 74 81 74.5 Q81 75 81 75 Q61 83 51 99 Q41 115 41 139 Q41 168 60.5 190.5 Q80 213 118 227 Q104 243 96.5 263 Q89 283 89 307 Q89 392 152 450 Q215 508 301 508 Q332 508 357.5 499 Q383 490 402 471 Q438 520 468.5 538 Q499 556 554 556 L545 516 Q499 516 474.5 503.5 Q450 491 420 451 Q429 436 434 417 Q439 398 439 377 Q439 295 377.5 239.5 Q316 184 230 184 Q202 184 178.5 191 Q155 198 136 211 Q107 199 92.5 181 Q78 163 78 139 Z M360 -24 Q360 5 339 21.5 Q318 38 269 45 L117 64 Q62 45 29.5 10 Q-3 -25 -3 -68 Q-3 -111 37 -135 Q77 -159 148 -159 Q239 -159 299.5 -123 Q360 -87 360 -24 Z M234 217 Q296 217 340.5 254 Q385 291 396 350 Q397 355 397.5 360.5 Q398 366 398 377 Q398 422 371.5 448 Q345 474 297 474 Q230 474 179 426 Q128 378 128 315 Q128 268 155.5 242.5 Q183 217 234 217 Z M330 609 Q359 609 381.5 631.5 Q404 654 416 693 L453 693 Q438 638 404.5 606.5 Q371 575 327 575 Q281 575 259 607 Q237 639 246 693 L281 693 Q275 654 288 631.5 Q301 609 330 609 Z " />
<glyph glyph-name="gcircumflex" unicode="&#x11d;" horiz-adv-x="478" d="M78 139 Q78 125 92.5 114.5 Q107 104 132 101 L279 84 Q340 77 371.5 50.5 Q403 24 403 -19 Q403 -99 329 -145 Q255 -191 147 -191 Q62 -191 9 -158.5 Q-44 -126 -44 -71 Q-44 -25 -11.5 12.5 Q21 50 81 73 Q81 74 81 74.5 Q81 75 81 75 Q61 83 51 99 Q41 115 41 139 Q41 168 60.5 190.5 Q80 213 118 227 Q104 243 96.5 263 Q89 283 89 307 Q89 392 152 450 Q215 508 301 508 Q332 508 357.5 499 Q383 490 402 471 Q438 520 468.5 538 Q499 556 554 556 L545 516 Q499 516 474.5 503.5 Q450 491 420 451 Q429 436 434 417 Q439 398 439 377 Q439 295 377.5 239.5 Q316 184 230 184 Q202 184 178.5 191 Q155 198 136 211 Q107 199 92.5 181 Q78 163 78 139 Z M360 -24 Q360 5 339 21.5 Q318 38 269 45 L117 64 Q62 45 29.5 10 Q-3 -25 -3 -68 Q-3 -111 37 -135 Q77 -159 148 -159 Q239 -159 299.5 -123 Q360 -87 360 -24 Z M234 217 Q296 217 340.5 254 Q385 291 396 350 Q397 355 397.5 360.5 Q398 366 398 377 Q398 422 371.5 448 Q345 474 297 474 Q230 474 179 426 Q128 378 128 315 Q128 268 155.5 242.5 Q183 217 234 217 Z M370 693 L421 575 L386 575 L339 660 L251 575 L213 575 L317 693 L370 693 Z " />
<glyph glyph-name="gcommaaccent" unicode="&#x123;" horiz-adv-x="478" d="M78 139 Q78 125 92.5 114.5 Q107 104 132 101 L279 84 Q340 77 371.5 50.5 Q403 24 403 -19 Q403 -99 329 -145 Q255 -191 147 -191 Q62 -191 9 -158.5 Q-44 -126 -44 -71 Q-44 -25 -11.5 12.5 Q21 50 81 73 Q81 74 81 74.5 Q81 75 81 75 Q61 83 51 99 Q41 115 41 139 Q41 168 60.5 190.5 Q80 213 118 227 Q104 243 96.5 263 Q89 283 89 307 Q89 392 152 450 Q215 508 301 508 Q332 508 357.5 499 Q383 490 402 471 Q438 520 468.5 538 Q499 556 554 556 L545 516 Q499 516 474.5 503.5 Q450 491 420 451 Q429 436 434 417 Q439 398 439 377 Q439 295 377.5 239.5 Q316 184 230 184 Q202 184 178.5 191 Q155 198 136 211 Q107 199 92.5 181 Q78 163 78 139 Z M360 -24 Q360 5 339 21.5 Q318 38 269 45 L117 64 Q62 45 29.5 10 Q-3 -25 -3 -68 Q-3 -111 37 -135 Q77 -159 148 -159 Q239 -159 299.5 -123 Q360 -87 360 -24 Z M234 217 Q296 217 340.5 254 Q385 291 396 350 Q397 355 397.5 360.5 Q398 366 398 377 Q398 422 371.5 448 Q345 474 297 474 Q230 474 179 426 Q128 378 128 315 Q128 268 155.5 242.5 Q183 217 234 217 Z M359 627 L344 564 L274 564 L287 618 L347 700 L376 700 L329 627 L359 627 Z " />
<glyph glyph-name="gdotaccent" unicode="&#x121;" horiz-adv-x="478" d="M78 139 Q78 125 92.5 114.5 Q107 104 132 101 L279 84 Q340 77 371.5 50.5 Q403 24 403 -19 Q403 -99 329 -145 Q255 -191 147 -191 Q62 -191 9 -158.5 Q-44 -126 -44 -71 Q-44 -25 -11.5 12.5 Q21 50 81 73 Q81 74 81 74.5 Q81 75 81 75 Q61 83 51 99 Q41 115 41 139 Q41 168 60.5 190.5 Q80 213 118 227 Q104 243 96.5 263 Q89 283 89 307 Q89 392 152 450 Q215 508 301 508 Q332 508 357.5 499 Q383 490 402 471 Q438 520 468.5 538 Q499 556 554 556 L545 516 Q499 516 474.5 503.5 Q450 491 420 451 Q429 436 434 417 Q439 398 439 377 Q439 295 377.5 239.5 Q316 184 230 184 Q202 184 178.5 191 Q155 198 136 211 Q107 199 92.5 181 Q78 163 78 139 Z M360 -24 Q360 5 339 21.5 Q318 38 269 45 L117 64 Q62 45 29.5 10 Q-3 -25 -3 -68 Q-3 -111 37 -135 Q77 -159 148 -159 Q239 -159 299.5 -123 Q360 -87 360 -24 Z M234 217 Q296 217 340.5 254 Q385 291 396 350 Q397 355 397.5 360.5 Q398 366 398 377 Q398 422 371.5 448 Q345 474 297 474 Q230 474 179 426 Q128 378 128 315 Q128 268 155.5 242.5 Q183 217 234 217 Z M367 693 L346 599 L300 599 L321 693 L367 693 Z " />
<glyph glyph-name="hbar" unicode="&#x127;" horiz-adv-x="510" d="M459 370 L374 0 L332 0 L417 368 Q429 418 415.5 445.5 Q402 473 367 473 Q343 473 312 459 Q281 445 237 414 L139 344 L60 0 L18 0 L149 575 L90 575 L97 608 L157 608 L177 693 L219 693 L199 608 L354 608 L347 575 L191 575 L149 390 L219 440 Q276 480 309.5 494 Q343 508 375 508 Q430 508 452 472 Q474 436 459 370 Z " />
<glyph glyph-name="hcircumflex" unicode="&#x125;" horiz-adv-x="510" d="M459 370 L374 0 L332 0 L417 368 Q429 418 415.5 445.5 Q402 473 367 473 Q343 473 312 459 Q281 445 237 414 L139 344 L60 0 L18 0 L177 693 L219 693 L149 390 L219 440 Q276 480 309.5 494 Q343 508 375 508 Q430 508 452 472 Q474 436 459 370 Z M262 875 L313 757 L278 757 L231 842 L143 757 L105 757 L209 875 L262 875 Z " />
<glyph glyph-name="ibreve" unicode="&#x12d;" horiz-adv-x="206" d="M181 496 L67 0 L25 0 L139 496 L181 496 Z M191 609 Q220 609 242.5 631.5 Q265 654 277 693 L314 693 Q299 638 265.5 606.5 Q232 575 188 575 Q142 575 120 607 Q98 639 107 693 L142 693 Q136 654 149 631.5 Q162 609 191 609 Z " />
<glyph glyph-name="i.dot" unicode="&#xe166;" horiz-adv-x="206" d="M227 693 L206 599 L160 599 L181 693 L227 693 Z M180 496 L66 0 L24 0 L138 496 L180 496 Z " />
<glyph glyph-name="imacron" unicode="&#x12b;" horiz-adv-x="206" d="M181 496 L67 0 L25 0 L139 496 L181 496 Z M297 636 L289 602 L80 602 L88 636 L297 636 Z " />
<glyph glyph-name="iogonek" unicode="&#x12f;" horiz-adv-x="206" d="M230 693 L209 599 L163 599 L184 693 L230 693 Z M-14 -154 Q-4 -154 9.5 -152 Q23 -150 40 -146 L33 -177 Q19 -181 3.5 -183.5 Q-12 -186 -26 -186 Q-60 -186 -76.5 -170.5 Q-93 -155 -90 -128 Q-89 -97 -58.5 -64 Q-28 -31 27 0 L141 496 L183 496 L69 0 Q21 -27 -14 -62 Q-49 -97 -50 -122 Q-51 -137 -41.5 -145.5 Q-32 -154 -14 -154 Z " />
<glyph glyph-name="itilde" unicode="&#x129;" horiz-adv-x="206" d="M181 496 L67 0 L25 0 L139 496 L181 496 Z M245 617 Q259 617 269.5 630 Q280 643 285 664 L314 664 Q305 628 284 605.5 Q263 583 237 583 Q225 583 213 588.5 Q201 594 178 611 Q160 626 151 630 Q142 634 135 634 Q123 634 112.5 620.5 Q102 607 96 586 L66 586 Q74 621 96 644.5 Q118 668 143 668 Q155 668 168 662 Q181 656 205 638 Q223 625 231 621 Q239 617 245 617 Z " />
<glyph glyph-name="jcircumflex" unicode="&#x135;" horiz-adv-x="202" d="M-114 -188 L-123 -188 L-115 -154 Q-55 -154 -29 -129 Q-3 -104 14 -34 L136 496 L178 496 L51 -54 Q34 -128 -1 -158 Q-36 -188 -114 -188 Z M230 693 L281 575 L246 575 L199 660 L111 575 L73 575 L177 693 L230 693 Z " />
<glyph glyph-name="ij" unicode="&#x133;" horiz-adv-x="408" d="M227 693 L206 599 L160 599 L181 693 L227 693 Z M180 496 L66 0 L24 0 L138 496 L180 496 Z M92 -188 L83 -188 L91 -154 Q151 -154 177 -129 Q203 -104 220 -34 L342 496 L384 496 L257 -54 Q240 -128 205 -158 Q170 -188 92 -188 Z M431 693 L410 599 L364 599 L385 693 L431 693 Z " />
<glyph glyph-name="kgreenlandic" unicode="&#x138;" horiz-adv-x="465" d="M269 313 L404 0 L356 0 L237 284 L99 170 L60 0 L18 0 L132 496 L174 496 L112 227 L114 227 L433 496 L490 496 L269 313 Z " />
<glyph glyph-name="kcommaaccent" unicode="&#x137;" horiz-adv-x="465" d="M269 313 L404 0 L356 0 L237 284 L99 170 L60 0 L18 0 L177 693 L219 693 L112 227 L114 227 L433 496 L490 496 L269 313 Z M211 -94 L151 -176 L121 -176 L169 -103 L139 -103 L154 -40 L224 -40 L211 -94 Z " />
<glyph glyph-name="lacute" unicode="&#x13a;" horiz-adv-x="206" d="M225 693 L66 0 L24 0 L183 693 L225 693 Z M326 875 L236 757 L195 757 L274 875 L326 875 Z " />
<glyph glyph-name="lcaron" unicode="&#x13e;" horiz-adv-x="176" d="M225 693 L66 0 L24 0 L183 693 L225 693 Z M305 655 L257 550 L232 550 L265 693 L313 693 L305 655 Z " />
<glyph glyph-name="lcommaaccent" unicode="&#x13c;" horiz-adv-x="206" d="M225 693 L66 0 L24 0 L183 693 L225 693 Z M76 -94 L16 -176 L-14 -176 L34 -103 L4 -103 L19 -40 L89 -40 L76 -94 Z " />
<glyph glyph-name="ldot" unicode="&#x140;" horiz-adv-x="242" d="M225 693 L66 0 L24 0 L183 693 L225 693 Z " />
<glyph glyph-name="eng" unicode="&#x14b;" horiz-adv-x="508" d="M196 -188 L187 -188 L195 -154 Q253 -154 280 -131 Q307 -108 320 -52 L417 368 Q429 419 415.5 446 Q402 473 366 473 Q341 473 311 459.5 Q281 446 237 414 L139 344 L60 0 L18 0 L132 496 L173 496 L149 390 L219 440 Q278 481 310.5 494.5 Q343 508 374 508 Q429 508 451.5 472 Q474 436 459 370 L361 -54 Q344 -128 309 -158 Q274 -188 196 -188 Z " />
<glyph glyph-name="napostrophe" unicode="&#x149;" horiz-adv-x="508" d="M459 370 L374 0 L332 0 L417 368 Q429 419 415.5 446 Q402 473 366 473 Q341 473 311 459.5 Q281 446 237 414 L139 344 L60 0 L18 0 L132 496 L173 496 L149 390 L219 440 Q278 481 310.5 494.5 Q343 508 374 508 Q429 508 451.5 472 Q474 436 459 370 Z M223 656 L163 574 L133 574 L181 647 L151 647 L166 710 L236 710 L223 656 Z " />
<glyph glyph-name="nacute" unicode="&#x144;" horiz-adv-x="508" d="M459 370 L374 0 L332 0 L417 368 Q429 419 415.5 446 Q402 473 366 473 Q341 473 311 459.5 Q281 446 237 414 L139 344 L60 0 L18 0 L132 496 L173 496 L149 390 L219 440 Q278 481 310.5 494.5 Q343 508 374 508 Q429 508 451.5 472 Q474 436 459 370 Z M434 710 L344 592 L303 592 L382 710 L434 710 Z " />
<glyph glyph-name="ncaron" unicode="&#x148;" horiz-adv-x="508" d="M459 370 L374 0 L332 0 L417 368 Q429 419 415.5 446 Q402 473 366 473 Q341 473 311 459.5 Q281 446 237 414 L139 344 L60 0 L18 0 L132 496 L173 496 L149 390 L219 440 Q278 481 310.5 494.5 Q343 508 374 508 Q429 508 451.5 472 Q474 436 459 370 Z M458 710 L353 592 L301 592 L249 710 L285 710 L332 625 L420 710 L458 710 Z " />
<glyph glyph-name="ncommaaccent" unicode="&#x146;" horiz-adv-x="508" d="M459 370 L374 0 L332 0 L417 368 Q429 419 415.5 446 Q402 473 366 473 Q341 473 311 459.5 Q281 446 237 414 L139 344 L60 0 L18 0 L132 496 L173 496 L149 390 L219 440 Q278 481 310.5 494.5 Q343 508 374 508 Q429 508 451.5 472 Q474 436 459 370 Z M227 -94 L167 -176 L137 -176 L185 -103 L155 -103 L170 -40 L240 -40 L227 -94 Z " />
<glyph glyph-name="obreve" unicode="&#x14f;" horiz-adv-x="529" d="M336 508 Q437 508 479 435 Q521 362 493 242 Q467 126 394.5 57 Q322 -12 223 -12 Q122 -12 81 61 Q40 134 68 253 Q95 370 166.5 439 Q238 508 336 508 Z M109 248 Q85 143 116 82.5 Q147 22 228 22 Q310 22 368.5 82.5 Q427 143 451 248 Q475 353 444 413.5 Q413 474 332 474 Q250 474 191.5 413.5 Q133 353 109 248 Z M345 609 Q374 609 396.5 631.5 Q419 654 431 693 L468 693 Q453 638 419.5 606.5 Q386 575 342 575 Q296 575 274 607 Q252 639 261 693 L296 693 Q290 654 303 631.5 Q316 609 345 609 Z " />
<glyph glyph-name="ohungarumlaut" unicode="&#x151;" horiz-adv-x="529" d="M336 508 Q437 508 479 435 Q521 362 493 242 Q467 126 394.5 57 Q322 -12 223 -12 Q122 -12 81 61 Q40 134 68 253 Q95 370 166.5 439 Q238 508 336 508 Z M109 248 Q85 143 116 82.5 Q147 22 228 22 Q310 22 368.5 82.5 Q427 143 451 248 Q475 353 444 413.5 Q413 474 332 474 Q250 474 191.5 413.5 Q133 353 109 248 Z M457 693 L392 575 L354 575 L410 693 L457 693 Z M365 693 L300 575 L261 575 L318 693 L365 693 Z " />
<glyph glyph-name="omacron" unicode="&#x14d;" horiz-adv-x="529" d="M336 508 Q437 508 479 435 Q521 362 493 242 Q467 126 394.5 57 Q322 -12 223 -12 Q122 -12 81 61 Q40 134 68 253 Q95 370 166.5 439 Q238 508 336 508 Z M109 248 Q85 143 116 82.5 Q147 22 228 22 Q310 22 368.5 82.5 Q427 143 451 248 Q475 353 444 413.5 Q413 474 332 474 Q250 474 191.5 413.5 Q133 353 109 248 Z M451 636 L443 602 L234 602 L242 636 L451 636 Z " />
<glyph glyph-name="racute" unicode="&#x155;" horiz-adv-x="346" d="M139 344 L60 0 L18 0 L132 496 L173 496 L146 383 L249 457 Q285 483 314.5 495 Q344 507 371 507 Q375 507 378.5 507 Q382 507 385 507 L375 462 Q373 462 371.5 462 Q370 462 368 462 Q333 462 300.5 449 Q268 436 225 405 L139 344 Z M376 710 L286 592 L245 592 L324 710 L376 710 Z " />
<glyph glyph-name="rcaron" unicode="&#x159;" horiz-adv-x="346" d="M139 344 L60 0 L18 0 L132 496 L173 496 L146 383 L249 457 Q285 483 314.5 495 Q344 507 371 507 Q375 507 378.5 507 Q382 507 385 507 L375 462 Q373 462 371.5 462 Q370 462 368 462 Q333 462 300.5 449 Q268 436 225 405 L139 344 Z M400 710 L295 592 L243 592 L191 710 L227 710 L274 625 L362 710 L400 710 Z " />
<glyph glyph-name="rcommaaccent" unicode="&#x157;" horiz-adv-x="346" d="M139 344 L60 0 L18 0 L132 496 L173 496 L146 383 L249 457 Q285 483 314.5 495 Q344 507 371 507 Q375 507 378.5 507 Q382 507 385 507 L375 462 Q373 462 371.5 462 Q370 462 368 462 Q333 462 300.5 449 Q268 436 225 405 L139 344 Z M52 -94 L-8 -176 L-38 -176 L10 -103 L-20 -103 L-5 -40 L65 -40 L52 -94 Z " />
<glyph glyph-name="scaron" unicode="&#x161;" horiz-adv-x="464" d="M263 508 Q335 508 380.5 477.5 Q426 447 440 390 L398 379 Q385 425 349 449.5 Q313 474 259 474 Q197 474 157 446 Q117 418 117 373 Q117 340 141.5 318.5 Q166 297 247 275 Q293 263 315 254.5 Q337 246 352 236 Q379 219 391.5 195.5 Q404 172 404 141 Q404 72 348 30 Q292 -12 201 -12 Q118 -12 67 25 Q16 62 5 131 L48 139 Q60 82 100 52 Q140 22 205 22 Q273 22 316.5 54 Q360 86 360 137 Q360 173 334.5 196 Q309 219 226 242 Q181 254 160.5 262 Q140 270 125 279 Q99 295 87 317 Q75 339 75 368 Q75 430 127.5 469 Q180 508 263 508 Z M409 693 L304 575 L252 575 L200 693 L236 693 L283 608 L371 693 L409 693 Z " />
<glyph glyph-name="sacute" unicode="&#x15b;" horiz-adv-x="464" d="M263 508 Q335 508 380.5 477.5 Q426 447 440 390 L398 379 Q385 425 349 449.5 Q313 474 259 474 Q197 474 157 446 Q117 418 117 373 Q117 340 141.5 318.5 Q166 297 247 275 Q293 263 315 254.5 Q337 246 352 236 Q379 219 391.5 195.5 Q404 172 404 141 Q404 72 348 30 Q292 -12 201 -12 Q118 -12 67 25 Q16 62 5 131 L48 139 Q60 82 100 52 Q140 22 205 22 Q273 22 316.5 54 Q360 86 360 137 Q360 173 334.5 196 Q309 219 226 242 Q181 254 160.5 262 Q140 270 125 279 Q99 295 87 317 Q75 339 75 368 Q75 430 127.5 469 Q180 508 263 508 Z M385 693 L295 575 L254 575 L333 693 L385 693 Z " />
<glyph glyph-name="scedilla" unicode="&#x15f;" horiz-adv-x="464" d="M404 141 Q404 78 355 36.5 Q306 -5 224 -11 L165 -52 Q168 -51 171.5 -51 Q175 -51 182 -51 Q220 -51 240 -65 Q260 -79 258 -106 Q256 -146 219 -168.5 Q182 -191 127 -191 Q103 -191 80.5 -185.5 Q58 -180 45 -172 L55 -139 Q60 -142 70.5 -145.5 Q81 -149 96 -154 Q107 -157 118 -158.5 Q129 -160 139 -160 Q171 -160 193.5 -146.5 Q216 -133 217 -112 Q218 -98 205.5 -90.5 Q193 -83 168 -83 Q153 -83 137 -85.5 Q121 -88 107 -93 L104 -69 L183 -11 Q107 -7 61 29.5 Q15 66 5 131 L48 139 Q60 82 100 52 Q140 22 205 22 Q273 22 316.5 54 Q360 86 360 137 Q360 173 334.5 196 Q309 219 226 242 Q181 254 160.5 262 Q140 270 125 279 Q99 295 87 317 Q75 339 75 368 Q75 430 127.5 469 Q180 508 263 508 Q335 508 380.5 477.5 Q426 447 440 390 L398 379 Q385 425 349 449.5 Q313 474 259 474 Q197 474 157 446 Q117 418 117 373 Q117 340 141.5 318.5 Q166 297 247 275 Q293 263 315 254.5 Q337 246 352 236 Q379 219 391.5 195.5 Q404 172 404 141 Z " />
<glyph glyph-name="scircumflex" unicode="&#x15d;" horiz-adv-x="464" d="M263 508 Q335 508 380.5 477.5 Q426 447 440 390 L398 379 Q385 425 349 449.5 Q313 474 259 474 Q197 474 157 446 Q117 418 117 373 Q117 340 141.5 318.5 Q166 297 247 275 Q293 263 315 254.5 Q337 246 352 236 Q379 219 391.5 195.5 Q404 172 404 141 Q404 72 348 30 Q292 -12 201 -12 Q118 -12 67 25 Q16 62 5 131 L48 139 Q60 82 100 52 Q140 22 205 22 Q273 22 316.5 54 Q360 86 360 137 Q360 173 334.5 196 Q309 219 226 242 Q181 254 160.5 262 Q140 270 125 279 Q99 295 87 317 Q75 339 75 368 Q75 430 127.5 469 Q180 508 263 508 Z M330 693 L381 575 L346 575 L299 660 L211 575 L173 575 L277 693 L330 693 Z " />
<glyph glyph-name="uni0219" unicode="&#x219;" horiz-adv-x="464" d="M263 508 Q335 508 380.5 477.5 Q426 447 440 390 L398 379 Q385 425 349 449.5 Q313 474 259 474 Q197 474 157 446 Q117 418 117 373 Q117 340 141.5 318.5 Q166 297 247 275 Q293 263 315 254.5 Q337 246 352 236 Q379 219 391.5 195.5 Q404 172 404 141 Q404 72 348 30 Q292 -12 201 -12 Q118 -12 67 25 Q16 62 5 131 L48 139 Q60 82 100 52 Q140 22 205 22 Q273 22 316.5 54 Q360 86 360 137 Q360 173 334.5 196 Q309 219 226 242 Q181 254 160.5 262 Q140 270 125 279 Q99 295 87 317 Q75 339 75 368 Q75 430 127.5 469 Q180 508 263 508 Z M199 -94 L139 -176 L109 -176 L157 -103 L127 -103 L142 -40 L212 -40 L199 -94 Z " />
<glyph glyph-name="tbar" unicode="&#x167;" horiz-adv-x="333" d="M199 25 Q214 25 230 27 Q246 29 259 33 L251 -3 Q238 -6 223 -7.5 Q208 -9 193 -9 Q120 -9 94 26.5 Q68 62 86 139 L114 261 L22 261 L30 296 L122 296 L160 461 L68 461 L76 496 L168 496 L200 637 L242 637 L210 496 L367 496 L359 461 L202 461 L163 296 L322 296 L315 261 L155 261 L125 127 Q113 75 131 50 Q149 25 199 25 Z " />
<glyph glyph-name="tcaron" unicode="&#x165;" horiz-adv-x="333" d="M199 25 Q214 25 230 27 Q246 29 259 33 L251 -3 Q238 -6 223 -7.5 Q208 -9 193 -9 Q120 -9 94 26.5 Q68 62 86 139 L160 461 L68 461 L76 496 L168 496 L200 637 L242 637 L210 496 L367 496 L359 461 L202 461 L125 127 Q113 75 131 50 Q149 25 199 25 Z M382 639 L322 557 L292 557 L340 630 L310 630 L325 693 L395 693 L382 639 Z " />
<glyph glyph-name="uni0163" unicode="&#x163;" horiz-adv-x="333" d="M199 25 Q214 25 230 27 Q246 29 259 33 L251 -3 Q238 -6 223 -7.5 Q208 -9 193 -9 Q120 -9 94 26.5 Q68 62 86 139 L160 461 L68 461 L76 496 L168 496 L200 637 L242 637 L210 496 L367 496 L359 461 L202 461 L125 127 Q113 75 131 50 Q149 25 199 25 Z M132 -94 L72 -176 L42 -176 L90 -103 L60 -103 L75 -40 L145 -40 L132 -94 Z " />
<glyph glyph-name="uni021B" unicode="&#x21b;" horiz-adv-x="333" d="M199 25 Q214 25 230 27 Q246 29 259 33 L251 -3 Q238 -6 223 -7.5 Q208 -9 193 -9 Q120 -9 94 26.5 Q68 62 86 139 L160 461 L68 461 L76 496 L168 496 L200 637 L242 637 L210 496 L367 496 L359 461 L202 461 L125 127 Q113 75 131 50 Q149 25 199 25 Z M132 -94 L72 -176 L42 -176 L90 -103 L60 -103 L75 -40 L145 -40 L132 -94 Z " />
<glyph glyph-name="ubreve" unicode="&#x16d;" horiz-adv-x="508" d="M497 496 L382 0 L341 0 L367 111 Q311 59 247 23.5 Q183 -12 141 -12 Q85 -12 63 24 Q41 60 56 126 L141 496 L183 496 L98 128 Q89 90 94.5 65.5 Q100 41 119 31 Q126 27 136 25.5 Q146 24 160 25 Q184 28 213 42.5 Q242 57 290 91 L376 151 L455 496 L497 496 Z M356 626 Q385 626 407.5 648.5 Q430 671 442 710 L479 710 Q464 655 430.5 623.5 Q397 592 353 592 Q307 592 285 624 Q263 656 272 710 L307 710 Q301 671 314 648.5 Q327 626 356 626 Z " />
<glyph glyph-name="uhungarumlaut" unicode="&#x171;" horiz-adv-x="508" d="M497 496 L382 0 L341 0 L367 111 Q311 59 247 23.5 Q183 -12 141 -12 Q85 -12 63 24 Q41 60 56 126 L141 496 L183 496 L98 128 Q89 90 94.5 65.5 Q100 41 119 31 Q126 27 136 25.5 Q146 24 160 25 Q184 28 213 42.5 Q242 57 290 91 L376 151 L455 496 L497 496 Z M468 710 L403 592 L365 592 L421 710 L468 710 Z M376 710 L311 592 L272 592 L329 710 L376 710 Z " />
<glyph glyph-name="umacron" unicode="&#x16b;" horiz-adv-x="508" d="M497 496 L382 0 L341 0 L367 111 Q311 59 247 23.5 Q183 -12 141 -12 Q85 -12 63 24 Q41 60 56 126 L141 496 L183 496 L98 128 Q89 90 94.5 65.5 Q100 41 119 31 Q126 27 136 25.5 Q146 24 160 25 Q184 28 213 42.5 Q242 57 290 91 L376 151 L455 496 L497 496 Z M462 653 L454 619 L245 619 L253 653 L462 653 Z " />
<glyph glyph-name="uogonek" unicode="&#x173;" horiz-adv-x="508" d="M299 -154 Q309 -154 322.5 -152 Q336 -150 353 -146 L346 -177 Q332 -181 316.5 -183.5 Q301 -186 287 -186 Q253 -186 236.5 -170.5 Q220 -155 223 -128 Q224 -97 254.5 -64.5 Q285 -32 341 0 L367 111 Q311 59 247 23.5 Q183 -12 141 -12 Q85 -12 63 24 Q41 60 56 126 L141 496 L183 496 L98 128 Q89 90 94.5 65.5 Q100 41 119 31 Q126 27 136 25.5 Q146 24 160 25 Q184 28 213 42.5 Q242 57 290 91 L376 151 L455 496 L497 496 L382 0 Q334 -27 299 -62 Q264 -97 263 -122 Q262 -137 271.5 -145.5 Q281 -154 299 -154 Z " />
<glyph glyph-name="uring" unicode="&#x16f;" horiz-adv-x="508" d="M497 496 L382 0 L341 0 L367 111 Q311 59 247 23.5 Q183 -12 141 -12 Q85 -12 63 24 Q41 60 56 126 L141 496 L183 496 L98 128 Q89 90 94.5 65.5 Q100 41 119 31 Q126 27 136 25.5 Q146 24 160 25 Q184 28 213 42.5 Q242 57 290 91 L376 151 L455 496 L497 496 Z M447 663 Q447 626 421.5 600 Q396 574 359 574 Q322 574 296 600 Q270 626 270 663 Q270 700 296 726 Q322 752 359 752 Q396 752 421.5 726 Q447 700 447 663 Z M301 663 Q301 637 317.5 620 Q334 603 359 603 Q384 603 400 620 Q416 637 416 663 Q416 689 400 706 Q384 723 359 723 Q333 723 317 706 Q301 689 301 663 Z " />
<glyph glyph-name="utilde" unicode="&#x169;" horiz-adv-x="508" d="M497 496 L382 0 L341 0 L367 111 Q311 59 247 23.5 Q183 -12 141 -12 Q85 -12 63 24 Q41 60 56 126 L141 496 L183 496 L98 128 Q89 90 94.5 65.5 Q100 41 119 31 Q126 27 136 25.5 Q146 24 160 25 Q184 28 213 42.5 Q242 57 290 91 L376 151 L455 496 L497 496 Z M410 634 Q424 634 434.5 647 Q445 660 450 681 L479 681 Q470 645 449 622.5 Q428 600 402 600 Q390 600 378 605.5 Q366 611 343 628 Q325 643 316 647 Q307 651 300 651 Q288 651 277.5 637.5 Q267 624 261 603 L231 603 Q239 638 261 661.5 Q283 685 308 685 Q320 685 333 679 Q346 673 370 655 Q388 642 396 638 Q404 634 410 634 Z " />
<glyph glyph-name="wacute" unicode="&#x1e83;" horiz-adv-x="710" d="M743 496 L476 0 L426 0 L400 445 L398 445 L169 0 L120 0 L82 496 L126 496 L155 56 L157 56 L384 496 L435 496 L461 56 L463 56 L693 496 L743 496 Z M535 710 L445 592 L404 592 L483 710 L535 710 Z " />
<glyph glyph-name="wcircumflex" unicode="&#x175;" horiz-adv-x="710" d="M743 496 L476 0 L426 0 L400 445 L398 445 L169 0 L120 0 L82 496 L126 496 L155 56 L157 56 L384 496 L435 496 L461 56 L463 56 L693 496 L743 496 Z M480 710 L531 592 L496 592 L449 677 L361 592 L323 592 L427 710 L480 710 Z " />
<glyph glyph-name="wdieresis" unicode="&#x1e85;" horiz-adv-x="710" d="M743 496 L476 0 L426 0 L400 445 L398 445 L169 0 L120 0 L82 496 L126 496 L155 56 L157 56 L384 496 L435 496 L461 56 L463 56 L693 496 L743 496 Z M429 710 L408 616 L363 616 L384 710 L429 710 Z M543 710 L522 616 L477 616 L498 710 L543 710 Z " />
<glyph glyph-name="wgrave" unicode="&#x1e81;" horiz-adv-x="710" d="M743 496 L476 0 L426 0 L400 445 L398 445 L169 0 L120 0 L82 496 L126 496 L155 56 L157 56 L384 496 L435 496 L461 56 L463 56 L693 496 L743 496 Z M399 710 L451 592 L413 592 L348 710 L399 710 Z " />
<glyph glyph-name="ycircumflex" unicode="&#x177;" horiz-adv-x="441" d="M-72 -191 L-99 -191 L-90 -154 L-64 -154 Q-12 -154 23 -131 Q58 -108 119 -15 Q133 7 137.5 23.5 Q142 40 139 56 L67 496 L110 496 L176 74 L178 74 L442 496 L490 496 L159 -22 Q88 -132 45 -161.5 Q2 -191 -72 -191 Z M262 709 L313 591 L278 591 L231 676 L143 591 L105 591 L209 709 L262 709 Z " />
<glyph glyph-name="ygrave" unicode="&#x1ef3;" horiz-adv-x="441" d="M-72 -191 L-99 -191 L-90 -154 L-64 -154 Q-12 -154 23 -131 Q58 -108 119 -15 Q133 7 137.5 23.5 Q142 40 139 56 L67 496 L110 496 L176 74 L178 74 L442 496 L490 496 L159 -22 Q88 -132 45 -161.5 Q2 -191 -72 -191 Z M260 709 L312 591 L274 591 L209 709 L260 709 Z " />
<glyph glyph-name="zcaron" unicode="&#x17e;" horiz-adv-x="396" d="M325 34 L318 0 L-35 0 L-27 38 L369 461 L83 461 L91 496 L427 496 L418 460 L21 34 L325 34 Z M398 710 L293 592 L241 592 L189 710 L225 710 L272 625 L360 710 L398 710 Z " />
<glyph glyph-name="zacute" unicode="&#x17a;" horiz-adv-x="396" d="M325 34 L318 0 L-35 0 L-27 38 L369 461 L83 461 L91 496 L427 496 L418 460 L21 34 L325 34 Z M374 710 L284 592 L243 592 L322 710 L374 710 Z " />
<glyph glyph-name="zdotaccent" unicode="&#x17c;" horiz-adv-x="396" d="M325 34 L318 0 L-35 0 L-27 38 L369 461 L83 461 L91 496 L427 496 L418 460 L21 34 L325 34 Z M316 710 L295 616 L249 616 L270 710 L316 710 Z " />
<glyph glyph-name="circumflex" unicode="&#x2c6;" horiz-adv-x="208" d="M231 693 L282 575 L247 575 L200 660 L112 575 L74 575 L178 693 L231 693 Z " />
<glyph glyph-name="caron" unicode="&#x2c7;" horiz-adv-x="208" d="M310 693 L205 575 L153 575 L101 693 L137 693 L184 608 L272 693 L310 693 Z " />
<glyph glyph-name="tilde" unicode="&#x2dc;" horiz-adv-x="208" d="M245 617 Q259 617 269.5 630 Q280 643 285 664 L314 664 Q305 628 284 605.5 Q263 583 237 583 Q225 583 213 588.5 Q201 594 178 611 Q160 626 151 630 Q142 634 135 634 Q123 634 112.5 620.5 Q102 607 96 586 L66 586 Q74 621 96 644.5 Q118 668 143 668 Q155 668 168 662 Q181 656 205 638 Q223 625 231 621 Q239 617 245 617 Z " />
<glyph glyph-name="ring" unicode="&#x2da;" horiz-adv-x="208" d="M282 646 Q282 609 256.5 583 Q231 557 194 557 Q157 557 131 583 Q105 609 105 646 Q105 683 131 709 Q157 735 194 735 Q231 735 256.5 709 Q282 683 282 646 Z M136 646 Q136 620 152.5 603 Q169 586 194 586 Q219 586 235 603 Q251 620 251 646 Q251 672 235 689 Q219 706 194 706 Q168 706 152 689 Q136 672 136 646 Z " />
<glyph glyph-name="hungarumlaut" unicode="&#x2dd;" horiz-adv-x="208" d="M303 693 L238 575 L200 575 L256 693 L303 693 Z M211 693 L146 575 L107 575 L164 693 L211 693 Z " />
<glyph glyph-name="breve" unicode="&#x2d8;" horiz-adv-x="208" d="M191 609 Q220 609 242.5 631.5 Q265 654 277 693 L314 693 Q299 638 265.5 606.5 Q232 575 188 575 Q142 575 120 607 Q98 639 107 693 L142 693 Q136 654 149 631.5 Q162 609 191 609 Z " />
<glyph glyph-name="dotaccent" unicode="&#x2d9;" horiz-adv-x="208" d="M228 693 L207 599 L161 599 L182 693 L228 693 Z " />
<glyph glyph-name="ogonek" unicode="&#x2db;" horiz-adv-x="208" d="M-13 -154 Q-3 -154 10.5 -152 Q24 -150 41 -146 L34 -177 Q20 -181 4.5 -183.5 Q-11 -186 -25 -186 Q-59 -186 -75.5 -170.5 Q-92 -155 -89 -128 Q-88 -97 -57.5 -64 Q-27 -31 27 0 L75 0 Q24 -28 -12 -63 Q-48 -98 -49 -122 Q-50 -137 -40.5 -145.5 Q-31 -154 -13 -154 Z " />
<glyph glyph-name="commaaccent" unicode="&#xf6c3;" horiz-adv-x="208" d="M59 -94 L-1 -176 L-31 -176 L17 -103 L-13 -103 L2 -40 L72 -40 L59 -94 Z " />
<glyph glyph-name="caron.alt" unicode="&#xe189;" horiz-adv-x="208" d="M217 655 L169 550 L144 550 L177 693 L225 693 L217 655 Z " />
<glyph glyph-name="revcommaaccent" unicode="&#xe18a;" horiz-adv-x="208" d="M225 627 L210 564 L140 564 L153 618 L213 700 L242 700 L195 627 L225 627 Z " />
<glyph glyph-name="ellipsis" unicode="&#x2026;" horiz-adv-x="641" d="M102 83 L84 0 L14 0 L32 83 L102 83 Z M316 83 L297 0 L227 0 L246 83 L316 83 Z M529 83 L511 0 L441 0 L459 83 L529 83 Z " />
<glyph glyph-name="endash" unicode="&#x2013;" horiz-adv-x="500" d="M450 293 L441 256 L59 256 L68 293 L450 293 Z " />
<glyph glyph-name="emdash" unicode="&#x2014;" horiz-adv-x="1000" d="M950 293 L941 256 L59 256 L68 293 L950 293 Z " />
<glyph glyph-name="apostrophe" unicode="&#x2bc;" horiz-adv-x="208" d="M228 639 L168 557 L138 557 L186 630 L156 630 L171 693 L241 693 L228 639 Z " />
<glyph glyph-name="guilsinglleft" unicode="&#x2039;" horiz-adv-x="256" d="M94 285 L181 94 L138 94 L42 289 L220 481 L271 481 L94 285 Z " />
<glyph glyph-name="guilsinglright" unicode="&#x203a;" horiz-adv-x="256" d="M229 289 L51 94 L0 94 L177 292 L90 481 L134 481 L229 289 Z " />
<glyph glyph-name="quotesinglbase" unicode="&#x201a;" horiz-adv-x="214" d="M85 7 L15 -126 L-17 -126 L44 0 L14 0 L32 83 L102 83 L85 7 Z " />
<glyph glyph-name="quotedblbase" unicode="&#x201e;" horiz-adv-x="367" d="M85 7 L15 -126 L-17 -126 L44 0 L14 0 L32 83 L102 83 L85 7 Z M238 7 L168 -126 L136 -126 L197 0 L167 0 L185 83 L255 83 L238 7 Z " />
<glyph glyph-name="quoteleft" unicode="&#x2018;" horiz-adv-x="214" d="M213 567 L194 484 L124 484 L141 560 L210 693 L243 693 L182 567 L213 567 Z " />
<glyph glyph-name="quotedblleft" unicode="&#x201c;" horiz-adv-x="367" d="M213 567 L194 484 L124 484 L141 560 L210 693 L243 693 L182 567 L213 567 Z M366 567 L347 484 L277 484 L294 560 L363 693 L396 693 L335 567 L366 567 Z " />
<glyph glyph-name="quoteright" unicode="&#x2019;" horiz-adv-x="214" d="M226 617 L156 484 L124 484 L185 610 L154 610 L173 693 L243 693 L226 617 Z " />
<glyph glyph-name="quotedblright" unicode="&#x201d;" horiz-adv-x="367" d="M226 617 L156 484 L124 484 L185 610 L154 610 L173 693 L243 693 L226 617 Z M379 617 L309 484 L277 484 L338 610 L307 610 L326 693 L396 693 L379 617 Z " />
<glyph glyph-name="bullet" unicode="&#x2022;" horiz-adv-x="485" d="M267 523 Q333 523 379.5 476 Q426 429 426 363 Q426 297 379.5 250.5 Q333 204 267 204 Q201 204 154 251 Q107 298 107 363 Q107 429 154 476 Q201 523 267 523 Z " />
<glyph glyph-name="dagger" unicode="&#x2020;" horiz-adv-x="434" d="M286 462 L137 -182 L95 -182 L245 462 L84 462 L92 496 L253 496 L297 693 L339 693 L294 496 L437 496 L429 462 L286 462 Z " />
<glyph glyph-name="daggerdbl" unicode="&#x2021;" horiz-adv-x="434" d="M437 496 L429 462 L286 462 L248 293 L206 293 L245 462 L84 462 L92 496 L253 496 L297 693 L339 693 L294 496 L437 496 Z M330 34 L323 0 L180 0 L137 -182 L95 -182 L138 0 L-22 0 L-15 34 L146 34 L188 216 L230 216 L187 34 L330 34 Z " />
<glyph glyph-name="trademark" unicode="&#x2122;" horiz-adv-x="620" d="M254 664 L188 380 L151 380 L217 664 L126 664 L132 693 L351 693 L345 664 L254 664 Z M655 693 L583 380 L549 380 L611 649 L610 649 L490 474 L458 474 L422 649 L421 649 L359 380 L325 380 L397 693 L444 693 L480 518 L482 518 L602 693 L655 693 Z " />
<glyph glyph-name="Euro" unicode="&#x20ac;" horiz-adv-x="560" d="M273 23 Q321 23 371.5 59.5 Q422 96 459 158 L498 147 Q449 67 391.5 27.5 Q334 -12 268 -12 Q180 -12 137.5 56 Q95 124 106 247 L23 247 L32 285 L110 285 Q112 298 115 312.5 Q118 327 122 344 Q125 359 128 371 Q131 383 135 393 L57 393 L66 431 L147 431 Q191 555 264 624 Q337 693 426 693 Q489 693 528 655.5 Q567 618 583 543 L542 527 Q531 589 499 623.5 Q467 658 421 658 Q356 658 294.5 598 Q233 538 194 431 L454 431 L445 393 L182 393 Q179 384 176 372.5 Q173 361 167 338 Q165 328 163 317 Q161 306 157 285 L420 285 L411 247 L152 247 Q141 141 174.5 82 Q208 23 273 23 Z " />
<glyph glyph-name="florin" unicode="&#x192;" horiz-adv-x="363" d="M-39 -157 Q14 -157 43.5 -133 Q73 -109 85 -56 L177 347 L58 347 L66 381 L185 381 L227 563 Q245 639 283 672 Q321 705 396 705 Q421 705 438.5 703 Q456 701 470 696 L461 660 Q445 665 427 668 Q409 671 394 671 Q341 671 311.5 646.5 Q282 622 270 569 L227 381 L358 381 L350 347 L219 347 L128 -48 Q110 -125 71.5 -158 Q33 -191 -44 -191 Q-66 -191 -83.5 -188.5 Q-101 -186 -114 -182 L-106 -146 Q-91 -151 -73.5 -154 Q-56 -157 -39 -157 Z " />
<glyph glyph-name="zero.plf" unicode="&#xe027;" horiz-adv-x="560" d="M140 338 Q106 191 138.5 107 Q171 23 253 23 Q336 23 409 107 Q482 191 516 338 Q529 396 532 444.5 Q535 493 528 532 Q516 592 482 625 Q448 658 400 658 Q319 658 246.5 572 Q174 486 140 338 Z M560 332 Q525 178 440 83 Q355 -12 249 -12 Q142 -12 100.5 86.5 Q59 185 95 344 Q130 500 215 596.5 Q300 693 404 693 Q511 693 553.5 592 Q596 491 560 332 Z " />
<glyph glyph-name="one.plf" unicode="&#xe028;" horiz-adv-x="490" d="M410 36 L402 0 L-8 0 L0 36 L198 36 L334 626 Q311 590 235.5 535.5 Q160 481 104 458 L98 495 Q158 520 235 579 Q312 638 343 683 L389 683 L240 36 L410 36 Z " />
<glyph glyph-name="two.plf" unicode="&#xe029;" horiz-adv-x="539" d="M440 37 L432 0 L2 0 Q19 44 48 83 Q77 122 121 158 Q146 180 178.5 202.5 Q211 225 284 270 Q412 348 455 396.5 Q498 445 507 502 Q518 571 482.5 614.5 Q447 658 377 658 Q303 658 246 607 Q189 556 154 460 L114 473 Q150 577 219.5 635 Q289 693 380 693 Q470 693 518 639 Q566 585 553 502 Q543 437 493.5 380 Q444 323 307 238 Q176 156 132.5 117.5 Q89 79 68 37 L440 37 Z " />
<glyph glyph-name="three.plf" unicode="&#xe02a;" horiz-adv-x="549" d="M455 228 Q455 298 415 337 Q375 376 304 376 L231 376 L239 410 L503 646 L158 646 L166 683 L564 683 L555 644 L295 412 L322 412 Q406 412 455 363.5 Q504 315 504 231 Q504 125 427.5 56.5 Q351 -12 239 -12 Q154 -12 96 31 Q38 74 28 144 L76 153 Q82 98 130 61.5 Q178 25 245 25 Q333 25 394 82 Q455 139 455 228 Z " />
<glyph glyph-name="four.plf" unicode="&#xe02b;" horiz-adv-x="547" d="M412 168 L374 0 L332 0 L370 168 L14 168 L24 212 L469 683 L531 683 L420 204 L506 204 L498 168 L412 168 Z M65 204 L378 204 L480 641 L478 641 L65 204 Z " />
<glyph glyph-name="five.plf" unicode="&#xe02c;" horiz-adv-x="550" d="M567 683 L559 646 L259 646 L158 373 Q190 394 232.5 406.5 Q275 419 315 419 Q397 419 446.5 370.5 Q496 322 496 240 Q496 132 417 60 Q338 -12 225 -12 Q142 -12 87 30.5 Q32 73 23 144 L70 153 Q76 97 121 61 Q166 25 232 25 Q321 25 385 85.5 Q449 146 449 237 Q449 306 410 345 Q371 384 302 384 Q261 384 219 370 Q177 356 150 335 L102 335 L233 683 L567 683 Z " />
<glyph glyph-name="six.plf" unicode="&#xe02d;" horiz-adv-x="560" d="M395 693 Q467 693 512 653.5 Q557 614 567 542 L524 534 Q513 595 479 626 Q445 657 390 657 Q333 657 282.5 624 Q232 591 191 527 Q160 477 137 414 Q114 351 106 295 Q158 356 215.5 387.5 Q273 419 333 419 Q408 419 453 373.5 Q498 328 498 252 Q498 151 416.5 69.5 Q335 -12 234 -12 Q149 -12 103 50.5 Q57 113 57 225 Q57 294 80 377.5 Q103 461 142 528 Q190 609 254 651 Q318 693 395 693 Z M321 384 Q269 384 217 352.5 Q165 321 102 249 Q101 234 100.5 228.5 Q100 223 100 218 Q100 130 137 76.5 Q174 23 239 23 Q320 23 386.5 95 Q453 167 453 252 Q453 311 416.5 347.5 Q380 384 321 384 Z " />
<glyph glyph-name="seven.plf" unicode="&#xe02e;" horiz-adv-x="528" d="M279 237 Q248 180 223.5 121 Q199 62 181 0 L129 0 Q151 84 193 170.5 Q235 257 297 347 Q334 402 380.5 460 Q427 518 540 646 L140 646 L148 683 L594 683 L586 646 Q574 631 515.5 563.5 Q457 496 421 451 Q377 395 342.5 342.5 Q308 290 279 237 Z " />
<glyph glyph-name="eight.plf" unicode="&#xe02f;" horiz-adv-x="560" d="M51 190 Q65 249 109 291.5 Q153 334 232 363 L232 365 Q185 387 162 431.5 Q139 476 152 528 Q169 598 238 645.5 Q307 693 390 693 Q478 693 528 640 Q578 587 561 513 Q550 464 510 425.5 Q470 387 408 363 Q408 363 407.5 362.5 Q407 362 407 361 Q467 335 493.5 286.5 Q520 238 506 176 Q487 92 411 40 Q335 -12 240 -12 Q142 -12 86 46 Q30 104 51 190 Z M243 23 Q318 23 382 67.5 Q446 112 462 180 Q479 248 436 295.5 Q393 343 316 343 Q239 343 175.5 298.5 Q112 254 96 184 Q80 114 124 68.5 Q168 23 243 23 Z M325 381 Q392 381 447 420 Q502 459 516 517 Q530 575 492.5 616.5 Q455 658 387 658 Q321 658 265 618.5 Q209 579 196 521 Q182 462 219.5 421.5 Q257 381 325 381 Z " />
<glyph glyph-name="nine.plf" unicode="&#xe030;" horiz-adv-x="560" d="M208 -12 Q132 -12 83.5 29.5 Q35 71 25 146 L68 154 Q79 91 116.5 57 Q154 23 213 23 Q270 23 320 56 Q370 89 411 153 Q442 203 464.5 266 Q487 329 495 385 Q442 326 385.5 296 Q329 266 270 266 Q193 266 149 309 Q105 352 105 429 Q105 530 186.5 611.5 Q268 693 368 693 Q452 693 497.5 631 Q543 569 543 459 Q543 391 520.5 306 Q498 221 460 155 Q414 73 350 30.5 Q286 -12 208 -12 Z M280 301 Q334 301 386 331.5 Q438 362 500 432 Q501 437 501 442.5 Q501 448 501 460 Q501 551 465 604.5 Q429 658 363 658 Q283 658 216.5 586 Q150 514 150 430 Q150 371 185.5 336 Q221 301 280 301 Z " />
<glyph glyph-name="zero.tlf" unicode="&#xe039;" horiz-adv-x="560" d="M140 338 Q106 191 138.5 107 Q171 23 253 23 Q336 23 409 107 Q482 191 516 338 Q529 396 532 444.5 Q535 493 528 532 Q516 592 482 625 Q448 658 400 658 Q319 658 246.5 572 Q174 486 140 338 Z M560 332 Q525 178 440 83 Q355 -12 249 -12 Q142 -12 100.5 86.5 Q59 185 95 344 Q130 500 215 596.5 Q300 693 404 693 Q511 693 553.5 592 Q596 491 560 332 Z " />
<glyph glyph-name="one.tlf" unicode="&#xe03a;" horiz-adv-x="560" d="M474 36 L466 0 L56 0 L64 36 L262 36 L398 626 Q374 590 299 535.5 Q224 481 168 458 L162 495 Q225 520 300.5 578 Q376 636 407 683 L453 683 L304 36 L474 36 Z " />
<glyph glyph-name="two.tlf" unicode="&#xe03b;" horiz-adv-x="560" d="M446 37 L438 0 L8 0 Q25 44 54 83 Q83 122 127 158 Q152 180 184.5 202.5 Q217 225 290 270 Q418 348 461 396.5 Q504 445 513 502 Q524 571 488.5 614.5 Q453 658 383 658 Q309 658 252 607 Q195 556 160 460 L120 473 Q156 577 225.5 635 Q295 693 386 693 Q476 693 524 639 Q572 585 559 502 Q549 437 499.5 380 Q450 323 313 238 Q182 156 138.5 117.5 Q95 79 74 37 L446 37 Z " />
<glyph glyph-name="three.tlf" unicode="&#xe03c;" horiz-adv-x="560" d="M462 228 Q462 298 422 337 Q382 376 311 376 L238 376 L246 410 L510 646 L165 646 L173 683 L571 683 L562 644 L302 412 L329 412 Q413 412 462 363.5 Q511 315 511 231 Q511 125 434.5 56.5 Q358 -12 246 -12 Q161 -12 103 31 Q45 74 35 144 L83 153 Q89 98 137 61.5 Q185 25 252 25 Q340 25 401 82 Q462 139 462 228 Z " />
<glyph glyph-name="four.tlf" unicode="&#xe03d;" horiz-adv-x="560" d="M425 168 L387 0 L345 0 L383 168 L27 168 L37 212 L482 683 L544 683 L433 204 L519 204 L511 168 L425 168 Z M78 204 L391 204 L493 641 L491 641 L78 204 Z " />
<glyph glyph-name="five.tlf" unicode="&#xe03e;" horiz-adv-x="560" d="M582 683 L574 646 L274 646 L173 373 Q205 394 247.5 406.5 Q290 419 330 419 Q412 419 461.5 370.5 Q511 322 511 240 Q511 132 432 60 Q353 -12 240 -12 Q157 -12 102 30.5 Q47 73 38 144 L85 153 Q91 97 136 61 Q181 25 247 25 Q336 25 400 85.5 Q464 146 464 237 Q464 306 425 345 Q386 384 317 384 Q276 384 234 370 Q192 356 165 335 L117 335 L248 683 L582 683 Z " />
<glyph glyph-name="six.tlf" unicode="&#xe03f;" horiz-adv-x="560" d="M397 693 Q469 693 514 653.5 Q559 614 569 542 L526 534 Q515 595 481 626 Q447 657 392 657 Q335 657 284.5 624 Q234 591 193 527 Q162 477 139 414 Q116 351 108 295 Q160 356 217.5 387.5 Q275 419 335 419 Q410 419 455 373.5 Q500 328 500 252 Q500 151 418.5 69.5 Q337 -12 236 -12 Q151 -12 105 50.5 Q59 113 59 225 Q59 294 82 377.5 Q105 461 144 528 Q192 609 256 651 Q320 693 397 693 Z M323 384 Q271 384 219 352.5 Q167 321 104 249 Q103 234 102.5 228.5 Q102 223 102 218 Q102 130 139 76.5 Q176 23 241 23 Q322 23 388.5 95 Q455 167 455 252 Q455 311 418.5 347.5 Q382 384 323 384 Z " />
<glyph glyph-name="seven.tlf" unicode="&#xe040;" horiz-adv-x="560" d="M279 237 Q248 180 223.5 121 Q199 62 181 0 L129 0 Q151 84 193 170.5 Q235 257 297 347 Q334 402 380.5 460 Q427 518 540 646 L140 646 L148 683 L594 683 L586 646 Q574 631 515.5 563.5 Q457 496 421 451 Q377 395 342.5 342.5 Q308 290 279 237 Z " />
<glyph glyph-name="eight.tlf" unicode="&#xe041;" horiz-adv-x="560" d="M58 190 Q72 249 116 291.5 Q160 334 239 363 L239 365 Q192 387 169 431.5 Q146 476 159 528 Q176 598 245 645.5 Q314 693 397 693 Q485 693 535 640 Q585 587 568 513 Q557 464 517 425.5 Q477 387 415 363 Q415 363 414.5 362.5 Q414 362 414 361 Q474 335 500.5 286.5 Q527 238 513 176 Q494 92 418 40 Q342 -12 247 -12 Q149 -12 93 46 Q37 104 58 190 Z M250 23 Q325 23 389 67.5 Q453 112 469 180 Q486 248 443 295.5 Q400 343 323 343 Q246 343 182.5 298.5 Q119 254 103 184 Q87 114 131 68.5 Q175 23 250 23 Z M332 381 Q399 381 454 420 Q509 459 523 517 Q537 575 499.5 616.5 Q462 658 394 658 Q328 658 272 618.5 Q216 579 203 521 Q189 462 226.5 421.5 Q264 381 332 381 Z " />
<glyph glyph-name="nine.tlf" unicode="&#xe042;" horiz-adv-x="560" d="M199 -12 Q123 -12 74.5 29.5 Q26 71 16 146 L59 154 Q70 91 107.5 57 Q145 23 204 23 Q261 23 311 56 Q361 89 402 153 Q433 203 455.5 266 Q478 329 486 385 Q433 326 376.5 296 Q320 266 261 266 Q184 266 140 309 Q96 352 96 429 Q96 530 177.5 611.5 Q259 693 359 693 Q443 693 488.5 631 Q534 569 534 459 Q534 391 511.5 306 Q489 221 451 155 Q405 73 341 30.5 Q277 -12 199 -12 Z M271 301 Q325 301 377 331.5 Q429 362 491 432 Q492 437 492 442.5 Q492 448 492 460 Q492 551 456 604.5 Q420 658 354 658 Q274 658 207.5 586 Q141 514 141 430 Q141 371 176.5 336 Q212 301 271 301 Z " />
<glyph glyph-name="zero.tosf" unicode="&#xe04b;" horiz-adv-x="560" d="M352 508 Q453 508 495 436 Q537 364 510 245 Q483 129 409 58.5 Q335 -12 236 -12 Q136 -12 94.5 60 Q53 132 80 250 Q107 367 180.5 437.5 Q254 508 352 508 Z M123 248 Q99 144 130 83 Q161 22 243 22 Q324 22 383.5 83 Q443 144 467 248 Q491 351 460 412.5 Q429 474 347 474 Q265 474 206 413 Q147 352 123 248 Z " />
<glyph glyph-name="one.tosf" unicode="&#xe04c;" horiz-adv-x="560" d="M431 36 L423 0 L59 0 L67 36 L239 36 L335 449 Q308 409 252 371 Q196 333 139 318 L133 353 Q194 369 250.5 410.5 Q307 452 343 505 L389 505 L281 36 L431 36 Z " />
<glyph glyph-name="two.tosf" unicode="&#xe04d;" horiz-adv-x="560" d="M428 37 L420 0 L23 0 Q32 38 55.5 69 Q79 100 118 127 Q141 142 170.5 157.5 Q200 173 264 199 Q323 224 350 237.5 Q377 251 396 264 Q433 290 450.5 319.5 Q468 349 468 386 Q468 426 435 449.5 Q402 473 343 473 Q273 473 222.5 438.5 Q172 404 143 336 L105 345 Q135 423 198 465.5 Q261 508 346 508 Q422 508 467.5 475 Q513 442 513 388 Q513 345 493 309.5 Q473 274 432 245 Q409 228 377 211.5 Q345 195 277 168 Q173 125 137 97.5 Q101 70 91 37 L428 37 Z " />
<glyph glyph-name="three.tosf" unicode="&#xe04e;" horiz-adv-x="560" d="M401 48 Q401 118 360.5 157.5 Q320 197 249 197 L183 197 L191 230 L455 459 L110 459 L118 496 L516 496 L506 456 L246 232 L266 232 Q349 232 397.5 183.5 Q446 135 446 51 Q446 -57 374 -125 Q302 -193 193 -193 Q107 -193 48 -149.5 Q-11 -106 -20 -36 L25 -27 Q32 -81 81.5 -118 Q131 -155 198 -155 Q286 -155 343.5 -98.5 Q401 -42 401 48 Z " />
<glyph glyph-name="four.tosf" unicode="&#xe04f;" horiz-adv-x="560" d="M361 0 L318 -182 L276 -182 L319 0 L-11 0 L-3 36 L413 497 L475 497 L368 35 L454 35 L447 0 L361 0 Z M41 35 L326 35 L424 458 L422 458 L41 35 Z " />
<glyph glyph-name="five.tosf" unicode="&#xe050;" horiz-adv-x="560" d="M533 496 L525 459 L233 459 L131 195 Q164 217 203.5 228.5 Q243 240 283 240 Q364 240 409.5 193 Q455 146 455 62 Q455 -48 379.5 -119.5 Q304 -191 193 -191 Q111 -191 58.5 -149 Q6 -107 -4 -36 L41 -28 Q49 -84 92 -119 Q135 -154 199 -154 Q288 -154 349 -94 Q410 -34 410 59 Q410 129 373.5 167 Q337 205 270 205 Q230 205 191.5 192 Q153 179 123 156 L76 156 L207 496 L533 496 Z " />
<glyph glyph-name="six.tosf" unicode="&#xe051;" horiz-adv-x="560" d="M403 693 Q473 693 514.5 654.5 Q556 616 567 542 L525 534 Q514 596 482.5 626.5 Q451 657 398 657 Q341 657 291.5 624 Q242 591 201 527 Q170 477 147.5 413.5 Q125 350 118 295 Q171 357 226.5 388 Q282 419 341 419 Q413 419 455.5 375 Q498 331 498 256 Q498 152 420.5 70 Q343 -12 242 -12 Q158 -12 113.5 49 Q69 110 69 223 Q69 292 91.5 376 Q114 460 152 526 Q198 608 262 650.5 Q326 693 403 693 Z M329 384 Q279 384 229.5 354.5 Q180 325 113 249 Q112 233 111.5 225.5 Q111 218 111 212 Q111 126 147 74.5 Q183 23 247 23 Q327 23 391 95.5 Q455 168 455 255 Q455 314 421 349 Q387 384 329 384 Z " />
<glyph glyph-name="seven.tosf" unicode="&#xe052;" horiz-adv-x="528" d="M207 54 Q176 -2 151.5 -61 Q127 -120 108 -182 L59 -182 Q82 -98 123.5 -12.5 Q165 73 226 162 Q263 216 308.5 272.5 Q354 329 470 459 L103 459 L112 496 L524 496 L515 459 Q498 439 441 373.5 Q384 308 350 265 Q305 210 270 158 Q235 106 207 54 Z " />
<glyph glyph-name="eight.tosf" unicode="&#xe053;" horiz-adv-x="560" d="M557 513 Q546 463 508 424 Q470 385 411 363 L410 361 Q467 336 491 288 Q515 240 501 176 Q482 91 409 39.5 Q336 -12 243 -12 Q146 -12 93 45 Q40 102 60 190 Q74 250 116.5 292.5 Q159 335 234 363 L235 365 Q191 385 169.5 430 Q148 475 161 528 Q178 599 244 646 Q310 693 393 693 Q480 693 527 641 Q574 589 557 513 Z M246 23 Q320 23 380.5 66.5 Q441 110 458 180 Q475 251 434 297 Q393 343 318 343 Q243 343 181.5 299 Q120 255 104 184 Q88 114 129.5 68.5 Q171 23 246 23 Z M328 381 Q393 381 446 420 Q499 459 513 517 Q528 576 492.5 617 Q457 658 390 658 Q325 658 271.5 619 Q218 580 204 521 Q190 461 226 421 Q262 381 328 381 Z " />
<glyph glyph-name="nine.tosf" unicode="&#xe054;" horiz-adv-x="560" d="M155 -191 Q80 -191 33 -149.5 Q-14 -108 -24 -33 L20 -25 Q30 -89 66 -122.5 Q102 -156 160 -156 Q217 -156 266 -123.5 Q315 -91 354 -28 Q383 20 404.5 81 Q426 142 434 200 Q378 138 325.5 109.5 Q273 81 215 81 Q140 81 97 124.5 Q54 168 54 243 Q54 346 133.5 427 Q213 508 313 508 Q395 508 439 448.5 Q483 389 483 282 Q483 212 462 127.5 Q441 43 405 -23 Q360 -106 296.5 -148.5 Q233 -191 155 -191 Z M226 116 Q277 116 325.5 144.5 Q374 173 438 247 Q439 265 439.5 271.5 Q440 278 440 284 Q440 372 405.5 422.5 Q371 473 308 473 Q229 473 163.5 401.5 Q98 330 98 246 Q98 185 132 150.5 Q166 116 226 116 Z " />
<glyph glyph-name="zero.posf" unicode="&#xe05d;" horiz-adv-x="529" d="M336 508 Q437 508 479 435 Q521 362 493 242 Q467 126 394.5 57 Q322 -12 223 -12 Q122 -12 81 61 Q40 134 68 253 Q95 370 166.5 439 Q238 508 336 508 Z M109 248 Q85 143 116 82.5 Q147 22 228 22 Q310 22 368.5 82.5 Q427 143 451 248 Q475 353 444 413.5 Q413 474 332 474 Q250 474 191.5 413.5 Q133 353 109 248 Z " />
<glyph glyph-name="one.posf" unicode="&#xe05e;" horiz-adv-x="430" d="M368 36 L360 0 L-4 0 L4 36 L176 36 L271 447 Q244 407 189 370 Q134 333 76 318 L70 353 Q131 369 187.5 410.5 Q244 452 280 505 L326 505 L218 36 L368 36 Z " />
<glyph glyph-name="two.posf" unicode="&#xe05f;" horiz-adv-x="502" d="M391 37 L383 0 L-14 0 Q-5 38 18.5 69 Q42 100 81 127 Q104 142 133.5 157.5 Q163 173 227 199 Q286 224 313 237.5 Q340 251 359 264 Q396 290 413.5 319.5 Q431 349 431 386 Q431 426 398 449.5 Q365 473 306 473 Q236 473 185.5 438.5 Q135 404 106 336 L68 345 Q98 423 161 465.5 Q224 508 309 508 Q385 508 430.5 475 Q476 442 476 388 Q476 345 456 309.5 Q436 274 395 245 Q372 228 340 211.5 Q308 195 240 168 Q136 125 100 97.5 Q64 70 54 37 L391 37 Z " />
<glyph glyph-name="three.posf" unicode="&#xe060;" horiz-adv-x="507" d="M371 48 Q371 118 330.5 157.5 Q290 197 219 197 L153 197 L161 230 L425 459 L80 459 L88 496 L486 496 L476 456 L216 232 L236 232 Q319 232 367.5 183.5 Q416 135 416 51 Q416 -57 344 -125 Q272 -193 163 -193 Q77 -193 18 -149.5 Q-41 -106 -50 -36 L-5 -27 Q2 -81 51.5 -118 Q101 -155 168 -155 Q256 -155 313.5 -98.5 Q371 -42 371 48 Z " />
<glyph glyph-name="four.posf" unicode="&#xe061;" horiz-adv-x="519" d="M341 0 L298 -182 L256 -182 L299 0 L-31 0 L-23 36 L393 497 L455 497 L348 35 L434 35 L427 0 L341 0 Z M21 35 L306 35 L404 458 L402 458 L21 35 Z " />
<glyph glyph-name="five.posf" unicode="&#xe062;" horiz-adv-x="514" d="M502 496 L494 459 L202 459 L100 195 Q133 217 172.5 228.5 Q212 240 252 240 Q333 240 378.5 193 Q424 146 424 62 Q424 -48 348.5 -119.5 Q273 -191 162 -191 Q80 -191 27.5 -149 Q-25 -107 -35 -36 L10 -28 Q18 -84 61 -119 Q104 -154 168 -154 Q257 -154 318 -94 Q379 -34 379 59 Q379 129 342.5 167 Q306 205 239 205 Q199 205 160.5 192 Q122 179 92 156 L45 156 L176 496 L502 496 Z " />
<glyph glyph-name="six.posf" unicode="&#xe063;" horiz-adv-x="542" d="M397 693 Q467 693 508.5 654.5 Q550 616 561 542 L519 534 Q508 596 476.5 626.5 Q445 657 392 657 Q335 657 285.5 624 Q236 591 195 527 Q164 477 141.5 413.5 Q119 350 112 295 Q165 357 220.5 388 Q276 419 335 419 Q407 419 449.5 375 Q492 331 492 256 Q492 152 414.5 70 Q337 -12 236 -12 Q152 -12 107.5 49 Q63 110 63 223 Q63 292 85.5 376 Q108 460 146 526 Q192 608 256 650.5 Q320 693 397 693 Z M323 384 Q273 384 223.5 354.5 Q174 325 107 249 Q106 233 105.5 225.5 Q105 218 105 212 Q105 126 141 74.5 Q177 23 241 23 Q321 23 385 95.5 Q449 168 449 255 Q449 314 415 349 Q381 384 323 384 Z " />
<glyph glyph-name="seven.posf" unicode="&#xe064;" horiz-adv-x="491" d="M179 54 Q148 -2 123.5 -61 Q99 -120 80 -182 L31 -182 Q54 -98 95.5 -12.5 Q137 73 198 162 Q235 216 280.5 272.5 Q326 329 442 459 L75 459 L84 496 L496 496 L487 459 Q470 439 413 373.5 Q356 308 322 265 Q277 210 242 158 Q207 106 179 54 Z " />
<glyph glyph-name="eight.posf" unicode="&#xe065;" horiz-adv-x="538" d="M545 513 Q534 463 496 424 Q458 385 399 363 L398 361 Q455 336 479 288 Q503 240 489 176 Q470 91 397 39.5 Q324 -12 231 -12 Q134 -12 81 45 Q28 102 48 190 Q62 250 104.5 292.5 Q147 335 222 363 L223 365 Q179 385 157.5 430 Q136 475 149 528 Q166 599 232 646 Q298 693 381 693 Q468 693 515 641 Q562 589 545 513 Z M234 23 Q308 23 368.5 66.5 Q429 110 446 180 Q463 251 422 297 Q381 343 306 343 Q231 343 169.5 299 Q108 255 92 184 Q76 114 117.5 68.5 Q159 23 234 23 Z M316 381 Q381 381 434 420 Q487 459 501 517 Q516 576 480.5 617 Q445 658 378 658 Q313 658 259.5 619 Q206 580 192 521 Q178 461 214 421 Q250 381 316 381 Z " />
<glyph glyph-name="nine.posf" unicode="&#xe066;" horiz-adv-x="548" d="M155 -191 Q80 -191 33 -149.5 Q-14 -108 -24 -33 L20 -25 Q30 -89 66 -122.5 Q102 -156 160 -156 Q217 -156 266 -123.5 Q315 -91 354 -28 Q383 20 404.5 81 Q426 142 434 200 Q378 138 325.5 109.5 Q273 81 215 81 Q140 81 97 124.5 Q54 168 54 243 Q54 346 133.5 427 Q213 508 313 508 Q395 508 439 448.5 Q483 389 483 282 Q483 212 462 127.5 Q441 43 405 -23 Q360 -106 296.5 -148.5 Q233 -191 155 -191 Z M226 116 Q277 116 325.5 144.5 Q374 173 438 247 Q439 265 439.5 271.5 Q440 278 440 284 Q440 372 405.5 422.5 Q371 473 308 473 Q229 473 163.5 401.5 Q98 330 98 246 Q98 185 132 150.5 Q166 116 226 116 Z " />
<glyph glyph-name="perthousand" unicode="&#x2030;" horiz-adv-x="1128" d="M725 709 L163 -13 L119 -13 L680 709 L725 709 Z M306 686 Q376 686 408.5 635.5 Q441 585 423 508 Q406 433 353 385.5 Q300 338 232 338 Q162 338 129.5 388.5 Q97 439 115 516 Q132 591 185 638.5 Q238 686 306 686 Z M236 373 Q288 373 327.5 411.5 Q367 450 382 512 Q397 573 375 612 Q353 651 300 651 Q248 651 209 613 Q170 575 155 512 Q140 451 162 412 Q184 373 236 373 Z M598 338 Q668 338 700.5 287.5 Q733 237 715 160 Q698 85 645 37.5 Q592 -10 524 -10 Q454 -10 421.5 40.5 Q389 91 407 168 Q424 243 477 290.5 Q530 338 598 338 Z M528 25 Q580 25 619.5 63 Q659 101 674 164 Q688 227 666.5 265.5 Q645 304 593 304 Q541 304 501 264.5 Q461 225 447 164 Q433 102 454.5 63.5 Q476 25 528 25 Z M961 338 Q1031 338 1063.5 287.5 Q1096 237 1078 160 Q1061 85 1008 37.5 Q955 -10 887 -10 Q817 -10 784.5 40.5 Q752 91 770 168 Q787 243 840 290.5 Q893 338 961 338 Z M891 25 Q943 25 982.5 63.5 Q1022 102 1037 164 Q1052 226 1030 265 Q1008 304 955 304 Q903 304 864 265.5 Q825 227 810 164 Q796 102 817.5 63.5 Q839 25 891 25 Z " />
<glyph glyph-name="fraction" unicode="&#x2044;" horiz-adv-x="100" d="M379 706 L-191 -13 L-236 -13 L335 706 L379 706 Z " />
<glyph glyph-name="uni2215" unicode="&#x2215;" horiz-adv-x="100" d="M379 706 L-191 -13 L-236 -13 L335 706 L379 706 Z " />
<glyph glyph-name="zerosuperior" unicode="&#x2070;" horiz-adv-x="353" d="M134 498 Q115 419 136 372.5 Q157 326 204 326 Q252 326 293.5 372 Q335 418 353 498 Q371 578 351 624 Q331 670 284 670 Q237 670 195 623.5 Q153 577 134 498 Z M392 493 Q371 403 319 349.5 Q267 296 200 296 Q131 296 103 353 Q75 410 96 502 Q117 592 169 646 Q221 700 288 700 Q357 700 385.5 642.5 Q414 585 392 493 Z " />
<glyph glyph-name="foursuperior" unicode="&#x2074;" horiz-adv-x="353" d="M316 397 L294 303 L255 303 L277 397 L59 397 L66 427 L336 693 L384 693 L323 427 L376 427 L369 397 L316 397 Z M109 427 L284 427 L334 649 L109 427 Z " />
<glyph glyph-name="fivesuperior" unicode="&#x2075;" horiz-adv-x="353" d="M405 694 L398 664 L214 664 L161 527 Q182 538 204.5 544 Q227 550 250 550 Q309 550 341.5 515.5 Q374 481 365 424 Q356 366 312 331 Q268 296 204 296 Q149 296 112.5 322.5 Q76 349 67 394 L108 401 Q116 367 141.5 347.5 Q167 328 205 328 Q252 328 285 355 Q318 382 325 425 Q331 467 308 493 Q285 519 240 519 Q216 519 191.5 511 Q167 503 150 490 L110 490 L190 694 L405 694 Z " />
<glyph glyph-name="sixsuperior" unicode="&#x2076;" horiz-adv-x="353" d="M294 700 Q342 700 370.5 676.5 Q399 653 407 608 L368 602 Q361 635 341.5 652.5 Q322 670 290 670 Q233 670 187.5 615 Q142 560 129 483 Q166 518 198 533.5 Q230 549 262 549 Q313 549 343.5 516 Q374 483 366 431 Q358 374 313.5 335 Q269 296 210 296 Q142 296 111 350.5 Q80 405 93 489 Q107 580 162 640 Q217 700 294 700 Z M253 519 Q224 519 194.5 502.5 Q165 486 126 446 Q124 393 148 359.5 Q172 326 213 326 Q253 326 287 357 Q321 388 328 430 Q334 469 312.5 494 Q291 519 253 519 Z " />
<glyph glyph-name="sevensuperior" unicode="&#x2077;" horiz-adv-x="347" d="M159 303 L115 303 Q138 385 190.5 467 Q243 549 355 662 L114 662 L120 693 L406 693 L401 666 L359 621 Q273 527 228.5 455 Q184 383 159 303 Z " />
<glyph glyph-name="eightsuperior" unicode="&#x2078;" horiz-adv-x="353" d="M396 594 Q390 567 368 545 Q346 523 310 509 Q345 493 359.5 466.5 Q374 440 366 405 Q355 356 308 326 Q261 296 200 296 Q136 296 99.5 329.5 Q63 363 75 415 Q83 448 107.5 472 Q132 496 177 513 Q151 526 138.5 550.5 Q126 575 132 603 Q141 644 185 672 Q229 700 283 700 Q339 700 372 668.5 Q405 637 396 594 Z M202 326 Q245 326 282 350 Q319 374 327 410 Q336 447 309 471 Q282 495 238 495 Q195 495 158.5 471 Q122 447 114 411 Q106 374 132.5 350 Q159 326 202 326 Z M248 526 Q286 526 317.5 547 Q349 568 356 598 Q363 628 341 649 Q319 670 280 670 Q241 670 210 650 Q179 630 172 599 Q165 568 187.5 547 Q210 526 248 526 Z " />
<glyph glyph-name="ninesuperior" unicode="&#x2079;" horiz-adv-x="353" d="M175 296 Q124 296 92 321.5 Q60 347 54 393 L94 400 Q99 365 121.5 346 Q144 327 179 327 Q236 327 280.5 380 Q325 433 339 513 Q305 481 273 466 Q241 451 207 451 Q154 451 124 483.5 Q94 516 102 567 Q111 624 156 662 Q201 700 259 700 Q326 700 357.5 645.5 Q389 591 376 508 Q363 418 308 357 Q253 296 175 296 Z M216 481 Q246 481 276 497 Q306 513 343 550 Q345 604 321 637 Q297 670 256 670 Q216 670 182 640 Q148 610 141 567 Q135 529 156 505 Q177 481 216 481 Z " />
<glyph glyph-name="onethird" unicode="&#x2153;" horiz-adv-x="806" d="M338 334 L330 303 L66 303 L74 334 L195 334 L266 641 Q243 618 202.5 592.5 Q162 567 131 556 L126 586 Q164 601 212 634.5 Q260 668 278 693 L316 693 L234 334 L338 334 Z M737 706 L167 -13 L122 -13 L693 706 L737 706 Z M782 390 L775 360 L625 240 Q684 238 714.5 211.5 Q745 185 745 136 Q745 73 697 33 Q649 -7 578 -7 Q524 -7 488 19.5 Q452 46 442 91 L484 99 Q491 65 517.5 45 Q544 25 583 25 Q634 25 669 56 Q704 87 704 133 Q704 168 680.5 189 Q657 210 619 210 L567 210 L573 237 L723 358 L518 358 L525 390 L782 390 Z " />
<glyph glyph-name="twothirds" unicode="&#x2154;" horiz-adv-x="806" d="M328 334 L321 303 L43 303 Q58 343 94 378 Q130 413 217 461 Q288 501 315.5 527.5 Q343 554 350 584 Q358 620 337.5 645 Q317 670 275 670 Q230 670 195 640.5 Q160 611 141 560 L108 569 Q131 630 176 665 Q221 700 279 700 Q338 700 369 665.5 Q400 631 389 581 Q382 547 355 518.5 Q328 490 235 436 Q170 398 142.5 376.5 Q115 355 101 334 L328 334 Z M732 706 L162 -13 L117 -13 L688 706 L732 706 Z M782 390 L775 360 L625 240 Q684 238 714.5 211.5 Q745 185 745 136 Q745 73 697 33 Q649 -7 578 -7 Q524 -7 488 19.5 Q452 46 442 91 L484 99 Q491 65 517.5 45 Q544 25 583 25 Q634 25 669 56 Q704 87 704 133 Q704 168 680.5 189 Q657 210 619 210 L567 210 L573 237 L723 358 L518 358 L525 390 L782 390 Z " />
<glyph glyph-name="oneeighth" unicode="&#x215b;" horiz-adv-x="806" d="M338 334 L330 303 L66 303 L74 334 L195 334 L266 641 Q243 618 202.5 592.5 Q162 567 131 556 L126 586 Q164 601 212 634.5 Q260 668 278 693 L316 693 L234 334 L338 334 Z M752 706 L182 -13 L137 -13 L708 706 L752 706 Z M780 291 Q774 264 752 242 Q730 220 694 206 Q729 190 743.5 163.5 Q758 137 750 102 Q739 53 692 23 Q645 -7 584 -7 Q520 -7 483.5 26.5 Q447 60 459 112 Q467 145 491.5 169 Q516 193 561 210 Q535 223 522.5 247.5 Q510 272 516 300 Q525 341 569 369 Q613 397 667 397 Q723 397 756 365.5 Q789 334 780 291 Z M586 23 Q629 23 666 47 Q703 71 711 107 Q720 144 693 168 Q666 192 622 192 Q579 192 542.5 168 Q506 144 498 108 Q490 71 516.5 47 Q543 23 586 23 Z M632 223 Q670 223 701.5 244 Q733 265 740 295 Q747 325 725 346 Q703 367 664 367 Q625 367 594 347 Q563 327 556 296 Q549 265 571.5 244 Q594 223 632 223 Z " />
<glyph glyph-name="threeeighths" unicode="&#x215c;" horiz-adv-x="806" d="M398 693 L391 663 L241 543 Q300 541 330.5 514.5 Q361 488 361 439 Q361 376 313 336 Q265 296 194 296 Q140 296 104 322.5 Q68 349 58 394 L100 402 Q107 368 133.5 348 Q160 328 199 328 Q250 328 285 359 Q320 390 320 436 Q320 471 296.5 492 Q273 513 235 513 L183 513 L189 540 L339 661 L134 661 L141 693 L398 693 Z M740 706 L170 -13 L125 -13 L696 706 L740 706 Z M780 291 Q774 264 752 242 Q730 220 694 206 Q729 190 743.5 163.5 Q758 137 750 102 Q739 53 692 23 Q645 -7 584 -7 Q520 -7 483.5 26.5 Q447 60 459 112 Q467 145 491.5 169 Q516 193 561 210 Q535 223 522.5 247.5 Q510 272 516 300 Q525 341 569 369 Q613 397 667 397 Q723 397 756 365.5 Q789 334 780 291 Z M586 23 Q629 23 666 47 Q703 71 711 107 Q720 144 693 168 Q666 192 622 192 Q579 192 542.5 168 Q506 144 498 108 Q490 71 516.5 47 Q543 23 586 23 Z M632 223 Q670 223 701.5 244 Q733 265 740 295 Q747 325 725 346 Q703 367 664 367 Q625 367 594 347 Q563 327 556 296 Q549 265 571.5 244 Q594 223 632 223 Z " />
<glyph glyph-name="fiveeighths" unicode="&#x215d;" horiz-adv-x="806" d="M405 694 L398 664 L214 664 L161 527 Q182 538 204.5 544 Q227 550 250 550 Q309 550 341.5 515.5 Q374 481 365 424 Q356 366 312 331 Q268 296 204 296 Q149 296 112.5 322.5 Q76 349 67 394 L108 401 Q116 367 141.5 347.5 Q167 328 205 328 Q252 328 285 355 Q318 382 325 425 Q331 467 308 493 Q285 519 240 519 Q216 519 191.5 511 Q167 503 150 490 L110 490 L190 694 L405 694 Z M732 706 L162 -13 L117 -13 L688 706 L732 706 Z M780 291 Q774 264 752 242 Q730 220 694 206 Q729 190 743.5 163.5 Q758 137 750 102 Q739 53 692 23 Q645 -7 584 -7 Q520 -7 483.5 26.5 Q447 60 459 112 Q467 145 491.5 169 Q516 193 561 210 Q535 223 522.5 247.5 Q510 272 516 300 Q525 341 569 369 Q613 397 667 397 Q723 397 756 365.5 Q789 334 780 291 Z M586 23 Q629 23 666 47 Q703 71 711 107 Q720 144 693 168 Q666 192 622 192 Q579 192 542.5 168 Q506 144 498 108 Q490 71 516.5 47 Q543 23 586 23 Z M632 223 Q670 223 701.5 244 Q733 265 740 295 Q747 325 725 346 Q703 367 664 367 Q625 367 594 347 Q563 327 556 296 Q549 265 571.5 244 Q594 223 632 223 Z " />
<glyph glyph-name="seveneighths" unicode="&#x215e;" horiz-adv-x="800" d="M159 303 L115 303 Q138 385 190.5 467 Q243 549 355 662 L114 662 L120 693 L406 693 L401 666 L359 621 Q273 527 228.5 455 Q184 383 159 303 Z M696 706 L126 -13 L81 -13 L652 706 L696 706 Z M774 291 Q768 264 746 242 Q724 220 688 206 Q723 190 737.5 163.5 Q752 137 744 102 Q733 53 686 23 Q639 -7 578 -7 Q514 -7 477.5 26.5 Q441 60 453 112 Q461 145 485.5 169 Q510 193 555 210 Q529 223 516.5 247.5 Q504 272 510 300 Q519 341 563 369 Q607 397 661 397 Q717 397 750 365.5 Q783 334 774 291 Z M580 23 Q623 23 660 47 Q697 71 705 107 Q714 144 687 168 Q660 192 616 192 Q573 192 536.5 168 Q500 144 492 108 Q484 71 510.5 47 Q537 23 580 23 Z M626 223 Q664 223 695.5 244 Q727 265 734 295 Q741 325 719 346 Q697 367 658 367 Q619 367 588 347 Q557 327 550 296 Q543 265 565.5 244 Q588 223 626 223 Z " />
<glyph glyph-name="onefifth" unicode="&#xe07c;" horiz-adv-x="806" d="M338 334 L330 303 L66 303 L74 334 L195 334 L266 641 Q243 618 202.5 592.5 Q162 567 131 556 L126 586 Q164 601 212 634.5 Q260 668 278 693 L316 693 L234 334 L338 334 Z M752 706 L182 -13 L137 -13 L708 706 L752 706 Z M789 391 L782 361 L598 361 L545 224 Q566 235 588.5 241 Q611 247 634 247 Q693 247 725.5 212.5 Q758 178 749 121 Q740 63 696 28 Q652 -7 588 -7 Q533 -7 496.5 19.5 Q460 46 451 91 L492 98 Q500 64 525.5 44.5 Q551 25 589 25 Q636 25 669 52 Q702 79 709 122 Q715 164 692 190 Q669 216 624 216 Q600 216 575.5 208 Q551 200 534 187 L494 187 L574 391 L789 391 Z " />
<glyph glyph-name="twofifths" unicode="&#xe07d;" horiz-adv-x="806" d="M328 334 L321 303 L43 303 Q58 343 94 378 Q130 413 217 461 Q288 501 315.5 527.5 Q343 554 350 584 Q358 620 337.5 645 Q317 670 275 670 Q230 670 195 640.5 Q160 611 141 560 L108 569 Q131 630 176 665 Q221 700 279 700 Q338 700 369 665.5 Q400 631 389 581 Q382 547 355 518.5 Q328 490 235 436 Q170 398 142.5 376.5 Q115 355 101 334 L328 334 Z M752 706 L182 -13 L137 -13 L708 706 L752 706 Z M789 391 L782 361 L598 361 L545 224 Q566 235 588.5 241 Q611 247 634 247 Q693 247 725.5 212.5 Q758 178 749 121 Q740 63 696 28 Q652 -7 588 -7 Q533 -7 496.5 19.5 Q460 46 451 91 L492 98 Q500 64 525.5 44.5 Q551 25 589 25 Q636 25 669 52 Q702 79 709 122 Q715 164 692 190 Q669 216 624 216 Q600 216 575.5 208 Q551 200 534 187 L494 187 L574 391 L789 391 Z " />
<glyph glyph-name="threefifths" unicode="&#xe07e;" horiz-adv-x="806" d="M398 693 L391 663 L241 543 Q300 541 330.5 514.5 Q361 488 361 439 Q361 376 313 336 Q265 296 194 296 Q140 296 104 322.5 Q68 349 58 394 L100 402 Q107 368 133.5 348 Q160 328 199 328 Q250 328 285 359 Q320 390 320 436 Q320 471 296.5 492 Q273 513 235 513 L183 513 L189 540 L339 661 L134 661 L141 693 L398 693 Z M744 706 L174 -13 L129 -13 L700 706 L744 706 Z M789 391 L782 361 L598 361 L545 224 Q566 235 588.5 241 Q611 247 634 247 Q693 247 725.5 212.5 Q758 178 749 121 Q740 63 696 28 Q652 -7 588 -7 Q533 -7 496.5 19.5 Q460 46 451 91 L492 98 Q500 64 525.5 44.5 Q551 25 589 25 Q636 25 669 52 Q702 79 709 122 Q715 164 692 190 Q669 216 624 216 Q600 216 575.5 208 Q551 200 534 187 L494 187 L574 391 L789 391 Z " />
<glyph glyph-name="fourfifths" unicode="&#xe07f;" horiz-adv-x="806" d="M316 397 L294 303 L255 303 L277 397 L59 397 L66 427 L336 693 L384 693 L323 427 L376 427 L369 397 L316 397 Z M109 427 L284 427 L334 649 L109 427 Z M748 706 L178 -13 L133 -13 L704 706 L748 706 Z M789 391 L782 361 L598 361 L545 224 Q566 235 588.5 241 Q611 247 634 247 Q693 247 725.5 212.5 Q758 178 749 121 Q740 63 696 28 Q652 -7 588 -7 Q533 -7 496.5 19.5 Q460 46 451 91 L492 98 Q500 64 525.5 44.5 Q551 25 589 25 Q636 25 669 52 Q702 79 709 122 Q715 164 692 190 Q669 216 624 216 Q600 216 575.5 208 Q551 200 534 187 L494 187 L574 391 L789 391 Z " />
<glyph glyph-name="onesixth" unicode="&#xe080;" horiz-adv-x="806" d="M338 334 L330 303 L66 303 L74 334 L195 334 L266 641 Q243 618 202.5 592.5 Q162 567 131 556 L126 586 Q164 601 212 634.5 Q260 668 278 693 L316 693 L234 334 L338 334 Z M752 706 L182 -13 L137 -13 L708 706 L752 706 Z M678 397 Q726 397 754.5 373.5 Q783 350 791 305 L752 299 Q745 332 725.5 349.5 Q706 367 674 367 Q617 367 571.5 312 Q526 257 513 180 Q550 215 582 230.5 Q614 246 646 246 Q697 246 727.5 213 Q758 180 750 128 Q742 71 697.5 32 Q653 -7 594 -7 Q526 -7 495 47.5 Q464 102 477 186 Q491 277 546 337 Q601 397 678 397 Z M637 216 Q608 216 578.5 199.5 Q549 183 510 143 Q508 90 532 56.5 Q556 23 597 23 Q637 23 671 54 Q705 85 712 127 Q718 166 696.5 191 Q675 216 637 216 Z " />
<glyph glyph-name="fivesixths" unicode="&#xe081;" horiz-adv-x="806" d="M405 694 L398 664 L214 664 L161 527 Q182 538 204.5 544 Q227 550 250 550 Q309 550 341.5 515.5 Q374 481 365 424 Q356 366 312 331 Q268 296 204 296 Q149 296 112.5 322.5 Q76 349 67 394 L108 401 Q116 367 141.5 347.5 Q167 328 205 328 Q252 328 285 355 Q318 382 325 425 Q331 467 308 493 Q285 519 240 519 Q216 519 191.5 511 Q167 503 150 490 L110 490 L190 694 L405 694 Z M732 706 L162 -13 L117 -13 L688 706 L732 706 Z M678 397 Q726 397 754.5 373.5 Q783 350 791 305 L752 299 Q745 332 725.5 349.5 Q706 367 674 367 Q617 367 571.5 312 Q526 257 513 180 Q550 215 582 230.5 Q614 246 646 246 Q697 246 727.5 213 Q758 180 750 128 Q742 71 697.5 32 Q653 -7 594 -7 Q526 -7 495 47.5 Q464 102 477 186 Q491 277 546 337 Q601 397 678 397 Z M637 216 Q608 216 578.5 199.5 Q549 183 510 143 Q508 90 532 56.5 Q556 23 597 23 Q637 23 671 54 Q705 85 712 127 Q718 166 696.5 191 Q675 216 637 216 Z " />
<glyph glyph-name="oneseventh" unicode="&#xe082;" horiz-adv-x="800" d="M338 334 L330 303 L66 303 L74 334 L195 334 L266 641 Q243 618 202.5 592.5 Q162 567 131 556 L126 586 Q164 601 212 634.5 Q260 668 278 693 L316 693 L234 334 L338 334 Z M732 706 L162 -13 L117 -13 L688 706 L732 706 Z M543 0 L499 0 Q522 82 574.5 164 Q627 246 739 359 L498 359 L504 390 L790 390 L785 363 L743 318 Q657 224 612.5 152 Q568 80 543 0 Z " />
<glyph glyph-name="twosevenths" unicode="&#xe083;" horiz-adv-x="800" d="M328 334 L321 303 L43 303 Q58 343 94 378 Q130 413 217 461 Q288 501 315.5 527.5 Q343 554 350 584 Q358 620 337.5 645 Q317 670 275 670 Q230 670 195 640.5 Q160 611 141 560 L108 569 Q131 630 176 665 Q221 700 279 700 Q338 700 369 665.5 Q400 631 389 581 Q382 547 355 518.5 Q328 490 235 436 Q170 398 142.5 376.5 Q115 355 101 334 L328 334 Z M732 706 L162 -13 L117 -13 L688 706 L732 706 Z M543 0 L499 0 Q522 82 574.5 164 Q627 246 739 359 L498 359 L504 390 L790 390 L785 363 L743 318 Q657 224 612.5 152 Q568 80 543 0 Z " />
<glyph glyph-name="threesevenths" unicode="&#xe084;" horiz-adv-x="800" d="M398 693 L391 663 L241 543 Q300 541 330.5 514.5 Q361 488 361 439 Q361 376 313 336 Q265 296 194 296 Q140 296 104 322.5 Q68 349 58 394 L100 402 Q107 368 133.5 348 Q160 328 199 328 Q250 328 285 359 Q320 390 320 436 Q320 471 296.5 492 Q273 513 235 513 L183 513 L189 540 L339 661 L134 661 L141 693 L398 693 Z M712 706 L142 -13 L97 -13 L668 706 L712 706 Z M543 0 L499 0 Q522 82 574.5 164 Q627 246 739 359 L498 359 L504 390 L790 390 L785 363 L743 318 Q657 224 612.5 152 Q568 80 543 0 Z " />
<glyph glyph-name="foursevenths" unicode="&#xe085;" horiz-adv-x="800" d="M316 397 L294 303 L255 303 L277 397 L59 397 L66 427 L336 693 L384 693 L323 427 L376 427 L369 397 L316 397 Z M109 427 L284 427 L334 649 L109 427 Z M722 706 L152 -13 L107 -13 L678 706 L722 706 Z M543 0 L499 0 Q522 82 574.5 164 Q627 246 739 359 L498 359 L504 390 L790 390 L785 363 L743 318 Q657 224 612.5 152 Q568 80 543 0 Z " />
<glyph glyph-name="fivesevenths" unicode="&#xe086;" horiz-adv-x="800" d="M405 694 L398 664 L214 664 L161 527 Q182 538 204.5 544 Q227 550 250 550 Q309 550 341.5 515.5 Q374 481 365 424 Q356 366 312 331 Q268 296 204 296 Q149 296 112.5 322.5 Q76 349 67 394 L108 401 Q116 367 141.5 347.5 Q167 328 205 328 Q252 328 285 355 Q318 382 325 425 Q331 467 308 493 Q285 519 240 519 Q216 519 191.5 511 Q167 503 150 490 L110 490 L190 694 L405 694 Z M713 706 L143 -13 L98 -13 L669 706 L713 706 Z M543 0 L499 0 Q522 82 574.5 164 Q627 246 739 359 L498 359 L504 390 L790 390 L785 363 L743 318 Q657 224 612.5 152 Q568 80 543 0 Z " />
<glyph glyph-name="sixsevenths" unicode="&#xe087;" horiz-adv-x="800" d="M294 700 Q342 700 370.5 676.5 Q399 653 407 608 L368 602 Q361 635 341.5 652.5 Q322 670 290 670 Q233 670 187.5 615 Q142 560 129 483 Q166 518 198 533.5 Q230 549 262 549 Q313 549 343.5 516 Q374 483 366 431 Q358 374 313.5 335 Q269 296 210 296 Q142 296 111 350.5 Q80 405 93 489 Q107 580 162 640 Q217 700 294 700 Z M253 519 Q224 519 194.5 502.5 Q165 486 126 446 Q124 393 148 359.5 Q172 326 213 326 Q253 326 287 357 Q321 388 328 430 Q334 469 312.5 494 Q291 519 253 519 Z M712 706 L142 -13 L97 -13 L668 706 L712 706 Z M543 0 L499 0 Q522 82 574.5 164 Q627 246 739 359 L498 359 L504 390 L790 390 L785 363 L743 318 Q657 224 612.5 152 Q568 80 543 0 Z " />
<glyph glyph-name="oneninth" unicode="&#xe088;" horiz-adv-x="806" d="M338 334 L330 303 L66 303 L74 334 L195 334 L266 641 Q243 618 202.5 592.5 Q162 567 131 556 L126 586 Q164 601 212 634.5 Q260 668 278 693 L316 693 L234 334 L338 334 Z M752 706 L182 -13 L137 -13 L708 706 L752 706 Z M559 -7 Q508 -7 476 18.5 Q444 44 438 90 L478 97 Q483 62 505.5 43 Q528 24 563 24 Q620 24 664.5 77 Q709 130 723 210 Q689 178 657 163 Q625 148 591 148 Q538 148 508 180.5 Q478 213 486 264 Q495 321 540 359 Q585 397 643 397 Q710 397 741.5 342.5 Q773 288 760 205 Q747 115 692 54 Q637 -7 559 -7 Z M600 178 Q630 178 660 194 Q690 210 727 247 Q729 301 705 334 Q681 367 640 367 Q600 367 566 337 Q532 307 525 264 Q519 226 540 202 Q561 178 600 178 Z " />
<glyph glyph-name="twoninths" unicode="&#xe089;" horiz-adv-x="806" d="M328 334 L321 303 L43 303 Q58 343 94 378 Q130 413 217 461 Q288 501 315.5 527.5 Q343 554 350 584 Q358 620 337.5 645 Q317 670 275 670 Q230 670 195 640.5 Q160 611 141 560 L108 569 Q131 630 176 665 Q221 700 279 700 Q338 700 369 665.5 Q400 631 389 581 Q382 547 355 518.5 Q328 490 235 436 Q170 398 142.5 376.5 Q115 355 101 334 L328 334 Z M750 706 L180 -13 L135 -13 L706 706 L750 706 Z M559 -7 Q508 -7 476 18.5 Q444 44 438 90 L478 97 Q483 62 505.5 43 Q528 24 563 24 Q620 24 664.5 77 Q709 130 723 210 Q689 178 657 163 Q625 148 591 148 Q538 148 508 180.5 Q478 213 486 264 Q495 321 540 359 Q585 397 643 397 Q710 397 741.5 342.5 Q773 288 760 205 Q747 115 692 54 Q637 -7 559 -7 Z M600 178 Q630 178 660 194 Q690 210 727 247 Q729 301 705 334 Q681 367 640 367 Q600 367 566 337 Q532 307 525 264 Q519 226 540 202 Q561 178 600 178 Z " />
<glyph glyph-name="fourninths" unicode="&#xe08a;" horiz-adv-x="806" d="M316 397 L294 303 L255 303 L277 397 L59 397 L66 427 L336 693 L384 693 L323 427 L376 427 L369 397 L316 397 Z M109 427 L284 427 L334 649 L109 427 Z M737 706 L167 -13 L122 -13 L693 706 L737 706 Z M559 -7 Q508 -7 476 18.5 Q444 44 438 90 L478 97 Q483 62 505.5 43 Q528 24 563 24 Q620 24 664.5 77 Q709 130 723 210 Q689 178 657 163 Q625 148 591 148 Q538 148 508 180.5 Q478 213 486 264 Q495 321 540 359 Q585 397 643 397 Q710 397 741.5 342.5 Q773 288 760 205 Q747 115 692 54 Q637 -7 559 -7 Z M600 178 Q630 178 660 194 Q690 210 727 247 Q729 301 705 334 Q681 367 640 367 Q600 367 566 337 Q532 307 525 264 Q519 226 540 202 Q561 178 600 178 Z " />
<glyph glyph-name="fiveninths" unicode="&#xe08b;" horiz-adv-x="806" d="M405 694 L398 664 L214 664 L161 527 Q182 538 204.5 544 Q227 550 250 550 Q309 550 341.5 515.5 Q374 481 365 424 Q356 366 312 331 Q268 296 204 296 Q149 296 112.5 322.5 Q76 349 67 394 L108 401 Q116 367 141.5 347.5 Q167 328 205 328 Q252 328 285 355 Q318 382 325 425 Q331 467 308 493 Q285 519 240 519 Q216 519 191.5 511 Q167 503 150 490 L110 490 L190 694 L405 694 Z M732 706 L162 -13 L117 -13 L688 706 L732 706 Z M559 -7 Q508 -7 476 18.5 Q444 44 438 90 L478 97 Q483 62 505.5 43 Q528 24 563 24 Q620 24 664.5 77 Q709 130 723 210 Q689 178 657 163 Q625 148 591 148 Q538 148 508 180.5 Q478 213 486 264 Q495 321 540 359 Q585 397 643 397 Q710 397 741.5 342.5 Q773 288 760 205 Q747 115 692 54 Q637 -7 559 -7 Z M600 178 Q630 178 660 194 Q690 210 727 247 Q729 301 705 334 Q681 367 640 367 Q600 367 566 337 Q532 307 525 264 Q519 226 540 202 Q561 178 600 178 Z " />
<glyph glyph-name="sevenninths" unicode="&#xe08c;" horiz-adv-x="800" d="M159 303 L115 303 Q138 385 190.5 467 Q243 549 355 662 L114 662 L120 693 L406 693 L401 666 L359 621 Q273 527 228.5 455 Q184 383 159 303 Z M696 706 L126 -13 L81 -13 L652 706 L696 706 Z M553 -7 Q502 -7 470 18.5 Q438 44 432 90 L472 97 Q477 62 499.5 43 Q522 24 557 24 Q614 24 658.5 77 Q703 130 717 210 Q683 178 651 163 Q619 148 585 148 Q532 148 502 180.5 Q472 213 480 264 Q489 321 534 359 Q579 397 637 397 Q704 397 735.5 342.5 Q767 288 754 205 Q741 115 686 54 Q631 -7 553 -7 Z M594 178 Q624 178 654 194 Q684 210 721 247 Q723 301 699 334 Q675 367 634 367 Q594 367 560 337 Q526 307 519 264 Q513 226 534 202 Q555 178 594 178 Z " />
<glyph glyph-name="eightninths" unicode="&#xe08d;" horiz-adv-x="806" d="M396 594 Q390 567 368 545 Q346 523 310 509 Q345 493 359.5 466.5 Q374 440 366 405 Q355 356 308 326 Q261 296 200 296 Q136 296 99.5 329.5 Q63 363 75 415 Q83 448 107.5 472 Q132 496 177 513 Q151 526 138.5 550.5 Q126 575 132 603 Q141 644 185 672 Q229 700 283 700 Q339 700 372 668.5 Q405 637 396 594 Z M202 326 Q245 326 282 350 Q319 374 327 410 Q336 447 309 471 Q282 495 238 495 Q195 495 158.5 471 Q122 447 114 411 Q106 374 132.5 350 Q159 326 202 326 Z M248 526 Q286 526 317.5 547 Q349 568 356 598 Q363 628 341 649 Q319 670 280 670 Q241 670 210 650 Q179 630 172 599 Q165 568 187.5 547 Q210 526 248 526 Z M732 706 L162 -13 L117 -13 L688 706 L732 706 Z M559 -7 Q508 -7 476 18.5 Q444 44 438 90 L478 97 Q483 62 505.5 43 Q528 24 563 24 Q620 24 664.5 77 Q709 130 723 210 Q689 178 657 163 Q625 148 591 148 Q538 148 508 180.5 Q478 213 486 264 Q495 321 540 359 Q585 397 643 397 Q710 397 741.5 342.5 Q773 288 760 205 Q747 115 692 54 Q637 -7 559 -7 Z M600 178 Q630 178 660 194 Q690 210 727 247 Q729 301 705 334 Q681 367 640 367 Q600 367 566 337 Q532 307 525 264 Q519 226 540 202 Q561 178 600 178 Z " />
<glyph glyph-name="zeroinferior" unicode="&#x2080;" horiz-adv-x="353" d="M65 195 Q46 116 67 69.5 Q88 23 135 23 Q183 23 224.5 69 Q266 115 284 195 Q302 275 282 321 Q262 367 215 367 Q168 367 126 320.5 Q84 274 65 195 Z M323 190 Q302 100 250 46.5 Q198 -7 131 -7 Q62 -7 34 50 Q6 107 27 199 Q48 289 100 343 Q152 397 219 397 Q288 397 316.5 339.5 Q345 282 323 190 Z " />
<glyph glyph-name="oneinferior" unicode="&#x2081;" horiz-adv-x="353" d="M269 31 L261 0 L-3 0 L5 31 L126 31 L197 338 Q174 315 133.5 289.5 Q93 264 62 253 L57 283 Q95 298 143 331.5 Q191 365 209 390 L247 390 L165 31 L269 31 Z " />
<glyph glyph-name="twoinferior" unicode="&#x2082;" horiz-adv-x="353" d="M259 31 L252 0 L-26 0 Q-11 40 25 75 Q61 110 148 158 Q219 198 246.5 224.5 Q274 251 281 281 Q289 317 268.5 342 Q248 367 206 367 Q161 367 126 337.5 Q91 308 72 257 L39 266 Q62 327 107 362 Q152 397 210 397 Q269 397 300 362.5 Q331 328 320 278 Q313 244 286 215.5 Q259 187 166 133 Q101 95 73.5 73.5 Q46 52 32 31 L259 31 Z " />
<glyph glyph-name="threeinferior" unicode="&#x2083;" horiz-adv-x="353" d="M329 390 L322 360 L172 240 Q231 238 261.5 211.5 Q292 185 292 136 Q292 73 244 33 Q196 -7 125 -7 Q71 -7 35 19.5 Q-1 46 -11 91 L31 99 Q38 65 64.5 45 Q91 25 130 25 Q181 25 216 56 Q251 87 251 133 Q251 168 227.5 189 Q204 210 166 210 L114 210 L120 237 L270 358 L65 358 L72 390 L329 390 Z " />
<glyph glyph-name="fourinferior" unicode="&#x2084;" horiz-adv-x="353" d="M247 94 L225 0 L186 0 L208 94 L-10 94 L-3 124 L267 390 L315 390 L254 124 L307 124 L300 94 L247 94 Z M40 124 L215 124 L265 346 L40 124 Z " />
<glyph glyph-name="fiveinferior" unicode="&#x2085;" horiz-adv-x="353" d="M336 391 L329 361 L145 361 L92 224 Q113 235 135.5 241 Q158 247 181 247 Q240 247 272.5 212.5 Q305 178 296 121 Q287 63 243 28 Q199 -7 135 -7 Q80 -7 43.5 19.5 Q7 46 -2 91 L39 98 Q47 64 72.5 44.5 Q98 25 136 25 Q183 25 216 52 Q249 79 256 122 Q262 164 239 190 Q216 216 171 216 Q147 216 122.5 208 Q98 200 81 187 L41 187 L121 391 L336 391 Z " />
<glyph glyph-name="sixinferior" unicode="&#x2086;" horiz-adv-x="353" d="M225 397 Q273 397 301.5 373.5 Q330 350 338 305 L299 299 Q292 332 272.5 349.5 Q253 367 221 367 Q164 367 118.5 312 Q73 257 60 180 Q97 215 129 230.5 Q161 246 193 246 Q244 246 274.5 213 Q305 180 297 128 Q289 71 244.5 32 Q200 -7 141 -7 Q73 -7 42 47.5 Q11 102 24 186 Q38 277 93 337 Q148 397 225 397 Z M184 216 Q155 216 125.5 199.5 Q96 183 57 143 Q55 90 79 56.5 Q103 23 144 23 Q184 23 218 54 Q252 85 259 127 Q265 166 243.5 191 Q222 216 184 216 Z " />
<glyph glyph-name="seveninferior" unicode="&#x2087;" horiz-adv-x="347" d="M90 0 L46 0 Q69 82 121.5 164 Q174 246 286 359 L45 359 L51 390 L337 390 L332 363 L290 318 Q204 224 159.5 152 Q115 80 90 0 Z " />
<glyph glyph-name="eightinferior" unicode="&#x2088;" horiz-adv-x="353" d="M327 291 Q321 264 299 242 Q277 220 241 206 Q276 190 290.5 163.5 Q305 137 297 102 Q286 53 239 23 Q192 -7 131 -7 Q67 -7 30.5 26.5 Q-6 60 6 112 Q14 145 38.5 169 Q63 193 108 210 Q82 223 69.5 247.5 Q57 272 63 300 Q72 341 116 369 Q160 397 214 397 Q270 397 303 365.5 Q336 334 327 291 Z M133 23 Q176 23 213 47 Q250 71 258 107 Q267 144 240 168 Q213 192 169 192 Q126 192 89.5 168 Q53 144 45 108 Q37 71 63.5 47 Q90 23 133 23 Z M179 223 Q217 223 248.5 244 Q280 265 287 295 Q294 325 272 346 Q250 367 211 367 Q172 367 141 347 Q110 327 103 296 Q96 265 118.5 244 Q141 223 179 223 Z " />
<glyph glyph-name="nineinferior" unicode="&#x2089;" horiz-adv-x="353" d="M106 -7 Q55 -7 23 18.5 Q-9 44 -15 90 L25 97 Q30 62 52.5 43 Q75 24 110 24 Q167 24 211.5 77 Q256 130 270 210 Q236 178 204 163 Q172 148 138 148 Q85 148 55 180.5 Q25 213 33 264 Q42 321 87 359 Q132 397 190 397 Q257 397 288.5 342.5 Q320 288 307 205 Q294 115 239 54 Q184 -7 106 -7 Z M147 178 Q177 178 207 194 Q237 210 274 247 Q276 301 252 334 Q228 367 187 367 Q147 367 113 337 Q79 307 72 264 Q66 226 87 202 Q108 178 147 178 Z " />
<glyph glyph-name="zero.numerator" unicode="&#xe08e;" horiz-adv-x="353" d="M161 619 Q142 540 163 493.5 Q184 447 231 447 Q279 447 320.5 493 Q362 539 380 619 Q398 699 378 745 Q358 791 311 791 Q264 791 222 744.5 Q180 698 161 619 Z M419 614 Q398 524 346 470.5 Q294 417 227 417 Q158 417 130 474 Q102 531 123 623 Q144 713 196 767 Q248 821 315 821 Q384 821 412.5 763.5 Q441 706 419 614 Z " />
<glyph glyph-name="one.numerator" unicode="&#xe08f;" horiz-adv-x="353" d="M365 455 L357 424 L93 424 L101 455 L222 455 L293 762 Q270 739 229.5 713.5 Q189 688 158 677 L153 707 Q191 722 239 755.5 Q287 789 305 814 L343 814 L261 455 L365 455 Z " />
<glyph glyph-name="two.numerator" unicode="&#xe090;" horiz-adv-x="353" d="M355 455 L348 424 L70 424 Q85 464 121 499 Q157 534 244 582 Q315 622 342.5 648.5 Q370 675 377 705 Q385 741 364.5 766 Q344 791 302 791 Q257 791 222 761.5 Q187 732 168 681 L135 690 Q158 751 203 786 Q248 821 306 821 Q365 821 396 786.5 Q427 752 416 702 Q409 668 382 639.5 Q355 611 262 557 Q197 519 169.5 497.5 Q142 476 128 455 L355 455 Z " />
<glyph glyph-name="three.numerator" unicode="&#xe091;" horiz-adv-x="353" d="M425 814 L418 784 L268 664 Q327 662 357.5 635.5 Q388 609 388 560 Q388 497 340 457 Q292 417 221 417 Q167 417 131 443.5 Q95 470 85 515 L127 523 Q134 489 160.5 469 Q187 449 226 449 Q277 449 312 480 Q347 511 347 557 Q347 592 323.5 613 Q300 634 262 634 L210 634 L216 661 L366 782 L161 782 L168 814 L425 814 Z " />
<glyph glyph-name="four.numerator" unicode="&#xe092;" horiz-adv-x="353" d="M343 518 L321 424 L282 424 L304 518 L86 518 L93 548 L363 814 L411 814 L350 548 L403 548 L396 518 L343 518 Z M136 548 L311 548 L361 770 L136 548 Z " />
<glyph glyph-name="five.numerator" unicode="&#xe093;" horiz-adv-x="353" d="M432 815 L425 785 L241 785 L188 648 Q209 659 231.5 665 Q254 671 277 671 Q336 671 368.5 636.5 Q401 602 392 545 Q383 487 339 452 Q295 417 231 417 Q176 417 139.5 443.5 Q103 470 94 515 L135 522 Q143 488 168.5 468.5 Q194 449 232 449 Q279 449 312 476 Q345 503 352 546 Q358 588 335 614 Q312 640 267 640 Q243 640 218.5 632 Q194 624 177 611 L137 611 L217 815 L432 815 Z " />
<glyph glyph-name="six.numerator" unicode="&#xe094;" horiz-adv-x="353" d="M321 821 Q369 821 397.5 797.5 Q426 774 434 729 L395 723 Q388 756 368.5 773.5 Q349 791 317 791 Q260 791 214.5 736 Q169 681 156 604 Q193 639 225 654.5 Q257 670 289 670 Q340 670 370.5 637 Q401 604 393 552 Q385 495 340.5 456 Q296 417 237 417 Q169 417 138 471.5 Q107 526 120 610 Q134 701 189 761 Q244 821 321 821 Z M280 640 Q251 640 221.5 623.5 Q192 607 153 567 Q151 514 175 480.5 Q199 447 240 447 Q280 447 314 478 Q348 509 355 551 Q361 590 339.5 615 Q318 640 280 640 Z " />
<glyph glyph-name="seven.numerator" unicode="&#xe095;" horiz-adv-x="347" d="M186 424 L142 424 Q165 506 217.5 588 Q270 670 382 783 L141 783 L147 814 L433 814 L428 787 L386 742 Q300 648 255.5 576 Q211 504 186 424 Z " />
<glyph glyph-name="eight.numerator" unicode="&#xe096;" horiz-adv-x="353" d="M423 715 Q417 688 395 666 Q373 644 337 630 Q372 614 386.5 587.5 Q401 561 393 526 Q382 477 335 447 Q288 417 227 417 Q163 417 126.5 450.5 Q90 484 102 536 Q110 569 134.5 593 Q159 617 204 634 Q178 647 165.5 671.5 Q153 696 159 724 Q168 765 212 793 Q256 821 310 821 Q366 821 399 789.5 Q432 758 423 715 Z M229 447 Q272 447 309 471 Q346 495 354 531 Q363 568 336 592 Q309 616 265 616 Q222 616 185.5 592 Q149 568 141 532 Q133 495 159.5 471 Q186 447 229 447 Z M275 647 Q313 647 344.5 668 Q376 689 383 719 Q390 749 368 770 Q346 791 307 791 Q268 791 237 771 Q206 751 199 720 Q192 689 214.5 668 Q237 647 275 647 Z " />
<glyph glyph-name="nine.numerator" unicode="&#xe097;" horiz-adv-x="353" d="M202 417 Q151 417 119 442.5 Q87 468 81 514 L121 521 Q126 486 148.5 467 Q171 448 206 448 Q263 448 307.5 501 Q352 554 366 634 Q332 602 300 587 Q268 572 234 572 Q181 572 151 604.5 Q121 637 129 688 Q138 745 183 783 Q228 821 286 821 Q353 821 384.5 766.5 Q416 712 403 629 Q390 539 335 478 Q280 417 202 417 Z M243 602 Q273 602 303 618 Q333 634 370 671 Q372 725 348 758 Q324 791 283 791 Q243 791 209 761 Q175 731 168 688 Q162 650 183 626 Q204 602 243 602 Z " />
<glyph glyph-name="zero.denominator" unicode="&#xe098;" horiz-adv-x="353" d="M37 74 Q18 -5 39 -51.5 Q60 -98 107 -98 Q155 -98 196.5 -52 Q238 -6 256 74 Q274 154 254 200 Q234 246 187 246 Q140 246 98 199.5 Q56 153 37 74 Z M295 69 Q274 -21 222 -74.5 Q170 -128 103 -128 Q34 -128 6 -71 Q-22 -14 -1 78 Q20 168 72 222 Q124 276 191 276 Q260 276 288.5 218.5 Q317 161 295 69 Z " />
<glyph glyph-name="one.denominator" unicode="&#xe099;" horiz-adv-x="353" d="M241 -90 L233 -121 L-31 -121 L-23 -90 L98 -90 L169 217 Q146 194 105.5 168.5 Q65 143 34 132 L29 162 Q67 177 115 210.5 Q163 244 181 269 L219 269 L137 -90 L241 -90 Z " />
<glyph glyph-name="two.denominator" unicode="&#xe09a;" horiz-adv-x="353" d="M231 -90 L224 -121 L-54 -121 Q-39 -81 -3 -46 Q33 -11 120 37 Q191 77 218.5 103.5 Q246 130 253 160 Q261 196 240.5 221 Q220 246 178 246 Q133 246 98 216.5 Q63 187 44 136 L11 145 Q34 206 79 241 Q124 276 182 276 Q241 276 272 241.5 Q303 207 292 157 Q285 123 258 94.5 Q231 66 138 12 Q73 -26 45.5 -47.5 Q18 -69 4 -90 L231 -90 Z " />
<glyph glyph-name="three.denominator" unicode="&#xe09b;" horiz-adv-x="353" d="M301 269 L294 239 L144 119 Q203 117 233.5 90.5 Q264 64 264 15 Q264 -48 216 -88 Q168 -128 97 -128 Q43 -128 7 -101.5 Q-29 -75 -39 -30 L3 -22 Q10 -56 36.5 -76 Q63 -96 102 -96 Q153 -96 188 -65 Q223 -34 223 12 Q223 47 199.5 68 Q176 89 138 89 L86 89 L92 116 L242 237 L37 237 L44 269 L301 269 Z " />
<glyph glyph-name="four.denominator" unicode="&#xe09c;" horiz-adv-x="353" d="M219 -27 L197 -121 L158 -121 L180 -27 L-38 -27 L-31 3 L239 269 L287 269 L226 3 L279 3 L272 -27 L219 -27 Z M12 3 L187 3 L237 225 L12 3 Z " />
<glyph glyph-name="five.denominator" unicode="&#xe09d;" horiz-adv-x="353" d="M308 270 L301 240 L117 240 L64 103 Q85 114 107.5 120 Q130 126 153 126 Q212 126 244.5 91.5 Q277 57 268 0 Q259 -58 215 -93 Q171 -128 107 -128 Q52 -128 15.5 -101.5 Q-21 -75 -30 -30 L11 -23 Q19 -57 44.5 -76.5 Q70 -96 108 -96 Q155 -96 188 -69 Q221 -42 228 1 Q234 43 211 69 Q188 95 143 95 Q119 95 94.5 87 Q70 79 53 66 L13 66 L93 270 L308 270 Z " />
<glyph glyph-name="six.denominator" unicode="&#xe09e;" horiz-adv-x="353" d="M197 276 Q245 276 273.5 252.5 Q302 229 310 184 L271 178 Q264 211 244.5 228.5 Q225 246 193 246 Q136 246 90.5 191 Q45 136 32 59 Q69 94 101 109.5 Q133 125 165 125 Q216 125 246.5 92 Q277 59 269 7 Q261 -50 216.5 -89 Q172 -128 113 -128 Q45 -128 14 -73.5 Q-17 -19 -4 65 Q10 156 65 216 Q120 276 197 276 Z M156 95 Q127 95 97.5 78.5 Q68 62 29 22 Q27 -31 51 -64.5 Q75 -98 116 -98 Q156 -98 190 -67 Q224 -36 231 6 Q237 45 215.5 70 Q194 95 156 95 Z " />
<glyph glyph-name="seven.denominator" unicode="&#xe09f;" horiz-adv-x="347" d="M62 -121 L18 -121 Q41 -39 93.5 43 Q146 125 258 238 L17 238 L23 269 L309 269 L304 242 L262 197 Q176 103 131.5 31 Q87 -41 62 -121 Z " />
<glyph glyph-name="eight.denominator" unicode="&#xe0a0;" horiz-adv-x="353" d="M299 170 Q293 143 271 121 Q249 99 213 85 Q248 69 262.5 42.5 Q277 16 269 -19 Q258 -68 211 -98 Q164 -128 103 -128 Q39 -128 2.5 -94.5 Q-34 -61 -22 -9 Q-14 24 10.5 48 Q35 72 80 89 Q54 102 41.5 126.5 Q29 151 35 179 Q44 220 88 248 Q132 276 186 276 Q242 276 275 244.5 Q308 213 299 170 Z M105 -98 Q148 -98 185 -74 Q222 -50 230 -14 Q239 23 212 47 Q185 71 141 71 Q98 71 61.5 47 Q25 23 17 -13 Q9 -50 35.5 -74 Q62 -98 105 -98 Z M151 102 Q189 102 220.5 123 Q252 144 259 174 Q266 204 244 225 Q222 246 183 246 Q144 246 113 226 Q82 206 75 175 Q68 144 90.5 123 Q113 102 151 102 Z " />
<glyph glyph-name="nine.denominator" unicode="&#xe0a1;" horiz-adv-x="353" d="M78 -128 Q27 -128 -5 -102.5 Q-37 -77 -43 -31 L-3 -24 Q2 -59 24.5 -78 Q47 -97 82 -97 Q139 -97 183.5 -44 Q228 9 242 89 Q208 57 176 42 Q144 27 110 27 Q57 27 27 59.5 Q-3 92 5 143 Q14 200 59 238 Q104 276 162 276 Q229 276 260.5 221.5 Q292 167 279 84 Q266 -6 211 -67 Q156 -128 78 -128 Z M119 57 Q149 57 179 73 Q209 89 246 126 Q248 180 224 213 Q200 246 159 246 Q119 246 85 216 Q51 186 44 143 Q38 105 59 81 Q80 57 119 57 Z " />
<glyph glyph-name="minus" unicode="&#x2212;" horiz-adv-x="560" d="M509 307 L499 269 L67 269 L77 307 L509 307 Z " />
<glyph glyph-name="notequal" unicode="&#x2260;" horiz-adv-x="560" d="M488 217 L479 179 L219 179 L67 7 L18 7 L170 179 L47 179 L56 217 L203 217 L329 359 L88 359 L97 397 L362 397 L510 564 L559 564 L411 397 L529 397 L520 359 L378 359 L252 217 L488 217 Z " />
<glyph glyph-name="approxequal" unicode="&#x2248;" horiz-adv-x="560" d="M393 361 Q421 361 445 379.5 Q469 398 479 426 L515 426 Q498 379 463.5 351 Q429 323 387 323 Q365 323 340 332 Q315 341 270 368 Q235 389 219 395.5 Q203 402 190 402 Q166 402 140 382 Q114 362 100 332 L61 332 Q77 376 115.5 406.5 Q154 437 196 437 Q216 437 238.5 429 Q261 421 303 396 Q341 374 359.5 367.5 Q378 361 393 361 Z M393 181 Q421 181 445 199.5 Q469 218 479 246 L515 246 Q498 199 463.5 171 Q429 143 387 143 Q365 143 340 152 Q315 161 270 188 Q235 209 219 215.5 Q203 222 190 222 Q166 222 140 202 Q114 182 100 152 L61 152 Q77 196 115.5 226.5 Q154 257 196 257 Q216 257 238.5 249 Q261 241 303 216 Q341 194 359.5 187.5 Q378 181 393 181 Z " />
<glyph glyph-name="lessequal" unicode="&#x2264;" horiz-adv-x="560" d="M459 113 L448 73 L67 293 L77 335 L561 560 L551 513 L112 311 L459 113 Z M441 38 L431 0 L-1 0 L9 38 L441 38 Z " />
<glyph glyph-name="greaterequal" unicode="&#x2265;" horiz-adv-x="560" d="M509 335 L499 293 L16 73 L28 119 L465 317 L119 519 L129 560 L509 335 Z M441 38 L431 0 L-1 0 L9 38 L441 38 Z " />
<glyph glyph-name="infinity" unicode="&#x221e;" horiz-adv-x="560" d="M174 231 Q188 231 208 245.5 Q228 260 263 292 Q234 322 212 336.5 Q190 351 171 351 Q149 351 134.5 334.5 Q120 318 120 293 Q120 266 135 248.5 Q150 231 174 231 Z M392 200 Q369 200 347.5 213 Q326 226 282 269 Q230 221 211 210.5 Q192 200 171 200 Q134 200 108.5 225.5 Q83 251 83 291 Q83 331 108.5 356.5 Q134 382 171 382 Q195 382 218 368.5 Q241 355 282 313 Q321 354 344 368 Q367 382 392 382 Q429 382 455 356.5 Q481 331 481 292 Q481 252 455.5 226 Q430 200 392 200 Z M392 351 Q373 351 353 337.5 Q333 324 301 292 Q336 258 356.5 244.5 Q377 231 395 231 Q417 231 430.5 248.5 Q444 266 444 292 Q444 318 429.5 334.5 Q415 351 392 351 Z " />
<glyph glyph-name="lozenge" unicode="&#x25ca;" horiz-adv-x="515" d="M520 348 L191 -33 L40 348 L364 717 L520 348 Z M91 346 L208 42 L467 346 L347 642 L91 346 Z " />
<glyph glyph-name="radical" unicode="&#x221a;" horiz-adv-x="431" d="M563 693 L181 0 L135 0 L59 496 L102 496 L166 51 L168 51 L514 693 L563 693 Z " />
<glyph glyph-name="integral" unicode="&#x222b;" horiz-adv-x="363" d="M-39 -157 Q14 -157 43.5 -133 Q73 -109 85 -56 L227 563 Q245 639 283 672 Q321 705 396 705 Q421 705 438.5 703 Q456 701 470 696 L461 660 Q445 665 427 668 Q409 671 394 671 Q341 671 311.5 646.5 Q282 622 270 569 L128 -48 Q110 -125 71.5 -158 Q33 -191 -44 -191 Q-66 -191 -83.5 -188.5 Q-101 -186 -114 -182 L-106 -146 Q-91 -151 -73.5 -154 Q-56 -157 -39 -157 Z " />
<glyph glyph-name="partialdiff" unicode="&#x2202;" horiz-adv-x="529" d="M422 486 Q393 547 348.5 601.5 Q304 656 251 693 L309 693 Q418 607 469 486 Q520 365 493 242 Q468 129 394 58.5 Q320 -12 222 -12 Q122 -12 81 61 Q40 134 68 253 Q95 370 166.5 439 Q238 508 336 508 Q361 508 383 502.5 Q405 497 422 486 Z M109 248 Q85 143 116 82.5 Q147 22 228 22 Q310 22 368.5 82.5 Q427 143 451 248 Q475 353 444 413.5 Q413 474 332 474 Q250 474 191.5 413.5 Q133 353 109 248 Z " />
<glyph glyph-name="product" unicode="&#x220f;" horiz-adv-x="632" d="M651 693 L492 0 L446 0 L597 656 L221 656 L70 0 L24 0 L183 693 L651 693 Z " />
<glyph glyph-name="pi" unicode="&#x3c0;" horiz-adv-x="557" d="M459 25 Q468 25 473.5 25 Q479 25 483 26 L475 -8 Q473 -8 470.5 -8 Q468 -8 463 -8 Q457 -9 453 -9 Q449 -9 445 -9 Q374 -9 350 25.5 Q326 60 343 135 L419 461 L203 461 L97 0 L55 0 L161 461 L68 461 L76 496 L591 496 L583 461 L461 461 L383 127 Q371 75 389.5 50 Q408 25 459 25 Z " />
<glyph glyph-name="summation" unicode="&#x2211;" horiz-adv-x="532" d="M445 37 L437 0 L-15 0 L-7 36 L319 356 L136 656 L144 693 L586 693 L578 656 L189 656 L372 361 L370 346 L51 37 L445 37 Z " />
<glyph glyph-name="Omega" unicode="&#x2126;" horiz-adv-x="662" d="M564 37 L555 0 L359 0 L367 38 Q443 76 503 165 Q563 254 589 363 Q621 499 578 583.5 Q535 668 427 668 Q319 668 236.5 584 Q154 500 123 363 Q98 255 117.5 165.5 Q137 76 195 38 L187 0 L-10 0 L-1 37 L136 37 Q127 44 118.5 54.5 Q110 65 101 80 Q71 133 64.5 209.5 Q58 286 77 370 Q112 524 206.5 615 Q301 706 429 706 Q561 706 616.5 609.5 Q672 513 636 357 Q616 272 573.5 198.5 Q531 125 469 69 Q458 59 447.5 51.5 Q437 44 427 37 L564 37 Z " />
<glyph glyph-name="uni03A9" unicode="&#x3a9;" horiz-adv-x="662" d="M564 37 L555 0 L359 0 L367 38 Q443 76 503 165 Q563 254 589 363 Q621 499 578 583.5 Q535 668 427 668 Q319 668 236.5 584 Q154 500 123 363 Q98 255 117.5 165.5 Q137 76 195 38 L187 0 L-10 0 L-1 37 L136 37 Q127 44 118.5 54.5 Q110 65 101 80 Q71 133 64.5 209.5 Q58 286 77 370 Q112 524 206.5 615 Q301 706 429 706 Q561 706 616.5 609.5 Q672 513 636 357 Q616 272 573.5 198.5 Q531 125 469 69 Q458 59 447.5 51.5 Q437 44 427 37 L564 37 Z " />
<glyph glyph-name="increment" unicode="&#x2206;" horiz-adv-x="605" d="M433 693 L545 0 L-56 0 L375 693 L433 693 Z M18 37 L495 37 L398 650 L396 650 L18 37 Z " />
<glyph glyph-name="uni0394" unicode="&#x394;" horiz-adv-x="605" d="M433 693 L545 0 L-56 0 L375 693 L433 693 Z M18 37 L495 37 L398 650 L396 650 L18 37 Z " />
<glyph glyph-name="uni2113" unicode="&#x2113;" horiz-adv-x="446" d="M236 25 Q265 25 294 37 Q323 49 353 73 L369 47 Q335 18 299 3.5 Q263 -11 225 -11 Q167 -11 134.5 20.5 Q102 52 102 109 Q102 123 104 142.5 Q106 162 111 186 L19 134 L12 167 L120 228 L175 467 Q204 591 243 642 Q282 693 349 693 Q398 693 424 665.5 Q450 638 450 587 Q450 483 383 395.5 Q316 308 159 213 Q151 175 147 151.5 Q143 128 143 119 Q143 73 167 49 Q191 25 236 25 Z M346 655 Q303 655 273 617.5 Q243 580 226 504 L169 255 Q293 335 350.5 414 Q408 493 408 582 Q408 616 391.5 635.5 Q375 655 346 655 Z " />
<glyph glyph-name="estimated" unicode="&#x212e;" horiz-adv-x="883" d="M383 8 Q456 8 522.5 39 Q589 70 641 127 L698 127 Q643 60 561.5 23.5 Q480 -13 383 -13 Q306 -13 234.5 13 Q163 39 107 87 Q47 138 14.5 206 Q-18 274 -18 349 Q-18 422 15 489.5 Q48 557 108 608 Q164 655 235 680.5 Q306 706 383 706 Q462 706 534 680 Q606 654 662 605 Q721 553 753 484 Q785 415 785 339 L140 339 Q135 339 133 336.5 Q131 334 131 328 L131 150 Q131 120 157.5 92.5 Q184 65 233 43 Q269 27 310 17.5 Q351 8 383 8 Z M636 366 L636 546 Q636 557 631 570 Q626 583 618 593 Q569 639 509.5 663 Q450 687 383 687 Q317 687 258.5 663.5 Q200 640 150 593 Q142 582 136.5 569 Q131 556 131 546 L131 366 Q131 362 133 360 Q135 358 140 358 L626 358 Q631 358 633.5 360 Q636 362 636 366 Z " />
<glyph glyph-name="at.case" unicode="&#xe1fb;" horiz-adv-x="779" d="M340 17 Q378 17 419 26.5 Q460 36 502 54 L509 26 Q463 6 420.5 -4 Q378 -14 336 -14 Q189 -14 114.5 89 Q40 192 76 346 Q111 500 234.5 603 Q358 706 503 706 Q647 706 722.5 602.5 Q798 499 764 350 Q743 257 691.5 200 Q640 143 574 143 Q541 143 526 159.5 Q511 176 511 213 Q511 213 510.5 213 Q510 213 509 213 Q482 176 447 157 Q412 138 371 138 Q294 138 261 193.5 Q228 249 252 351 Q275 448 330 501 Q385 554 460 554 Q501 554 527 537 Q553 520 565 485 Q566 485 566.5 485 Q567 485 567 485 L581 546 L622 546 L558 271 Q546 221 553 198 Q560 175 588 175 Q633 175 671 226 Q709 277 726 355 Q756 494 691 584.5 Q626 675 499 675 Q368 675 258.5 578 Q149 481 117 341 Q85 202 148.5 109.5 Q212 17 340 17 Z M294 347 Q274 261 296.5 216.5 Q319 172 380 172 Q435 172 473.5 212 Q512 252 531 331 Q537 354 540 376 Q543 398 544 418 Q545 468 523.5 494 Q502 520 458 520 Q399 520 356.5 475.5 Q314 431 294 347 Z " />
<glyph glyph-name="bar.case" unicode="&#xe1f9;" horiz-adv-x="239" d="M265 796 L60 -93 L19 -93 L224 796 L265 796 Z " />
</font>
</svg>
